{"glyphs":{"0":{"ha":1071,"x_min":0,"x_max":0,"o":"m 371 1056 b 158 201 93 646 24 363 b 364 122 203 149 278 122 b 718 256 479 122 614 168 b 994 757 910 417 1036 647 b 401 1065 958 850 525 1065 b 371 1056 386 1065 375 1063 z m 563 299 b 375 229 474 253 418 229 b 260 303 331 229 300 254 b 388 835 183 394 264 732 b 493 861 410 853 447 861 b 856 707 626 861 824 789 b 563 299 892 611 729 385 z "},"1":{"ha":907,"x_min":0,"x_max":0,"o":"m 654 115 b 510 361 550 167 517 222 b 356 1226 486 825 415 1226 b 126 892 276 1226 126 1007 b 144 835 126 853 131 835 b 204 871 157 835 175 847 b 292 918 239 900 274 918 b 300 915 294 918 299 918 b 354 549 310 904 335 740 b 321 214 385 264 389 214 b 271 218 307 214 290 215 b 208 222 247 221 226 222 b 367 54 74 222 144 133 b 724 -39 540 -8 658 -39 b 789 1 768 -39 789 -25 b 654 115 789 28 728 79 z "},"2":{"ha":981,"x_min":0,"x_max":0,"o":"m 569 1033 b 389 1081 522 1067 456 1081 b 121 951 264 1081 136 1031 b 172 867 110 896 128 867 b 325 919 208 867 258 885 b 418 950 363 939 392 950 b 486 918 443 950 465 939 b 399 583 529 875 507 789 b 428 136 240 279 247 171 b 682 108 526 117 613 108 b 853 154 772 108 833 124 b 708 263 899 229 856 263 b 621 260 682 263 653 261 b 418 296 508 254 418 269 b 544 565 418 322 475 444 b 569 1033 699 836 704 938 z "},"3":{"ha":772,"x_min":0,"x_max":0,"o":"m 56 1100 b 124 1043 56 1061 72 1043 b 233 1057 150 1043 186 1049 b 317 1065 265 1063 293 1065 b 258 857 465 1065 450 957 b 278 628 49 749 58 628 b 493 349 517 628 603 515 b 285 139 447 279 354 185 b 186 11 215 93 171 36 b 247 -31 203 -17 222 -31 b 436 75 288 -31 344 3 b 658 592 618 218 725 467 b 478 733 632 642 550 707 l 346 785 l 490 936 b 558 1165 621 1072 628 1096 b 358 1219 521 1203 442 1219 b 56 1100 215 1219 56 1172 z "},"4":{"ha":1256,"x_min":0,"x_max":0,"o":"m 408 319 b 451 313 421 314 436 313 b 772 550 567 313 742 435 b 824 615 783 594 801 615 b 964 336 872 615 936 504 b 1075 136 986 206 1025 136 b 1013 708 1161 136 1161 138 b 847 1053 953 939 899 1053 b 801 906 792 1053 779 1015 b 681 599 825 788 800 725 b 481 442 597 513 507 442 b 275 872 408 442 275 721 b 199 1001 275 953 247 1001 b 408 319 25 1001 211 394 z "},"5":{"ha":917,"x_min":0,"x_max":0,"o":"m 243 1007 b 471 428 42 790 58 749 b 539 269 567 353 583 314 b 468 235 517 247 496 235 b 374 267 443 235 413 246 b 292 299 335 288 308 299 b 267 257 274 299 267 285 b 436 71 267 181 356 71 b 619 189 488 71 544 110 b 443 621 761 340 711 463 b 469 901 185 774 238 901 b 743 858 543 901 636 889 b 840 838 789 846 819 838 b 869 911 876 838 881 860 b 700 1039 860 967 790 1019 b 460 1110 615 1058 507 1089 b 419 1118 447 1115 433 1118 b 243 1007 369 1118 313 1082 z "},"6":{"ha":958,"x_min":0,"x_max":0,"o":"m 372 471 b 306 421 351 436 328 421 b 246 525 274 421 246 458 b 526 971 246 692 379 904 b 568 1169 656 1031 678 1133 b 142 721 496 1194 215 899 b 249 111 65 536 117 243 b 465 17 311 49 386 17 b 722 118 549 17 636 51 b 772 429 879 240 889 300 b 514 521 718 488 607 521 b 372 471 449 521 393 506 z m 624 196 b 468 167 571 176 517 167 b 318 222 399 167 340 186 b 564 368 272 297 390 367 b 624 196 718 369 760 249 z "},"7":{"ha":903,"x_min":0,"x_max":0,"o":"m 160 1029 b 356 1049 251 1040 314 1049 b 439 944 436 1049 440 1021 b 240 689 439 778 385 710 b 93 600 172 679 107 639 b 124 550 82 565 89 550 b 211 564 143 550 172 554 b 304 586 254 575 285 586 b 256 136 357 586 333 507 b 306 -18 231 15 242 -18 b 451 415 393 -18 431 93 b 657 635 465 611 474 621 b 847 729 786 646 847 676 b 788 786 847 768 832 786 b 688 771 764 786 731 781 b 582 753 639 760 604 753 b 563 874 535 753 540 783 b 338 1206 622 1113 560 1206 b -121 1050 106 1206 -121 1129 b -17 1015 -121 1026 -87 1015 b 160 1029 28 1015 86 1019 z "},"8":{"ha":956,"x_min":0,"x_max":0,"o":"m 232 -39 b 365 -75 272 -62 318 -75 b 719 111 479 -75 608 -10 b 732 496 892 297 892 324 b 683 794 585 656 583 663 b 526 1263 835 993 717 1263 b 429 1240 496 1263 463 1256 b 197 824 236 1153 126 956 b 149 496 243 736 233 672 b 232 -39 31 253 61 63 z m 319 963 b 494 1113 351 1061 428 1113 b 604 982 554 1113 604 1071 b 540 806 604 933 576 854 b 465 744 510 764 490 744 b 381 786 443 744 418 758 b 319 963 317 833 297 889 z m 269 439 b 389 619 311 538 364 619 b 707 300 439 619 707 350 b 594 163 707 281 657 219 b 386 61 519 92 447 61 b 269 439 251 61 178 217 z "},"9":{"ha":974,"x_min":0,"x_max":0,"o":"m 507 681 b 665 746 574 719 638 746 b 678 742 671 746 675 744 b 635 515 692 729 672 626 b 533 122 597 404 551 228 b 579 -68 506 -32 514 -68 b 758 415 672 -68 675 -61 b 918 943 793 613 865 850 b 958 1185 993 1075 1003 1132 b 882 1231 932 1217 906 1231 b 810 1104 840 1231 810 1185 b 417 765 810 994 594 810 b 333 753 383 757 356 753 b 510 1056 179 753 263 929 b 624 1257 715 1161 769 1257 b 146 897 517 1257 217 1031 b 147 696 108 828 108 768 b 288 599 182 631 226 599 b 507 681 344 599 415 626 z "},"\u0000":{"ha":0,"x_min":0,"x_max":0,"o":""},"\r":{"ha":347,"x_min":0,"x_max":0,"o":""}," ":{"ha":513,"x_min":0,"x_max":0,"o":""},"!":{"ha":404,"x_min":0,"x_max":0,"o":"m 272 1349 b 186 1276 239 1360 200 1328 b 147 485 161 1194 132 582 b 185 444 151 457 167 444 b 274 535 215 444 257 479 b 272 1349 332 735 331 1329 z m 153 89 b 50 13 96 89 50 56 b 153 -64 50 -29 96 -64 b 254 13 210 -64 254 -29 b 153 89 254 56 210 89 z "},"\"":{"ha":551,"x_min":0,"x_max":0,"o":"m 332 1088 b 371 869 274 1068 274 1074 b 468 732 417 772 449 719 b 332 1088 568 797 411 1113 z m 303 878 b 149 981 303 921 201 981 b 129 976 142 981 135 979 b 188 850 107 963 128 918 b 301 678 239 792 290 714 b 357 614 315 636 336 614 b 394 642 369 614 383 622 b 367 768 404 657 400 725 b 303 878 332 813 303 861 z "},"#":{"ha":1488,"x_min":0,"x_max":0,"o":"m 1160 518 b 1065 511 1126 514 1094 511 b 926 549 994 511 942 525 b 874 579 914 569 896 579 b 799 556 853 579 828 572 b 738 535 772 542 753 535 b 682 628 708 535 694 563 b 799 911 657 758 719 911 b 847 783 825 911 847 854 b 897 661 847 701 869 661 b 979 783 925 661 958 701 b 1168 899 1006 889 1038 908 b 1347 982 1289 889 1332 910 b 1306 1061 1358 1039 1351 1061 b 1235 1053 1288 1061 1264 1058 b 1175 1046 1211 1049 1192 1046 b 1074 1125 1119 1046 1090 1069 b 1022 1192 1058 1169 1043 1192 b 976 1168 1010 1192 994 1183 b 879 1135 951 1147 914 1135 b 835 1143 863 1135 847 1138 b 807 1149 825 1147 815 1149 b 729 1063 771 1149 744 1119 b 569 964 710 988 688 964 b 431 969 532 964 488 965 b 297 975 376 974 332 975 b 158 911 190 975 158 957 b 379 819 158 858 224 831 b 582 692 571 806 596 790 b 325 536 569 603 518 572 b 82 422 172 510 82 467 b 183 353 82 376 129 353 b 322 407 232 353 286 371 b 392 444 347 432 372 444 b 451 275 442 444 471 378 b 486 150 436 193 451 150 b 596 228 514 150 551 175 b 596 349 650 293 650 315 b 586 424 550 376 547 400 b 631 435 599 431 614 435 b 818 294 718 435 851 349 b 815 169 801 267 800 211 b 893 96 831 129 865 96 b 943 281 982 96 1010 200 b 1014 414 876 361 918 414 b 1157 385 1053 414 1103 406 b 1283 354 1210 365 1250 354 b 1361 386 1315 354 1340 365 b 1251 525 1443 468 1392 525 b 1160 518 1224 525 1193 522 z "},"$":{"ha":979,"x_min":0,"x_max":0,"o":"m 768 471 b 622 764 681 538 632 633 b 643 1018 608 935 615 1018 b 693 967 656 1018 672 1000 b 775 904 719 924 746 904 b 817 915 789 904 801 908 b 729 1108 921 968 869 1081 b 554 1282 644 1125 589 1179 b 460 1404 525 1365 488 1404 b 433 1257 428 1404 410 1353 b 306 1082 460 1146 447 1128 b 128 967 219 1054 139 1003 b 408 579 97 872 276 624 b 540 432 471 560 531 493 b 486 308 554 351 531 308 b 361 383 454 308 410 332 b 290 439 326 419 304 439 b 265 376 276 439 271 418 b 383 222 257 317 301 260 b 528 28 467 183 518 114 b 604 -122 539 -72 564 -122 b 667 -92 622 -122 643 -112 b 667 61 694 -69 693 0 b 743 228 621 164 626 176 b 768 471 915 304 919 354 z m 517 681 b 496 665 514 671 507 665 b 343 764 471 665 422 696 b 382 1015 235 854 251 964 b 425 1025 399 1022 413 1025 b 497 879 464 1025 481 986 b 517 681 513 785 521 696 z m 735 365 b 688 331 728 344 708 331 b 671 333 682 331 676 332 b 638 397 644 342 629 371 b 686 432 646 418 664 432 b 703 429 692 432 697 431 b 735 365 729 421 743 392 z "},"%":{"ha":1619,"x_min":0,"x_max":0,"o":"m 1313 531 b 1007 447 1186 531 1063 497 b 975 82 901 350 885 172 b 1132 21 1008 49 1079 21 b 1525 425 1261 21 1525 293 b 1313 531 1525 515 1494 531 z m 1271 225 b 1124 129 1207 161 1160 129 b 1046 208 1090 129 1065 156 b 1232 406 1006 313 1051 361 b 1310 417 1264 414 1289 417 b 1271 225 1401 417 1390 344 z m 596 -8 b 1457 1183 446 25 1168 1024 b 1519 1294 1511 1214 1539 1264 b 1476 1311 1513 1306 1499 1311 b 1154 1197 1422 1311 1318 1274 l 824 1043 l 664 1144 b 503 1219 585 1194 544 1219 b 336 1146 461 1219 419 1194 b 183 618 128 1024 64 800 b 382 492 231 544 314 492 b 772 838 501 492 772 732 b 1039 1046 772 900 969 1046 b 1057 1040 1047 1046 1053 1044 b 821 664 1072 1025 965 856 b 418 -147 460 182 342 -56 b 496 -192 443 -178 467 -192 b 574 -167 518 -192 543 -183 b 596 -8 689 -106 700 -31 z m 618 757 b 406 642 546 679 468 642 b 263 826 322 642 263 706 b 451 1035 263 957 338 1035 b 551 1017 482 1035 515 1029 b 618 757 731 957 747 896 z "},"&":{"ha":1317,"x_min":0,"x_max":0,"o":"m 1163 707 b 1086 606 1121 707 1086 663 b 996 504 1086 542 1043 504 b 903 563 963 504 928 522 b 994 729 882 597 921 668 b 1157 1158 1197 896 1249 1029 b 899 1268 1106 1231 1006 1268 b 639 1189 810 1268 714 1242 b 585 771 515 1101 485 871 b 506 658 629 725 611 699 b 301 606 429 629 336 606 b 139 499 265 606 192 557 b 185 269 43 393 44 390 b 524 149 278 189 396 149 b 847 233 629 149 740 176 b 1094 307 936 281 1049 314 b 1154 393 1156 299 1172 322 b 1183 526 1140 447 1153 507 b 1163 707 1265 578 1250 707 z m 819 1121 b 922 1144 861 1136 894 1144 b 1022 1100 961 1144 992 1129 b 957 868 1082 1039 1072 1006 b 774 717 871 767 817 717 b 676 839 735 717 707 757 b 819 1121 617 997 646 1054 z m 768 332 b 500 297 678 308 583 297 b 219 406 342 297 219 336 b 753 543 219 453 594 543 b 807 536 776 543 794 540 b 768 332 921 492 897 367 z "},"'":{"ha":417,"x_min":0,"x_max":0,"o":"m 175 971 b 214 753 117 953 117 957 b 311 615 260 656 292 603 b 175 971 411 682 254 996 z "},"(":{"ha":753,"x_min":0,"x_max":0,"o":"m 564 67 b 281 706 446 111 281 485 b 414 1065 281 849 319 953 b 482 1275 518 1189 538 1275 b 393 1240 461 1275 432 1264 b 128 660 264 1163 128 863 b 422 -15 128 482 269 157 b 569 -104 465 -64 532 -104 b 564 67 661 -104 657 31 z "},")":{"ha":556,"x_min":0,"x_max":0,"o":"m 217 1186 b 281 774 136 1186 138 1181 b 151 90 382 486 317 143 b 85 -53 49 58 25 7 b 153 -82 106 -74 128 -82 b 475 494 292 -82 475 218 b 217 1186 475 763 317 1186 z "},"*":{"ha":626,"x_min":0,"x_max":0,"o":"m 596 1031 b 521 1076 590 1060 557 1081 b 339 1079 490 1072 413 1074 l 335 1113 b 267 1249 315 1201 292 1249 b 244 1235 260 1249 251 1244 b 226 1076 231 1218 225 1146 b 43 893 93 1050 -24 950 b 90 878 54 883 71 878 b 151 896 110 878 132 885 b 211 918 176 911 197 918 b 176 776 256 918 247 856 b 165 669 96 689 96 679 b 279 743 208 663 258 696 b 335 819 301 794 314 819 b 431 756 354 819 381 797 b 522 708 469 722 500 708 b 492 850 567 708 567 771 l 393 953 l 500 965 b 596 1031 558 972 601 1001 z "},"+":{"ha":888,"x_min":0,"x_max":0,"o":"m 824 632 b 685 690 818 671 788 681 b 500 799 556 703 513 710 b 413 911 489 874 450 911 b 338 790 374 911 338 871 b 210 638 338 703 301 660 b 160 454 74 603 32 454 b 236 506 201 454 236 478 b 310 556 236 533 268 556 b 417 326 357 556 394 476 b 513 210 436 222 461 210 b 514 443 589 210 553 296 b 592 564 490 533 497 564 b 653 561 608 564 629 563 b 824 632 746 553 831 568 z "},",":{"ha":374,"x_min":0,"x_max":0,"o":"m 218 307 b 185 319 208 315 197 319 b 132 283 163 319 140 306 b 14 -35 94 185 21 -11 b 44 -71 10 -53 21 -71 b 200 56 78 -71 132 -40 b 218 307 294 188 265 267 z "},"-":{"ha":901,"x_min":0,"x_max":0,"o":"m 444 608 b 271 613 375 611 318 613 b 79 544 117 613 79 594 b 465 465 79 481 151 465 b 831 529 751 465 835 479 b 444 608 822 635 679 599 z "},".":{"ha":375,"x_min":0,"x_max":0,"o":"m 246 258 b 171 304 225 289 200 304 b 82 267 144 304 114 292 b 64 122 32 229 44 150 b 139 75 86 90 111 75 b 238 132 169 75 203 94 b 246 258 272 168 275 217 z "},"/":{"ha":717,"x_min":0,"x_max":0,"o":"m 867 1468 b 26 -1 807 1468 74 186 b 83 -53 17 -40 42 -62 b 476 576 125 -43 301 240 b 865 1268 651 913 826 1224 b 867 1468 956 1371 956 1468 z "},":":{"ha":492,"x_min":0,"x_max":0,"o":"m 354 278 b 278 324 333 308 307 324 b 190 288 251 324 222 311 b 172 143 140 249 153 171 b 247 94 194 111 219 94 b 346 151 278 94 311 114 b 354 278 381 188 383 236 z m 297 601 b 304 728 331 638 333 685 b 229 774 283 758 258 774 b 140 736 203 774 172 761 b 122 592 90 699 103 619 b 197 544 144 560 169 544 b 297 601 228 544 261 563 z "},";":{"ha":426,"x_min":0,"x_max":0,"o":"m 254 282 b 221 294 244 290 233 294 b 168 258 199 294 176 281 b 50 -60 131 160 57 -36 b 81 -96 46 -78 57 -96 b 236 31 114 -96 168 -65 b 254 282 331 161 301 242 z m 314 771 b 239 817 293 801 268 817 b 150 779 213 817 182 804 b 132 635 100 740 113 663 b 207 586 154 603 179 586 b 306 643 238 586 271 606 b 314 771 340 681 343 728 z "},"<":{"ha":592,"x_min":0,"x_max":0,"o":"m 361 288 b 332 594 204 346 197 422 b 432 785 386 664 432 750 b 403 849 433 828 422 849 b 179 613 363 849 283 767 l 114 517 b 149 268 61 438 75 331 l 189 233 b 400 108 288 149 354 108 b 472 176 435 108 457 131 b 361 288 483 210 433 260 z "},"=":{"ha":888,"x_min":0,"x_max":0,"o":"m 367 592 b 711 715 656 625 711 644 b 606 754 711 742 679 754 b 421 740 561 754 500 750 b 119 617 106 704 74 690 b 267 586 132 597 192 586 b 367 592 299 586 332 588 z m 800 451 b 635 515 788 497 721 515 b 131 304 435 515 131 415 b 168 239 131 261 140 239 b 317 311 196 239 243 263 b 624 388 379 353 518 388 b 800 451 761 388 813 406 z "},">":{"ha":643,"x_min":0,"x_max":0,"o":"m 151 832 b 142 678 94 832 86 679 b 307 581 163 678 238 633 b 339 381 429 486 429 481 b 285 215 286 322 264 251 b 308 201 290 206 299 201 b 560 526 383 201 563 418 b 151 832 558 600 249 832 z "},"?":{"ha":603,"x_min":0,"x_max":0,"o":"m 565 1236 b 238 1363 488 1322 358 1363 b -75 1164 75 1363 -75 1292 b 3 1090 -75 1115 -39 1090 b 110 1165 44 1090 90 1115 b 264 1240 129 1217 194 1240 b 485 1107 368 1240 485 1189 b 275 808 485 1068 390 933 b 96 503 147 668 78 550 b 181 428 115 453 150 428 b 231 493 208 428 231 449 b 379 703 231 529 297 624 b 590 993 461 781 557 913 b 565 1236 642 1118 638 1157 z m 203 103 b 142 117 179 111 158 117 b 94 -4 86 117 65 72 b 171 -58 108 -37 138 -58 b 203 -51 181 -58 192 -56 b 203 103 304 -14 304 64 z "},"@":{"ha":1821,"x_min":0,"x_max":0,"o":"m 1558 889 b 890 1343 1317 1218 1133 1343 b 110 618 543 1343 110 940 b 797 15 110 376 417 107 b 965 -7 856 1 919 -7 b 1018 -1 988 -7 1006 -6 b 1210 18 1056 8 1142 18 b 1333 86 1279 18 1333 49 b 1040 153 1333 136 1251 154 b 428 964 371 147 58 563 b 883 1188 567 1114 725 1188 b 1432 854 1079 1188 1274 1075 b 1433 451 1619 593 1621 451 b 1256 604 1339 451 1294 489 b 1164 821 1228 689 1186 786 b 1028 882 1136 864 1086 882 b 629 560 856 882 607 719 b 824 429 640 476 722 429 b 1001 476 879 429 942 444 b 1092 507 1038 496 1065 507 b 1247 406 1136 507 1176 476 b 1456 279 1333 319 1393 279 b 1626 353 1506 279 1558 304 b 1558 889 1786 464 1768 603 z m 951 567 b 888 560 928 563 907 560 b 851 714 772 560 744 636 b 975 765 899 749 940 765 b 1068 669 1022 765 1056 733 b 951 567 1078 619 1035 582 z "},"A":{"ha":1038,"x_min":0,"x_max":0,"o":"m 207 247 b 519 514 279 469 331 513 b 815 197 665 515 815 356 b 892 107 815 147 850 107 b 968 186 933 107 968 143 b 511 922 968 319 594 922 b 331 758 468 922 388 849 b 3 119 157 482 6 186 b 40 49 0 71 17 49 b 207 247 89 49 168 131 z m 599 681 b 514 617 611 643 575 617 b 407 697 451 617 407 650 b 481 760 407 740 440 760 b 599 681 526 760 582 732 z "},"B":{"ha":1040,"x_min":0,"x_max":0,"o":"m 94 775 b 153 358 115 728 142 540 b 193 -31 165 176 183 1 b 342 -78 203 -64 263 -78 b 771 38 479 -78 675 -33 b 951 501 940 164 1025 382 b 758 656 922 549 835 618 b 711 826 622 722 621 726 b 703 1003 800 925 800 931 b 526 1050 658 1036 596 1050 b 94 775 311 1050 36 908 z m 750 531 b 696 158 875 482 846 275 b 450 54 610 90 518 54 b 349 115 400 54 361 74 b 329 496 286 322 281 436 b 561 561 364 538 460 561 b 750 531 628 561 696 551 z m 546 761 b 365 665 488 697 419 665 b 269 765 310 665 269 699 b 499 913 269 878 408 913 b 546 761 603 913 628 853 z "},"C":{"ha":874,"x_min":0,"x_max":0,"o":"m 303 149 b 610 83 389 106 508 83 b 810 160 721 83 810 110 b 585 236 810 217 751 236 b 199 522 328 236 199 332 b 440 736 199 646 317 736 b 564 701 482 736 525 726 b 667 663 607 675 642 663 b 676 788 715 663 725 710 b 479 888 635 854 564 888 b 254 825 413 888 335 867 b 303 149 -28 679 0 301 z "},"D":{"ha":958,"x_min":0,"x_max":0,"o":"m 147 946 b 133 547 69 885 69 849 b 206 106 172 365 206 167 b 308 -33 207 40 233 -33 b 921 622 508 -33 921 393 b 347 1006 921 822 597 1006 b 147 946 269 1006 199 988 z m 638 793 b 610 319 815 713 804 542 b 399 139 507 203 443 139 b 283 535 338 139 315 261 b 378 853 247 851 249 853 b 638 793 449 853 567 826 z "},"E":{"ha":988,"x_min":0,"x_max":0,"o":"m 493 815 b 747 832 613 822 726 829 b 786 917 768 833 786 871 b 694 983 786 964 767 983 b 215 893 565 983 328 939 b 101 519 82 840 78 828 b 204 81 115 344 161 146 b 326 -12 246 17 285 -12 b 369 -3 340 -12 354 -10 b 643 57 415 18 539 46 b 901 279 856 83 986 194 b 838 307 883 299 863 307 b 753 281 813 307 785 299 b 339 150 626 213 422 150 b 306 158 322 150 311 153 b 276 333 289 175 276 254 b 329 460 276 428 283 460 b 403 447 347 460 371 456 b 476 436 433 440 457 436 b 531 497 517 436 531 454 b 401 579 531 551 486 579 b 246 769 278 579 178 701 b 493 815 263 788 375 808 z "},"F":{"ha":894,"x_min":0,"x_max":0,"o":"m 592 913 b 921 989 871 913 933 926 b 713 1053 911 1035 865 1053 b 117 1013 613 1053 147 1032 b 192 -12 86 993 151 93 b 278 -82 206 -50 244 -82 b 304 135 318 -82 326 -15 b 339 543 256 454 226 543 b 615 497 393 543 481 522 b 708 486 651 490 683 486 b 782 517 754 486 782 497 b 374 693 782 576 561 671 b 246 810 285 704 246 739 b 592 913 246 903 281 913 z "},"G":{"ha":1104,"x_min":0,"x_max":0,"o":"m 90 689 b 279 85 14 546 118 211 b 488 -19 353 26 446 -19 b 889 415 604 -19 924 325 b 994 544 869 467 903 510 b 1079 646 1082 578 1111 613 b 992 667 1065 660 1035 667 b 736 629 932 667 846 654 b 590 464 433 560 349 464 b 626 219 771 464 790 338 b 457 151 564 175 507 151 b 239 390 360 151 286 232 b 272 694 186 565 190 604 b 563 828 324 750 454 811 b 610 990 771 861 801 963 b 90 689 479 1010 165 828 z "},"H":{"ha":1103,"x_min":0,"x_max":0,"o":"m 726 413 b 864 103 860 413 853 364 b 936 -11 867 40 899 -11 b 988 486 986 -11 999 107 b 910 982 978 847 956 982 b 818 779 872 982 833 896 l 793 575 l 513 575 b 249 710 240 575 233 578 b 163 899 261 815 213 899 b 108 861 144 899 125 888 b 186 47 76 807 132 214 b 222 4 196 18 206 4 b 282 38 236 4 254 15 b 306 229 336 83 342 131 b 269 374 278 301 261 365 b 726 413 285 386 657 413 z "},"I":{"ha":1124,"x_min":0,"x_max":0,"o":"m 538 439 b 599 811 421 718 438 829 b 707 935 738 796 824 894 b 596 947 683 943 644 947 b 68 835 407 947 85 888 b 171 771 56 796 94 771 b 357 563 271 771 306 732 b 447 282 392 447 432 321 b 322 211 467 231 432 211 b 93 38 168 211 26 104 b 150 24 103 28 124 24 b 258 42 182 24 221 29 b 693 90 329 64 525 86 b 1024 185 1101 100 1096 99 b 786 261 989 228 882 261 b 538 439 635 261 601 286 z "},"J":{"ha":965,"x_min":0,"x_max":0,"o":"m 308 739 b 522 793 393 774 476 793 b 558 785 540 793 553 790 b 653 500 578 761 621 635 b 632 103 703 299 699 232 b 428 -99 589 18 496 -72 b 336 -268 303 -146 272 -203 b 389 -297 354 -286 369 -297 b 631 -101 432 -297 492 -243 b 826 300 790 63 826 136 b 749 657 826 411 790 571 b 846 871 660 835 676 871 b 965 947 918 871 965 901 b 868 1024 965 989 921 1024 b 71 764 721 1024 107 824 b 99 682 36 710 47 682 b 308 739 142 682 213 700 z "},"K":{"ha":1007,"x_min":0,"x_max":0,"o":"m 249 674 b 182 1036 246 907 249 1036 b 168 -46 63 1036 117 6 b 196 -56 175 -53 185 -56 b 267 -26 217 -56 243 -46 b 278 178 314 14 318 65 b 332 481 224 335 250 481 b 508 260 358 481 438 381 b 801 -65 639 38 731 -65 b 861 -37 824 -65 843 -56 b 813 99 906 8 894 40 b 492 549 711 169 492 478 b 688 613 492 567 579 594 b 965 792 954 656 1043 713 b 893 817 949 808 926 817 b 586 732 835 817 743 790 b 290 650 439 676 340 650 b 249 674 263 650 249 658 z "},"L":{"ha":1032,"x_min":0,"x_max":0,"o":"m 665 76 b 878 228 874 76 989 158 b 782 243 863 238 826 243 b 604 224 731 243 667 236 b 360 181 488 201 378 182 b 292 638 342 179 313 385 b 183 1096 265 983 239 1096 b 111 972 140 1096 111 1044 b 246 14 111 806 215 63 b 281 0 251 4 264 0 b 365 25 304 0 335 8 b 665 76 418 53 553 76 z "},"M":{"ha":1542,"x_min":0,"x_max":0,"o":"m 1326 946 b 1278 954 1313 951 1296 954 b 932 732 1167 954 997 850 b 863 610 901 676 869 621 b 735 693 856 597 799 635 b 271 963 632 788 331 963 b 165 882 257 963 210 926 b 214 146 35 750 74 146 b 251 478 261 146 271 231 b 283 808 233 710 243 808 b 800 425 401 808 753 547 b 900 303 831 344 869 303 b 953 419 931 303 953 342 b 1236 808 953 563 1132 808 b 1278 533 1296 808 1303 754 b 1279 121 1260 381 1260 196 b 1375 10 1297 47 1339 10 b 1432 113 1408 10 1435 43 b 1419 556 1429 160 1424 358 b 1326 946 1413 838 1393 921 z "},"N":{"ha":1249,"x_min":0,"x_max":0,"o":"m 132 53 b 208 282 189 53 208 113 b 244 511 208 408 225 511 b 410 389 264 511 339 456 b 790 182 482 321 653 229 b 1017 126 904 144 969 126 b 1114 171 1058 126 1085 142 b 1040 919 1215 272 1150 919 b 1000 588 978 919 971 861 b 978 257 1026 350 1019 257 b 339 600 885 257 506 461 b 194 694 263 664 224 694 b 122 633 169 694 151 672 b 56 297 86 583 56 432 b 132 53 56 114 75 53 z "},"O":{"ha":1110,"x_min":0,"x_max":0,"o":"m 589 947 b 533 954 569 951 551 954 b 258 785 458 954 389 908 b 53 406 92 628 53 556 b 308 35 53 225 138 101 b 436 17 340 22 385 17 b 954 163 611 17 867 82 b 589 947 1175 368 949 857 z m 869 258 b 588 178 854 232 726 196 b 447 168 535 171 488 168 b 206 396 269 168 206 235 b 564 785 206 619 382 785 b 740 725 624 785 685 767 b 869 258 856 640 933 360 z "},"P":{"ha":843,"x_min":0,"x_max":0,"o":"m 776 922 b 517 997 736 971 633 997 b 250 951 428 997 332 982 b 106 607 139 908 122 867 b 107 144 96 444 96 236 b 189 -26 119 29 156 -26 b 267 183 229 -26 267 47 b 424 388 267 376 275 388 b 676 439 508 388 622 410 b 776 922 797 504 863 818 z m 576 542 b 393 492 513 508 446 492 b 304 528 350 492 317 503 b 276 700 294 549 282 626 b 413 856 271 811 294 838 b 539 865 454 861 500 865 b 615 857 572 865 600 863 b 576 542 711 825 683 599 z "},"Q":{"ha":1054,"x_min":0,"x_max":0,"o":"m 164 318 b 413 153 240 193 301 153 b 589 46 519 153 568 124 b 653 -29 601 -6 626 -29 b 725 103 689 -29 725 19 b 865 267 725 157 786 228 b 993 536 986 326 1004 363 b 515 1000 975 819 751 1000 b 193 869 403 1000 289 960 b 164 318 36 722 26 544 z m 276 763 b 543 864 347 829 447 864 b 736 803 614 864 683 844 b 829 357 839 722 893 458 b 771 315 811 328 790 315 b 665 506 725 315 682 386 b 557 657 660 556 621 657 b 543 440 521 657 519 603 b 518 213 567 278 567 213 b 407 258 494 213 458 229 b 164 632 329 304 164 558 b 276 763 164 647 215 706 z "},"R":{"ha":946,"x_min":0,"x_max":0,"o":"m 85 126 b 168 13 103 51 133 13 b 224 40 186 13 204 21 b 211 243 239 56 233 147 b 246 418 185 360 194 418 b 563 215 300 418 403 350 b 843 19 725 79 806 19 b 875 88 868 19 875 43 b 671 299 875 129 783 224 b 467 464 558 372 467 447 b 619 583 468 482 536 535 b 519 960 892 738 774 960 b 328 922 461 960 397 949 b 96 544 143 851 135 836 b 85 126 75 378 69 189 z m 503 828 b 531 643 642 828 656 738 b 349 576 472 599 406 576 b 233 631 299 576 256 594 b 503 828 186 707 351 828 z "},"S":{"ha":615,"x_min":0,"x_max":0,"o":"m 358 743 b 526 792 400 769 475 792 b 489 938 643 793 611 913 b 454 940 476 940 465 940 b 283 485 257 940 122 617 b 347 313 326 449 356 371 b 226 217 338 242 311 217 b 165 219 208 217 189 218 b 35 63 8 232 -57 153 b 129 31 57 40 90 31 b 510 286 278 31 510 167 b 396 542 510 343 458 458 b 358 743 300 674 294 703 z "},"T":{"ha":869,"x_min":0,"x_max":0,"o":"m 790 921 b 486 924 729 917 592 918 b 246 933 382 929 304 933 b 61 864 106 933 72 914 b 175 781 51 814 86 789 b 311 597 285 771 303 746 b 331 242 315 503 325 343 b 410 43 336 135 369 51 b 444 39 424 40 435 39 b 460 418 496 39 492 96 b 461 769 443 593 443 751 b 538 789 472 782 501 789 b 603 782 558 789 581 786 b 722 769 647 774 688 769 b 886 857 817 769 875 800 b 790 921 897 908 869 926 z "},"U":{"ha":838,"x_min":0,"x_max":0,"o":"m 610 819 b 415 208 613 469 544 208 b 306 261 382 208 346 225 b 244 490 242 319 224 388 b 189 669 265 599 251 644 b 117 683 164 679 138 683 b 75 672 97 683 82 681 b 215 160 21 618 110 293 b 407 33 281 75 342 33 b 636 172 475 33 549 79 b 765 888 761 303 785 624 b 692 938 764 914 728 938 b 610 819 651 938 608 908 z "},"V":{"ha":785,"x_min":0,"x_max":0,"o":"m 514 46 b 706 644 621 46 685 269 b 646 925 718 867 706 925 b 565 797 599 925 568 875 b 467 200 556 510 504 221 b 457 197 464 199 461 197 b 301 454 424 197 374 285 b 121 708 240 594 160 708 b 51 661 82 708 51 688 b 347 135 51 601 246 256 b 514 46 389 86 464 46 z "},"W":{"ha":1311,"x_min":0,"x_max":0,"o":"m 146 346 b 328 78 211 199 293 78 b 576 315 415 78 576 232 b 622 382 576 360 594 382 b 790 257 664 382 726 339 b 993 132 857 172 928 132 b 1242 536 1121 132 1228 282 b 1163 893 1257 857 1250 893 b 1086 590 1103 893 1086 826 b 1039 258 1086 424 1065 275 b 1017 253 1032 254 1025 253 b 778 519 950 253 831 381 b 678 631 750 594 715 631 b 507 431 628 631 569 564 b 365 254 453 313 406 254 b 251 476 321 254 283 328 b 139 689 226 594 175 689 b 146 346 24 689 25 619 z "},"X":{"ha":1100,"x_min":0,"x_max":0,"o":"m 808 336 b 975 257 883 282 938 257 b 1024 276 994 257 1011 264 b 893 440 1063 315 1025 363 b 707 586 790 501 707 567 b 944 744 707 660 833 744 b 1031 821 1026 744 1051 767 b 929 894 1011 871 975 894 b 694 742 861 894 772 842 l 574 588 l 339 718 b 108 811 226 781 151 811 b 68 793 89 811 76 806 b 311 593 21 717 82 667 b 503 494 417 560 503 515 b 350 311 503 474 435 392 b 197 122 265 231 197 146 b 238 76 197 92 213 76 b 494 267 293 76 399 150 l 647 451 z "},"Y":{"ha":694,"x_min":0,"x_max":0,"o":"m 240 122 b 167 -8 200 89 167 31 b 213 -75 167 -53 182 -75 b 304 -39 235 -75 265 -62 b 558 554 382 11 583 481 b 636 806 547 585 582 697 b 708 1028 690 914 722 1014 b 664 1046 696 1040 681 1046 b 490 839 599 1046 514 953 b 392 657 467 717 436 657 b 264 758 357 657 315 692 b 106 888 197 843 140 888 b 65 817 81 888 65 864 b 224 621 65 776 136 689 b 347 340 360 514 378 475 b 240 122 329 254 281 156 z "},"Z":{"ha":938,"x_min":0,"x_max":0,"o":"m 268 799 b 417 808 317 806 369 808 b 556 793 476 808 529 803 b 567 671 631 764 632 750 b 299 157 436 518 265 189 b 517 67 315 139 414 99 b 774 6 647 26 724 6 b 860 54 818 6 840 22 b 614 200 907 129 789 200 b 626 524 439 201 439 228 b 781 833 711 657 781 796 b 264 965 781 910 563 965 b 67 868 104 965 67 947 b 149 788 67 810 81 788 b 268 799 176 788 217 792 z "},"[":{"ha":1085,"x_min":0,"x_max":0,"o":"m 971 -47 b 701 42 957 24 900 42 l 450 42 l 365 414 b 249 817 318 618 265 799 b 451 985 192 874 326 985 b 572 1067 528 985 572 1015 b 499 1128 572 1110 557 1128 b 356 1111 467 1128 421 1122 b 101 847 76 1067 36 1024 b 218 389 131 769 183 563 b 376 -32 251 215 324 26 b 753 -144 446 -107 614 -144 b 971 -47 879 -144 983 -114 z "},"\\":{"ha":872,"x_min":0,"x_max":0,"o":"m 469 597 b 136 1356 304 938 154 1279 b 6 1497 117 1442 53 1497 b -47 1425 -25 1497 -47 1475 b 628 -21 -47 1308 496 146 b 735 -83 660 -61 704 -83 b 768 -53 754 -83 768 -74 b 469 597 768 -35 633 257 z "},"]":{"ha":613,"x_min":0,"x_max":0,"o":"m 464 193 b 374 808 433 281 392 557 l 346 1172 b 247 1264 342 1224 299 1264 l 92 1264 b -156 1185 -97 1264 -156 1246 b -42 1118 -156 1138 -125 1118 b 28 1121 -21 1118 1 1118 l 213 1136 l 232 771 b 303 269 243 569 275 344 b 172 40 367 101 332 40 b 47 -42 92 40 47 11 b 117 -104 47 -85 63 -104 b 239 -89 146 -104 185 -99 b 464 193 494 -42 529 3 z "},"^":{"ha":0,"x_min":0,"x_max":0,"o":"m 135 1304 l 54 1385 b -32 1421 31 1408 -1 1421 b -129 1372 -69 1421 -106 1404 l -179 1307 b -278 1072 -253 1211 -297 1104 b -246 1051 -269 1058 -258 1051 b -147 1129 -222 1051 -189 1078 b -24 1214 -101 1185 -67 1214 b 161 1121 21 1214 75 1183 b 258 1074 207 1088 239 1074 b 135 1304 307 1074 263 1176 z "},"_":{"ha":1300,"x_min":0,"x_max":0,"o":"m 631 160 b 43 4 94 160 -32 126 b 114 -29 56 -17 83 -29 b 153 -22 126 -29 140 -26 b 708 7 194 -6 443 7 b 1188 83 1100 7 1188 21 b 631 160 1188 147 1092 160 z "},"`":{"ha":417,"x_min":0,"x_max":0,"o":"m 294 886 b 250 1028 288 903 263 978 b 218 1050 247 1036 236 1050 b 167 1019 206 1050 188 1043 b 158 888 119 968 129 939 b 292 724 221 774 292 724 b 308 718 297 721 303 718 b 294 886 332 718 346 758 z "},"a":{"ha":1031,"x_min":0,"x_max":0,"o":"m 590 571 b 539 565 574 567 556 565 b 447 597 496 565 460 578 b 308 647 426 631 369 647 b 131 585 238 647 161 625 b 118 239 21 444 18 339 b 235 164 168 188 197 164 b 542 367 317 164 514 294 b 632 442 561 417 594 442 b 767 343 675 442 725 408 b 925 242 807 279 876 242 b 982 294 958 242 982 258 b 590 571 982 401 704 597 z m 401 381 b 263 294 344 324 300 294 b 189 347 235 294 210 313 b 333 490 144 421 221 490 b 374 488 346 490 360 489 b 401 381 486 471 488 465 z "},"b":{"ha":1189,"x_min":0,"x_max":0,"o":"m 1092 468 b 861 619 1017 569 946 619 b 597 510 788 619 704 582 b 385 381 492 439 397 381 b 301 590 374 381 336 475 b 117 844 256 743 178 844 b 75 826 101 844 88 839 b 201 475 61 811 118 654 b 383 11 286 297 368 88 b 469 -126 401 -78 440 -126 b 513 -31 494 -126 513 -96 b 689 65 513 46 543 65 b 1064 194 854 65 940 72 l 1072 203 b 1092 468 1143 275 1151 388 z m 892 226 b 654 178 806 193 721 178 b 513 254 569 178 513 204 b 896 472 513 339 763 472 b 942 465 914 472 929 471 b 892 226 1065 418 1038 282 z "},"c":{"ha":793,"x_min":0,"x_max":0,"o":"m 281 60 b 490 0 339 18 417 0 b 729 142 614 0 729 53 b 664 224 729 188 697 224 b 618 193 647 224 631 214 b 492 135 594 154 546 135 b 304 225 426 135 353 164 b 344 636 175 390 190 556 b 432 657 376 651 406 657 b 524 650 465 657 496 649 b 597 726 571 651 606 683 b 493 813 585 785 550 813 b 250 722 435 813 353 783 b 64 489 96 632 64 593 b 281 60 64 333 160 144 z "},"d":{"ha":878,"x_min":0,"x_max":0,"o":"m 772 185 b 668 553 739 225 692 390 b 475 1229 594 1046 549 1229 b 408 1190 456 1229 433 1215 b 439 949 376 1157 386 1074 b 379 617 553 678 542 617 b 69 433 211 615 146 576 b 79 235 26 351 29 303 b 226 167 113 189 160 167 b 481 233 292 167 375 189 b 525 244 497 240 511 244 b 619 138 564 244 590 213 b 718 6 646 65 692 6 b 772 185 804 6 836 110 z m 518 361 b 311 313 467 328 383 313 b 174 372 228 313 161 333 b 442 496 197 442 338 496 b 536 468 482 496 517 488 b 518 361 581 424 576 397 z "},"e":{"ha":696,"x_min":0,"x_max":0,"o":"m 350 260 b 490 208 400 224 449 208 b 567 540 635 208 710 383 b 368 629 513 600 444 629 b 153 554 300 629 225 604 b 150 140 10 454 8 292 b 418 21 219 67 339 21 b 499 74 465 21 499 38 b 403 124 499 101 456 124 b 207 308 301 124 158 260 b 225 314 211 313 217 314 b 350 260 253 314 301 293 z m 281 488 b 351 514 299 506 324 514 b 499 399 419 514 499 464 b 388 329 499 353 444 329 b 267 383 339 329 289 346 b 281 488 247 414 253 460 z "},"f":{"ha":932,"x_min":0,"x_max":0,"o":"m 647 1026 b 346 586 490 1026 368 849 b 186 364 331 417 308 386 b 190 221 -42 322 -39 201 b 275 225 224 224 251 225 b 400 111 368 225 386 199 b 496 -132 411 42 454 -68 b 649 -249 539 -196 607 -249 b 596 -14 747 -249 744 -233 b 550 257 454 194 438 257 b 608 253 567 257 586 256 b 658 250 626 251 643 250 b 749 313 721 250 749 269 b 596 389 749 364 697 389 b 460 513 463 389 446 406 b 524 758 469 581 499 692 b 642 865 551 832 597 865 b 765 704 699 865 753 808 b 842 582 775 622 807 569 b 647 1026 1026 643 858 1026 z "},"g":{"ha":1156,"x_min":0,"x_max":0,"o":"m 1014 225 b 793 690 971 492 871 690 b 747 664 776 690 761 682 b 690 619 725 635 708 619 b 635 660 674 619 657 633 b 468 733 589 711 531 733 b 113 383 307 733 126 585 b 468 19 97 160 253 19 b 713 74 543 19 626 36 b 839 111 768 99 810 111 b 900 -35 893 111 907 67 b 621 -247 890 -183 790 -258 b 472 -314 528 -240 476 -264 b 607 -397 469 -369 526 -397 b 886 -312 689 -397 794 -369 b 1014 225 1058 -207 1072 -146 z m 853 231 b 517 151 833 189 665 151 b 289 218 414 151 319 169 b 253 393 257 269 249 315 b 474 625 261 510 393 625 b 532 578 503 625 524 611 b 649 529 539 549 576 529 b 700 532 664 529 681 531 b 853 231 785 542 896 322 z "},"h":{"ha":1171,"x_min":0,"x_max":0,"o":"m 892 367 b 697 476 824 440 757 476 b 506 329 626 476 561 426 b 383 193 456 240 417 193 b 215 651 325 193 282 332 b 136 772 199 735 165 772 b 76 604 99 772 67 713 b 372 -28 94 401 296 -28 b 540 151 406 -28 482 53 b 719 329 597 249 679 329 b 954 -4 817 329 954 133 b 1057 -179 954 -71 968 -179 b 1122 -149 1079 -179 1101 -169 b 892 367 1168 -103 1019 232 z "},"i":{"ha":481,"x_min":0,"x_max":0,"o":"m 383 115 b 351 422 365 204 351 342 b 275 568 351 518 325 568 b 251 56 183 568 167 213 b 350 -44 288 -12 324 -44 b 383 115 386 -44 404 13 z m 311 839 b 168 964 311 901 229 964 b 124 947 150 964 135 958 b 124 839 107 931 108 882 b 232 763 144 789 190 763 b 311 839 275 763 311 789 z "},"j":{"ha":425,"x_min":0,"x_max":0,"o":"m 301 531 b 238 583 279 567 257 583 b 181 336 190 583 161 483 b 49 -25 204 160 188 114 b -111 -231 -39 -112 -111 -206 b -68 -285 -111 -268 -94 -285 b 290 63 14 -285 194 -124 b 301 531 358 194 364 432 z m 143 804 b 174 974 258 804 282 932 b 121 985 154 981 136 985 b 42 872 71 985 42 946 b 143 804 42 835 88 804 z "},"k":{"ha":1154,"x_min":0,"x_max":0,"o":"m 976 253 b 446 463 824 253 446 403 b 678 617 446 483 550 553 b 914 875 943 749 989 800 b 876 886 906 882 893 886 b 411 622 771 886 513 746 b 333 574 385 589 357 574 b 242 763 281 574 242 644 b 140 958 242 881 196 958 b 83 931 122 958 103 950 b 113 696 54 900 65 811 b 190 353 156 594 190 440 b 243 96 190 267 214 150 b 346 -3 272 42 318 -3 b 339 231 413 -3 408 188 b 333 314 303 251 301 282 b 371 326 342 322 354 326 b 596 229 417 326 494 293 b 944 111 718 151 847 111 b 1096 189 1022 111 1079 136 b 976 253 1108 229 1065 253 z "},"l":{"ha":525,"x_min":0,"x_max":0,"o":"m 393 186 b 254 731 336 336 275 581 b 144 1029 232 892 188 1013 b 75 1044 119 1039 93 1044 b 53 1039 64 1044 57 1043 b 299 4 21 1006 210 214 b 410 -156 344 -106 379 -156 b 439 -140 419 -156 429 -150 b 393 186 478 -101 465 -8 z "},"m":{"ha":1383,"x_min":0,"x_max":0,"o":"m 1258 379 b 926 813 1199 594 1033 813 b 638 490 863 813 678 607 b 607 465 632 474 621 465 b 513 521 586 465 556 483 b 396 586 463 565 435 586 b 213 522 357 586 307 565 b 131 486 183 510 156 497 b 53 285 54 450 21 361 b 217 28 104 167 154 8 b 219 281 268 44 218 243 b 354 447 221 389 285 447 b 499 328 410 447 468 408 b 636 203 529 247 589 203 b 703 290 674 203 703 231 b 969 640 703 375 872 640 b 1097 332 1035 640 1074 539 b 1218 99 1118 147 1143 99 b 1258 379 1329 99 1332 110 z "},"n":{"ha":964,"x_min":0,"x_max":0,"o":"m 783 497 b 444 626 700 581 560 626 b 264 544 358 626 286 600 b 185 490 250 508 222 490 b 133 499 169 490 153 493 b 78 511 110 506 92 511 b 68 360 40 511 43 474 b 156 125 89 265 128 161 b 238 64 189 85 217 64 b 297 260 276 64 297 131 b 374 488 297 390 324 468 b 443 500 394 496 418 500 b 757 289 563 500 713 407 b 844 185 779 226 817 185 b 857 189 849 185 853 186 b 783 497 944 243 914 367 z "},"o":{"ha":656,"x_min":0,"x_max":0,"o":"m 486 615 b 356 706 421 678 385 706 b 294 663 333 706 317 690 b 132 528 261 619 188 560 b 115 169 25 465 17 289 b 251 104 151 126 199 104 b 493 226 326 104 413 146 b 486 615 651 385 650 461 z m 404 315 b 276 257 364 276 318 257 b 182 308 238 257 203 274 b 401 507 146 368 297 506 b 404 315 482 510 483 396 z "},"p":{"ha":757,"x_min":0,"x_max":0,"o":"m 707 543 b 510 717 693 685 672 703 b 453 719 489 718 469 719 b 192 596 347 719 283 686 b 54 92 68 472 54 422 b 89 -310 54 -110 69 -290 b 147 -344 113 -333 132 -344 b 201 -25 194 -344 211 -242 b 260 274 188 236 199 290 b 489 232 365 246 436 232 b 635 296 553 232 592 253 b 707 543 690 350 717 443 z m 383 371 b 382 567 167 371 165 461 b 510 601 431 590 474 601 b 599 450 592 601 635 544 b 383 371 578 399 503 371 z "},"q":{"ha":622,"x_min":0,"x_max":0,"o":"m 424 624 b 272 664 369 650 318 664 b 99 567 197 664 136 631 b 90 350 72 521 68 424 b 368 133 124 238 176 197 b 346 -144 379 131 369 6 b 336 -440 322 -294 318 -428 b 375 -453 349 -449 361 -453 b 500 -212 440 -453 503 -344 b 515 264 499 -118 506 96 b 424 624 532 550 525 572 z m 238 397 b 290 510 210 483 222 510 b 407 408 350 510 397 467 b 343 297 419 335 385 297 b 238 397 304 297 258 331 z "},"r":{"ha":811,"x_min":0,"x_max":0,"o":"m 806 653 b 644 731 788 704 726 731 b 400 668 572 731 485 710 b 188 611 331 633 246 611 b 146 617 171 611 157 613 b 97 626 126 622 111 626 b 168 276 28 626 50 531 b 351 28 246 111 313 28 b 381 263 390 28 404 106 b 656 588 340 532 386 586 b 806 653 769 589 819 610 z "},"s":{"ha":663,"x_min":0,"x_max":0,"o":"m 447 407 b 314 636 294 533 267 581 b 468 707 346 675 415 707 b 563 783 519 707 563 742 b 471 857 563 832 526 857 b 268 781 415 857 342 831 b 283 401 115 674 122 488 b 322 256 436 319 443 256 b 233 264 299 256 268 258 b 138 272 197 269 165 272 b 90 151 13 272 -22 218 b 300 100 150 117 225 100 b 540 172 390 100 478 124 b 447 407 636 246 633 254 z "},"t":{"ha":1231,"x_min":0,"x_max":0,"o":"m 1078 213 b 838 149 976 171 903 149 b 604 267 754 149 688 186 b 572 486 461 403 453 486 b 661 475 597 486 626 482 b 735 468 686 471 711 468 b 838 499 785 468 826 479 b 703 607 883 571 838 607 b 629 604 681 607 656 606 b 551 600 599 603 572 600 b 453 776 457 600 453 631 b 403 942 453 888 436 942 b 325 769 342 942 325 811 b 185 606 325 646 303 619 b 46 513 101 596 46 558 b 106 456 46 472 61 456 b 196 468 128 456 157 460 b 282 481 232 476 258 481 b 417 332 346 481 371 443 b 824 14 499 139 607 14 b 1128 71 931 14 1068 38 b 1167 171 1149 83 1167 128 b 1129 226 1167 208 1156 226 b 1078 213 1115 226 1099 221 z "},"u":{"ha":925,"x_min":0,"x_max":0,"o":"m 844 368 b 822 622 833 486 824 601 b 743 661 821 643 786 661 b 667 536 696 661 667 613 b 319 215 667 407 447 215 b 283 221 307 215 294 217 b 260 436 197 254 185 363 b 235 586 294 471 286 521 b 160 656 199 633 178 656 b 108 610 143 656 129 639 b 157 151 25 485 49 260 b 300 57 219 89 254 57 b 513 157 346 57 403 90 b 676 226 588 201 643 226 b 707 207 693 226 703 219 b 794 151 718 176 757 151 b 844 368 843 151 857 211 z "},"v":{"ha":736,"x_min":0,"x_max":0,"o":"m 606 657 b 546 538 554 657 535 618 b 394 122 565 401 464 122 b 175 551 351 122 243 333 b 128 617 161 596 147 617 b 88 593 117 617 103 608 b 231 124 10 515 72 313 b 418 -17 304 36 388 -26 b 606 657 618 50 788 657 z "},"w":{"ha":1132,"x_min":0,"x_max":0,"o":"m 872 644 b 888 411 781 644 786 567 b 806 190 976 278 940 190 b 600 339 701 190 626 228 b 489 465 581 422 529 465 b 436 360 454 465 426 432 b 289 146 450 260 360 146 b 185 308 226 146 193 261 b 81 431 171 382 118 431 b 39 371 57 431 39 413 b 99 163 39 328 67 235 b 272 36 136 79 197 36 b 447 96 325 36 383 56 b 539 132 486 121 514 132 b 610 96 564 132 585 121 b 810 33 650 56 726 33 b 978 64 865 33 925 43 b 872 644 1129 122 1033 644 z "},"x":{"ha":1271,"x_min":0,"x_max":0,"o":"m 1100 328 b 956 290 1069 303 1019 290 b 844 301 922 290 885 293 b 719 514 660 336 615 410 b 664 732 785 579 744 732 b 611 604 635 732 611 675 b 553 483 611 524 590 483 b 357 656 507 483 439 542 b 176 829 274 769 217 829 b 101 435 119 829 101 704 b 136 1 101 215 117 19 b 210 -32 158 -21 182 -32 b 429 125 268 -32 340 21 l 563 283 l 744 197 b 985 140 826 158 911 140 b 1206 251 1092 140 1178 178 b 1178 364 1233 322 1217 364 b 1100 328 1157 364 1131 353 z m 238 154 b 247 579 188 204 196 579 b 458 340 304 579 458 406 b 256 147 458 275 317 147 b 238 154 249 147 242 150 z "},"y":{"ha":686,"x_min":0,"x_max":0,"o":"m 521 507 b 432 393 481 507 442 456 b 314 278 421 317 381 278 b 196 393 247 278 207 317 b 96 506 185 465 136 506 b 33 422 63 506 33 479 b 315 150 33 297 186 150 b 454 -92 429 150 496 33 b 310 -156 443 -126 378 -156 b 186 -232 235 -156 186 -185 b 307 -307 186 -281 238 -307 b 496 -256 363 -307 432 -290 b 594 153 579 -211 594 -146 b 521 507 594 426 578 507 z "},"z":{"ha":918,"x_min":0,"x_max":0,"o":"m 671 143 b 614 138 650 139 631 138 b 576 311 506 138 482 217 b 421 585 656 390 585 517 b 256 619 364 608 307 619 b 43 501 154 619 72 578 b 85 440 26 458 33 440 b 213 456 113 440 154 446 b 314 465 250 463 283 465 b 404 304 465 465 522 390 b 460 53 283 215 300 140 b 686 -22 551 3 626 -22 b 822 42 743 -22 788 0 b 774 154 883 115 863 154 b 671 143 746 154 711 151 z "},"{":{"ha":926,"x_min":0,"x_max":0,"o":"m 624 -103 b 339 -22 506 -103 386 -68 b 361 396 226 92 238 318 b 310 832 507 488 486 665 b 157 1075 226 911 157 1021 b 389 1258 157 1174 283 1258 b 482 1228 424 1258 457 1249 b 551 1196 510 1206 533 1196 b 536 1346 603 1196 610 1272 b 433 1421 485 1397 468 1421 b 274 1374 404 1421 361 1404 b 228 718 -32 1267 -53 979 b 303 526 329 624 347 579 b 176 458 272 489 215 458 b 107 233 128 458 107 390 b 267 -126 107 44 132 -12 b 607 -244 386 -226 471 -257 b 624 -103 868 -222 882 -103 z "},"|":{"ha":539,"x_min":0,"x_max":0,"o":"m 382 121 b 313 847 360 199 329 525 b 207 1433 289 1314 267 1433 b 146 975 146 1433 135 1350 b 239 69 160 532 188 258 b 342 -19 253 21 299 -19 b 382 121 403 -19 413 11 z "},"}":{"ha":797,"x_min":0,"x_max":0,"o":"m 597 217 b 550 447 554 294 532 397 b 486 539 574 515 557 539 b 268 707 378 539 268 624 b 422 904 268 739 338 826 b 372 1392 639 1103 626 1232 b 211 1465 293 1440 249 1465 b 93 1396 174 1465 143 1442 b 88 1260 15 1325 25 1260 b 158 1279 107 1260 131 1265 b 240 1299 185 1292 213 1299 b 422 1150 333 1299 422 1235 b 268 935 422 1106 353 1008 b 232 525 86 774 76 663 b 506 -44 383 392 546 53 b 443 -96 492 -76 467 -96 b 422 -90 436 -96 429 -94 b 365 -74 401 -79 382 -74 b 324 -187 306 -74 272 -132 b 435 -250 361 -229 396 -250 b 583 -176 478 -250 524 -225 b 597 217 697 -82 701 33 z "},"~":{"ha":1064,"x_min":0,"x_max":0,"o":"m 888 504 b 811 406 846 504 811 460 b 743 281 811 322 789 281 b 540 401 699 281 631 321 b 318 544 429 499 372 544 b 153 450 272 544 228 511 b 93 286 57 369 43 333 b 146 254 114 265 131 254 b 206 313 165 254 183 274 b 306 396 236 368 265 396 b 514 275 354 396 417 357 b 771 151 613 192 697 151 b 903 208 821 151 864 169 b 888 504 990 296 979 504 z "}," ":{"ha":513,"x_min":0,"x_max":0,"o":""},"¡":{"ha":406,"x_min":0,"x_max":0,"o":"m 254 453 b 215 492 250 481 235 492 b 126 401 185 492 143 457 b 129 -412 68 201 69 -393 b 215 -340 161 -422 200 -390 b 254 453 239 -258 268 356 z m 247 1001 b 146 925 192 1001 146 967 b 247 847 146 882 192 847 b 350 925 304 847 350 882 b 247 1001 350 967 304 1001 z "},"¦":{"ha":517,"x_min":0,"x_max":0,"o":"m 278 1001 b 90 1499 276 1221 172 1499 b 44 1383 32 1499 19 1468 b 108 1078 64 1321 92 1183 b 224 885 126 956 182 885 b 278 1001 254 885 278 921 z m 385 125 b 340 365 372 165 353 274 b 268 561 328 457 294 544 b 222 578 250 572 235 578 b 183 260 157 578 140 457 b 321 33 224 72 256 19 b 385 125 367 43 396 85 z "},"§":{"ha":1143,"x_min":0,"x_max":0,"o":"m 711 1486 b 640 1188 635 1428 621 1369 b 572 935 663 996 651 956 b 419 390 407 892 347 676 b 329 43 486 129 475 43 b 215 54 299 43 260 47 b 94 67 163 63 124 67 b 17 14 36 67 17 50 b 244 -115 17 -97 161 -115 b 532 -12 356 -115 467 -78 b 553 419 636 92 639 147 b 600 511 532 488 533 511 b 704 503 625 511 658 508 b 779 499 731 500 756 499 b 988 571 867 499 932 521 b 963 889 1119 690 1114 771 b 776 1122 893 943 810 1049 b 807 1358 724 1236 729 1272 b 974 1458 867 1424 929 1458 b 1036 1385 1011 1458 1036 1435 b 1082 1311 1036 1336 1053 1311 b 1178 1368 1106 1311 1140 1331 b 960 1558 1285 1475 1132 1558 b 711 1486 872 1558 778 1538 z m 807 829 b 871 642 936 796 988 649 b 667 619 836 640 744 631 b 617 617 649 617 632 617 b 526 668 558 617 526 633 b 744 836 526 764 629 836 b 807 829 765 836 786 835 z "},"©":{"ha":1588,"x_min":0,"x_max":0,"o":"m 1246 878 b 919 1017 1203 878 1056 940 b 646 1129 781 1094 717 1129 b 454 1081 596 1129 542 1111 b 174 878 321 1035 213 956 b 151 275 100 733 88 376 b 521 88 175 239 342 154 b 947 -28 724 11 847 -28 b 1272 114 1057 -28 1140 19 b 1483 460 1456 247 1483 293 b 1246 878 1483 672 1367 878 z m 1182 201 b 899 124 1094 150 1003 124 b 540 199 796 124 679 149 b 251 554 269 296 238 336 b 558 963 269 829 364 963 b 999 831 671 963 815 918 b 1331 482 1321 679 1331 669 b 1182 201 1331 322 1304 274 z m 894 726 b 722 760 835 749 776 760 b 458 614 607 760 510 708 b 540 382 407 517 418 486 b 782 279 618 314 710 279 b 910 356 844 279 893 304 b 776 419 924 397 878 419 b 619 600 597 419 532 494 b 776 672 658 649 721 672 b 886 611 826 672 871 653 b 919 572 896 586 906 572 b 975 608 933 572 950 585 b 894 726 1028 658 1013 682 z "},"ª":{"ha":853,"x_min":0,"x_max":0,"o":"m 478 735 b 565 764 513 754 540 764 b 661 713 599 764 626 747 b 760 654 701 672 736 654 b 749 796 801 654 808 711 b 671 1008 707 856 672 953 b 564 1222 669 1140 624 1222 b 504 1197 544 1222 525 1214 b 394 1160 475 1174 432 1160 b 351 1167 378 1160 364 1163 b 324 1172 343 1169 333 1172 b 185 1063 279 1172 231 1133 b 154 804 114 956 108 906 b 311 682 192 722 242 682 b 478 735 358 682 413 700 z m 303 993 b 408 1029 328 1018 368 1029 b 535 965 467 1029 526 1006 b 431 844 540 940 493 886 b 332 796 382 813 353 796 b 283 856 311 796 299 815 b 303 993 265 903 275 964 z "},"«":{"ha":663,"x_min":0,"x_max":0,"o":"m 513 481 b 458 553 482 492 458 524 b 513 624 458 581 482 613 b 533 754 569 646 588 754 b 403 639 515 754 457 703 l 344 569 b 351 485 324 544 326 507 l 403 442 b 532 360 454 397 514 360 b 513 481 588 360 571 458 z m 296 381 b 243 593 206 440 176 553 b 231 718 296 625 286 718 b 85 390 178 718 53 440 b 169 360 94 374 133 360 b 256 306 206 360 244 335 b 342 251 268 271 308 251 b 386 288 367 251 386 263 b 296 381 386 306 346 349 z "},"­":{"ha":0,"x_min":0,"x_max":0,"o":""},"®":{"ha":1460,"x_min":0,"x_max":0,"o":"m 917 688 b 849 660 883 669 861 660 b 846 722 832 660 833 679 b 886 867 858 768 876 833 b 710 1003 907 943 818 1003 b 636 993 686 1003 661 1000 b 461 615 475 953 397 785 b 533 408 486 546 519 453 b 632 329 547 365 592 329 b 676 417 683 329 696 356 b 821 535 653 492 676 510 b 1107 668 1076 576 1107 592 b 1053 736 1107 713 1089 736 b 917 688 1021 736 976 719 z m 726 718 b 610 607 678 644 638 607 b 563 733 579 607 563 650 b 697 907 563 825 597 907 b 726 718 776 907 796 824 z m 1368 754 b 844 1238 1339 1069 1156 1238 b 171 383 326 1238 -35 779 b 517 42 242 249 410 82 b 606 28 542 32 572 28 b 1249 364 792 28 1081 172 b 1368 754 1376 510 1389 547 z m 1099 379 b 792 192 1018 301 881 217 b 618 153 699 167 656 153 b 485 193 581 153 550 167 b 244 661 357 244 244 464 b 810 1117 244 917 511 1117 b 957 1100 858 1117 908 1111 b 1244 713 1172 1051 1244 954 b 1099 379 1244 558 1217 494 z "},"°":{"ha":756,"x_min":0,"x_max":0,"o":"m 636 1199 b 504 1256 578 1238 543 1256 b 351 1199 467 1256 425 1238 b 178 758 140 1090 61 888 b 324 669 231 700 272 669 b 558 779 379 669 449 706 b 636 1199 776 926 807 1088 z m 529 919 b 358 817 468 851 408 817 b 282 850 329 817 304 828 b 378 1051 219 911 246 965 b 518 1103 432 1088 481 1103 b 529 919 600 1103 624 1024 z "},"±":{"ha":990,"x_min":0,"x_max":0,"o":"m 560 215 b 126 15 264 193 71 104 b 222 -29 144 -14 183 -29 b 326 21 264 -29 307 -12 b 610 71 344 49 471 71 b 861 154 808 71 861 89 b 728 224 861 204 836 224 b 560 215 685 224 631 221 z m 682 825 b 622 821 658 822 639 821 b 518 924 550 821 528 847 b 454 1038 508 986 481 1038 b 388 872 410 1038 403 1022 b 264 792 385 838 328 801 b 117 700 199 782 133 742 b 146 590 90 632 107 590 b 225 628 167 590 194 601 b 311 665 256 653 286 665 b 407 508 368 665 407 608 b 482 338 407 463 413 338 b 532 540 529 338 557 425 b 557 679 508 644 501 679 b 678 661 583 679 621 672 b 796 649 719 653 761 649 b 883 669 842 649 875 656 b 682 825 936 754 826 840 z "},"´":{"ha":390,"x_min":0,"x_max":0,"o":"m 246 1054 b 218 1065 238 1061 228 1065 b 176 1036 200 1065 183 1054 b 82 781 147 958 88 801 b 107 754 78 767 88 754 b 232 854 133 754 178 778 b 246 1054 307 960 283 1022 z "},"¶":{"ha":1164,"x_min":0,"x_max":0,"o":"m 996 292 b 864 661 954 356 896 522 b 925 1001 811 897 815 918 b 939 1135 1036 1086 1035 1135 b 751 1103 896 1135 832 1124 b 435 1047 633 1072 494 1047 l 431 1047 b 171 968 267 1050 204 1015 b 128 771 131 915 114 874 b 267 665 143 671 182 665 b 368 635 303 665 339 663 b 457 169 482 526 457 317 b 533 -25 457 31 478 -25 b 535 533 628 -25 628 101 b 613 943 457 896 467 943 b 711 761 692 943 711 907 b 969 76 711 571 897 76 b 996 292 1056 76 1069 181 z "},"»":{"ha":672,"x_min":0,"x_max":0,"o":"m 294 703 b 361 583 250 658 274 618 b 413 399 460 546 471 508 b 393 276 392 360 382 304 b 431 225 404 247 421 225 b 594 569 446 225 594 538 b 294 703 594 599 314 722 z m 247 575 b 125 618 186 603 147 618 b 92 568 100 618 92 601 b 163 494 92 540 124 507 b 199 350 239 471 260 388 b 163 276 179 339 163 306 b 229 225 163 244 196 225 b 283 253 250 225 272 233 b 324 404 293 267 311 336 b 247 575 343 517 336 535 z "},"¼":{"ha":1558,"x_min":0,"x_max":0,"o":"m 826 1158 b 246 79 761 1158 211 136 b 296 43 261 56 278 43 b 476 308 346 43 407 132 b 747 813 529 442 650 668 b 826 1158 911 1056 935 1158 z m 343 840 b 256 1069 322 889 283 992 b 133 1210 228 1146 172 1210 b 139 935 43 1210 43 1164 b 297 750 182 832 253 750 b 343 840 354 750 368 776 z m 1356 197 b 1247 521 1310 247 1261 393 b 1163 733 1232 661 1196 733 b 1092 543 1132 733 1103 671 b 1004 265 1074 339 1057 265 b 932 290 986 265 963 274 b 817 453 878 319 826 393 b 728 585 804 539 763 585 b 674 485 699 585 674 553 b 993 147 674 301 846 147 b 1119 197 1040 147 1083 163 b 1160 219 1135 213 1147 219 b 1240 121 1186 219 1208 189 b 1369 -14 1274 47 1332 -14 b 1356 197 1463 -14 1456 86 z "},"½":{"ha":1753,"x_min":0,"x_max":0,"o":"m 174 1125 b 213 765 81 1125 94 997 b 390 561 276 640 356 561 b 397 653 413 561 418 589 b 174 1125 276 1025 229 1125 z m 1549 232 b 1333 167 1444 190 1375 167 b 1339 382 1261 167 1272 232 b 1333 588 1385 481 1383 528 b 1147 664 1292 638 1218 664 b 982 597 1082 664 1018 642 b 1025 482 922 525 944 482 b 1118 496 1050 482 1082 488 b 1197 510 1154 506 1181 510 b 1207 432 1232 510 1231 488 b 1181 78 1124 228 1118 153 b 1311 21 1213 40 1253 21 b 1404 33 1338 21 1368 25 b 1638 190 1610 76 1638 96 b 1600 246 1638 228 1626 246 b 1549 232 1586 246 1569 240 z m 963 1174 b 499 246 893 1172 461 307 b 543 211 513 224 526 211 b 817 646 593 211 665 332 b 963 1174 1043 1119 1060 1176 z "},"¾":{"ha":1721,"x_min":0,"x_max":0,"o":"m 1004 876 b 583 382 886 724 697 501 b 378 114 471 263 378 142 b 426 65 378 88 400 65 b 1346 1136 490 65 1346 1061 b 1318 1182 1346 1167 1336 1182 b 1004 876 1269 1182 1158 1075 z m 1576 129 b 1514 436 1556 192 1528 331 b 1435 607 1499 550 1467 607 b 1346 418 1400 607 1364 543 b 1213 224 1328 292 1272 224 b 1083 342 1167 224 1119 263 b 974 469 1044 426 1008 469 b 914 422 953 469 933 454 b 1224 104 836 296 1053 104 b 1308 124 1254 104 1283 110 b 1372 144 1333 138 1354 144 b 1429 93 1399 144 1415 128 b 1536 14 1446 49 1493 14 b 1576 129 1593 14 1603 44 z m 564 544 b 563 700 613 586 611 661 l 531 724 b 501 896 407 821 407 826 b 569 1044 557 936 586 1000 b 315 1156 540 1118 424 1156 b 124 1054 215 1156 124 1122 b 178 1000 124 1018 140 1000 b 244 1011 196 1000 218 1004 b 306 1018 265 1017 286 1018 b 403 983 350 1018 389 1006 b 332 896 425 947 396 913 b 353 718 189 858 197 789 b 304 575 532 636 511 575 b 107 454 133 575 43 519 b 229 419 131 431 175 419 b 538 522 331 419 463 458 z "},"¿":{"ha":608,"x_min":0,"x_max":0,"o":"m 492 -187 b 336 -264 471 -240 407 -264 b 117 -131 232 -264 117 -212 b 326 169 117 -90 211 44 b 507 474 456 310 525 426 b 421 550 488 524 451 550 b 372 485 394 550 372 528 b 222 275 372 447 304 353 b 13 -17 140 196 46 65 b 36 -260 -40 -142 -36 -179 b 364 -385 114 -346 242 -385 b 678 -186 526 -385 678 -314 b 600 -112 678 -137 642 -112 b 492 -187 558 -112 511 -137 z m 400 875 b 463 861 424 865 444 861 b 507 982 517 861 536 906 b 432 1036 494 1015 465 1036 b 399 1029 421 1036 410 1033 b 400 875 299 990 299 914 z "},"À":{"ha":1036,"x_min":0,"x_max":0,"o":"m 511 921 b 331 758 468 921 388 847 b 3 119 157 481 6 186 b 42 49 0 69 17 49 b 207 246 89 49 168 129 b 519 514 279 468 331 513 b 815 197 665 514 815 354 b 892 107 815 147 850 107 b 968 185 933 107 968 142 b 511 921 968 319 594 922 z m 514 615 b 407 696 451 615 407 649 b 481 760 407 739 440 760 b 599 679 526 760 582 732 b 514 615 611 642 575 615 z m 386 1108 b 501 1060 429 1079 476 1060 b 514 1063 507 1060 511 1061 b 349 1290 561 1090 417 1290 b 386 1108 257 1290 279 1179 z "},"Á":{"ha":1036,"x_min":0,"x_max":0,"o":"m 511 921 b 331 758 468 921 388 847 b 3 119 157 481 6 186 b 42 49 0 69 17 49 b 207 246 89 49 168 129 b 519 513 279 468 331 513 b 815 197 665 514 815 354 b 892 107 815 147 850 107 b 968 185 933 107 968 142 b 511 921 968 319 594 922 z m 514 615 b 407 696 451 615 407 649 b 481 760 407 739 440 760 b 599 679 526 760 582 732 b 514 615 611 642 575 615 z m 700 1240 b 651 1297 700 1279 681 1297 b 519 1204 614 1297 560 1265 b 474 1076 483 1151 463 1093 b 493 1067 478 1069 485 1067 b 700 1240 553 1067 700 1182 z "},"Â":{"ha":1038,"x_min":0,"x_max":0,"o":"m 511 921 b 331 758 468 921 388 847 b 3 119 157 481 6 186 b 42 49 0 69 17 49 b 207 246 89 49 168 129 b 519 513 279 468 331 513 b 815 197 665 514 815 354 b 892 106 815 147 850 106 b 968 185 933 106 968 142 b 511 921 968 319 594 922 z m 514 615 b 407 696 451 615 407 649 b 481 760 407 739 442 760 b 599 679 528 760 582 732 b 514 615 611 642 576 615 z m 364 1074 b 465 1175 401 1138 432 1175 b 557 1090 494 1175 522 1149 b 633 1031 582 1047 610 1031 b 685 1063 654 1031 672 1043 b 453 1292 718 1117 544 1290 b 257 1093 419 1292 296 1171 b 304 1024 251 1067 274 1024 b 364 1074 322 1024 343 1038 z "},"Ã":{"ha":1038,"x_min":0,"x_max":0,"o":"m 511 922 b 331 760 468 922 388 849 b 3 119 157 482 6 186 b 40 49 0 71 17 49 b 207 247 89 49 168 131 b 519 514 279 469 331 513 b 815 197 665 515 815 356 b 892 107 815 149 850 107 b 968 186 933 107 968 143 b 511 922 968 319 594 922 z m 514 617 b 407 697 451 617 407 650 b 481 760 407 740 440 760 b 599 681 526 760 582 732 b 514 617 611 643 576 617 z m 356 1135 b 440 1167 394 1156 419 1167 b 515 1122 465 1167 485 1153 b 624 1061 556 1081 590 1061 b 746 1139 661 1061 708 1085 b 749 1346 824 1249 824 1346 b 679 1290 715 1346 679 1332 b 613 1188 679 1224 653 1188 b 525 1231 588 1188 557 1201 b 393 1276 490 1261 442 1276 b 232 1189 322 1276 253 1244 b 260 1103 210 1133 221 1103 b 354 1135 282 1103 314 1114 z "},"Ä":{"ha":1038,"x_min":0,"x_max":0,"o":"m 511 921 b 331 758 468 921 388 847 b 3 119 157 481 6 186 b 42 49 0 69 17 49 b 207 246 89 49 168 129 b 519 513 279 468 331 513 b 815 197 665 514 815 354 b 892 106 815 147 850 106 b 968 185 933 106 968 142 b 511 921 968 318 594 921 z m 514 615 b 407 696 451 615 407 649 b 481 760 407 739 442 760 b 599 679 528 760 582 732 b 514 615 611 642 575 615 z m 779 1231 b 719 1315 789 1279 764 1315 b 613 1160 624 1315 567 1232 b 675 1122 628 1133 651 1122 b 779 1231 719 1122 767 1164 z m 422 1179 b 333 1264 433 1236 406 1264 b 263 1093 232 1264 190 1165 b 317 1071 279 1078 297 1071 b 422 1179 363 1071 410 1113 z "},"Å":{"ha":1035,"x_min":0,"x_max":0,"o":"m 543 904 l 544 904 b 656 1150 618 922 719 1032 b 497 1229 625 1206 560 1229 b 353 1174 439 1229 382 1208 b 449 917 296 1104 350 956 b 474 908 456 914 464 911 b 329 758 429 885 372 826 b 1 118 156 481 4 185 b 39 47 -1 69 15 47 b 206 246 88 47 167 129 b 518 513 278 468 329 513 b 814 197 664 514 814 354 b 890 106 814 147 849 106 b 967 185 932 106 967 142 b 543 904 967 306 664 806 z m 513 615 b 406 696 450 615 406 649 b 479 758 406 739 439 758 b 597 679 525 758 581 731 b 513 615 610 642 574 615 z m 447 1069 b 525 1126 460 1107 494 1126 b 572 1083 550 1126 571 1113 b 501 1025 574 1060 542 1033 b 478 1022 493 1024 485 1022 b 447 1069 450 1022 439 1039 z "},"Æ":{"ha":1403,"x_min":0,"x_max":0,"o":"m 1322 340 b 1257 368 1304 358 1282 368 b 1174 342 1233 368 1206 360 b 761 211 1047 272 843 211 b 726 219 743 211 732 214 b 696 394 710 236 696 315 b 750 521 696 489 703 521 b 824 508 768 521 792 517 b 897 496 854 500 879 496 b 951 558 938 496 951 515 b 822 640 951 613 907 640 b 665 831 699 640 597 763 b 914 876 683 849 796 869 b 1168 892 1032 883 1147 890 b 1206 978 1189 893 1206 932 b 1114 1044 1206 1025 1186 1044 b 544 904 1003 1044 629 989 b 511 921 531 915 519 921 b 331 758 468 921 388 847 b 3 119 157 481 6 186 b 42 49 0 69 17 49 b 207 246 89 49 168 129 b 519 513 279 468 331 513 l 529 513 b 625 140 547 357 588 199 b 746 49 667 78 704 49 b 789 58 760 49 774 51 b 1064 118 836 79 960 106 b 1322 340 1276 143 1407 256 z m 514 615 b 407 696 451 615 407 649 b 481 760 407 739 442 760 b 511 756 490 760 501 758 b 519 617 513 718 515 672 b 514 615 518 617 515 615 z "},"Ç":{"ha":872,"x_min":0,"x_max":0,"o":"m 581 199 b 194 483 324 199 194 293 b 436 697 194 607 313 697 b 560 663 478 697 521 688 b 663 624 603 636 638 624 b 672 749 711 624 721 671 b 475 849 631 815 561 849 b 250 786 408 849 332 828 b 299 110 -32 640 -4 264 b 428 65 336 90 381 76 b 371 -28 388 25 360 -12 b 464 -76 379 -40 422 -43 b 394 -140 489 -97 456 -124 b 404 -218 314 -161 329 -218 b 588 -125 479 -218 588 -178 b 539 -26 588 -97 571 -47 b 471 -4 518 -11 496 -1 b 521 50 482 11 500 29 b 606 46 550 47 578 46 b 806 122 717 46 806 71 b 581 199 806 178 747 199 z "},"È":{"ha":988,"x_min":0,"x_max":0,"o":"m 901 279 b 838 307 883 299 863 307 b 753 281 813 307 785 299 b 339 150 626 213 422 150 b 306 158 322 150 311 153 b 276 333 289 175 276 254 b 329 460 276 428 283 460 b 403 447 347 460 371 456 b 476 436 433 440 457 436 b 531 497 517 436 531 454 b 401 579 531 551 486 579 b 246 769 278 579 178 701 b 493 815 263 788 375 808 b 747 832 613 822 726 829 b 786 917 768 833 786 871 b 694 983 786 964 767 983 b 215 893 565 983 328 939 b 101 519 82 840 78 828 b 204 81 115 344 161 146 b 326 -12 246 17 285 -12 b 369 -3 340 -12 354 -10 b 643 57 415 18 539 46 b 901 281 856 83 986 194 z m 333 1147 b 447 1099 376 1118 424 1099 b 460 1101 453 1099 457 1100 b 296 1329 508 1129 364 1329 b 333 1147 204 1329 226 1218 z "},"É":{"ha":988,"x_min":0,"x_max":0,"o":"m 901 279 b 838 307 883 299 863 307 b 753 281 813 307 785 299 b 339 150 626 213 422 150 b 306 158 322 150 311 153 b 276 333 289 175 276 254 b 329 460 276 428 283 460 b 403 447 347 460 371 456 b 476 436 433 440 457 436 b 531 497 517 436 531 454 b 401 579 531 551 486 579 b 244 769 278 579 178 701 b 493 815 263 788 375 808 b 747 832 613 822 726 829 b 786 917 768 833 786 871 b 694 983 786 964 767 983 b 215 893 565 983 328 939 b 101 519 82 840 78 828 b 204 81 115 344 161 146 b 326 -12 246 17 285 -12 b 369 -3 340 -12 354 -10 b 643 57 415 18 539 46 b 901 281 856 83 986 194 z m 624 1272 b 575 1329 624 1311 604 1329 b 443 1235 538 1329 483 1296 b 397 1108 407 1182 386 1125 b 418 1099 401 1101 408 1099 b 624 1272 476 1099 624 1214 z "},"Ê":{"ha":988,"x_min":0,"x_max":0,"o":"m 901 279 b 838 307 883 299 863 307 b 753 281 813 307 785 299 b 339 150 626 213 422 150 b 306 158 322 150 311 153 b 276 333 289 175 276 254 b 329 460 276 428 283 460 b 403 447 347 460 371 456 b 476 436 433 440 457 436 b 531 497 517 436 531 454 b 401 579 531 551 486 579 b 246 769 278 579 178 701 b 493 815 263 788 375 808 b 747 832 613 822 726 829 b 786 917 768 833 786 871 b 694 983 786 964 767 983 b 215 893 565 983 328 939 b 101 519 82 840 78 828 b 204 81 115 344 161 146 b 326 -12 246 17 285 -12 b 369 -3 340 -12 354 -10 b 643 57 415 18 539 46 b 901 281 856 83 986 194 z m 394 1144 b 457 1201 422 1182 438 1201 b 546 1142 478 1201 501 1182 b 635 1088 586 1106 614 1088 b 674 1114 650 1088 663 1097 b 442 1342 707 1168 533 1340 b 228 1126 375 1344 228 1196 b 276 1065 228 1086 249 1065 b 394 1144 311 1065 356 1093 z "},"Ë":{"ha":988,"x_min":0,"x_max":0,"o":"m 901 279 b 838 307 883 299 863 307 b 753 281 813 307 785 299 b 339 150 626 213 422 150 b 306 158 322 150 311 153 b 276 333 289 175 276 254 b 329 460 276 428 283 460 b 403 447 347 460 371 456 b 476 436 433 440 457 436 b 531 497 517 436 531 454 b 401 579 531 551 486 579 b 246 769 278 579 178 701 b 493 815 263 788 375 808 b 747 832 613 822 726 829 b 786 917 768 833 786 871 b 694 983 786 964 767 983 b 215 893 565 983 328 939 b 101 519 82 840 78 828 b 204 81 115 344 161 146 b 326 -12 246 17 285 -12 b 369 -3 340 -12 354 -10 b 643 57 415 18 539 46 b 901 281 856 83 986 194 z m 731 1242 b 669 1326 740 1290 714 1326 b 563 1171 575 1326 518 1243 b 625 1133 578 1144 601 1133 b 731 1242 669 1133 718 1175 z m 374 1190 b 285 1275 385 1249 356 1275 b 214 1104 182 1275 142 1176 b 267 1082 229 1089 249 1082 b 374 1190 313 1082 361 1124 z "},"Ì":{"ha":1125,"x_min":0,"x_max":0,"o":"m 1025 185 b 788 261 990 228 883 261 b 539 439 636 261 603 285 b 600 811 422 718 440 829 b 710 935 739 796 825 893 b 599 947 686 943 646 947 b 69 835 408 947 88 888 b 172 771 57 796 96 771 b 358 563 272 771 307 732 b 449 282 393 447 433 321 b 324 211 468 231 433 211 b 94 38 169 211 28 104 b 151 24 104 28 125 24 b 260 42 183 24 222 29 b 694 89 331 64 526 85 b 1025 185 1103 99 1099 97 z m 265 1146 b 379 1097 308 1117 354 1097 b 393 1100 385 1097 390 1099 b 228 1328 440 1128 296 1328 b 265 1146 136 1328 158 1217 z "},"Í":{"ha":1125,"x_min":0,"x_max":0,"o":"m 1025 185 b 788 261 990 228 883 261 b 539 439 636 261 603 285 b 600 811 422 718 440 829 b 710 935 739 796 825 893 b 599 947 686 943 646 947 b 69 835 408 947 88 888 b 172 771 57 796 96 771 b 358 563 272 771 307 732 b 449 282 393 447 433 321 b 324 211 468 231 433 211 b 94 38 169 211 28 104 b 151 24 104 28 125 24 b 260 42 183 24 222 29 b 694 89 331 64 526 85 b 1025 185 1103 99 1099 97 z m 426 1271 b 378 1328 426 1310 407 1328 b 244 1233 340 1328 286 1294 b 200 1106 210 1181 189 1124 b 219 1096 204 1099 211 1096 b 426 1271 278 1096 426 1213 z "},"Î":{"ha":1125,"x_min":0,"x_max":0,"o":"m 1025 185 b 788 261 990 228 883 261 b 539 439 636 261 603 285 b 600 811 422 718 440 829 b 710 935 739 796 825 893 b 599 947 686 943 646 947 b 69 835 408 947 88 888 b 172 771 57 796 96 771 b 358 563 272 771 307 732 b 449 282 393 447 433 321 b 324 211 468 231 433 211 b 94 38 169 211 28 104 b 151 24 104 28 125 24 b 260 42 183 24 222 29 b 694 89 331 64 526 85 b 1025 185 1103 99 1099 97 z m 240 1129 b 342 1231 278 1193 308 1231 b 433 1146 369 1231 399 1204 b 510 1086 458 1103 486 1086 b 561 1117 531 1086 549 1099 b 329 1346 594 1172 421 1346 b 135 1149 296 1346 172 1226 b 181 1078 129 1121 150 1078 b 240 1129 199 1078 219 1092 z "},"Ï":{"ha":1125,"x_min":0,"x_max":0,"o":"m 1025 185 b 788 261 990 228 883 261 b 539 439 636 261 603 285 b 600 811 422 718 440 829 b 710 935 739 796 825 893 b 599 947 686 943 646 947 b 69 835 408 947 88 888 b 172 771 57 796 96 771 b 358 563 272 771 307 732 b 449 282 393 447 433 321 b 324 211 468 231 433 211 b 94 38 169 211 28 104 b 151 24 104 28 125 24 b 260 42 183 24 222 29 b 694 89 331 64 526 85 b 1025 185 1103 99 1099 97 z m 643 1221 b 583 1306 653 1271 628 1306 b 475 1150 488 1306 431 1224 b 538 1113 492 1125 514 1113 b 643 1221 583 1113 631 1154 z m 286 1169 b 197 1256 297 1228 268 1256 b 126 1085 96 1256 54 1157 b 181 1061 143 1068 161 1061 b 286 1169 226 1061 274 1104 z "},"Ð":{"ha":1010,"x_min":0,"x_max":0,"o":"m 199 947 b 182 560 122 886 119 849 b 46 492 74 560 46 542 b 211 415 46 440 81 421 b 257 106 238 278 256 153 b 358 -32 257 40 285 -32 b 971 624 560 -32 971 393 b 397 1006 971 822 647 1006 b 199 947 321 1006 250 988 z m 660 321 b 450 140 558 204 493 140 b 350 413 399 140 375 225 b 582 476 531 414 585 429 b 332 554 576 576 485 549 b 428 854 299 851 301 854 b 689 794 500 854 617 826 b 660 321 865 714 856 543 z "},"Ñ":{"ha":1246,"x_min":0,"x_max":0,"o":"m 388 850 b 485 886 432 874 460 886 b 568 836 513 886 535 869 b 689 768 614 790 653 768 b 813 858 732 768 771 797 b 815 1107 897 981 899 1107 b 751 1024 779 1107 751 1069 b 676 908 751 949 721 908 b 578 957 649 908 614 925 b 431 1008 539 992 485 1008 b 250 911 351 1008 274 974 b 282 815 225 849 239 815 b 388 850 307 815 343 826 z m 1029 814 b 989 482 967 814 960 756 b 967 151 1015 246 1008 151 b 328 494 874 151 494 356 b 182 589 250 558 213 589 b 111 529 158 589 140 568 b 44 193 75 479 44 328 b 121 -53 44 8 64 -53 b 197 176 178 -53 197 7 b 233 406 197 303 214 406 b 399 283 253 406 328 351 b 779 78 471 217 642 124 b 1006 22 893 40 958 22 b 1103 67 1047 22 1074 38 b 1029 814 1204 167 1139 814 z "},"Ò":{"ha":1110,"x_min":0,"x_max":0,"o":"m 589 947 b 532 956 569 953 550 956 b 258 785 458 956 389 908 b 53 406 92 628 53 556 b 308 35 53 225 138 101 b 435 17 340 22 383 17 b 954 163 610 17 867 82 b 589 947 1175 369 949 857 z m 869 258 b 588 178 854 232 726 196 b 447 168 535 171 488 168 b 206 396 269 168 206 235 b 564 786 206 621 383 786 b 740 726 625 786 685 767 b 869 258 856 640 933 360 z m 414 1110 b 528 1063 457 1082 503 1063 b 542 1065 533 1063 539 1064 b 376 1292 589 1093 444 1292 b 414 1110 285 1292 307 1182 z "},"Ó":{"ha":1110,"x_min":0,"x_max":0,"o":"m 589 947 b 532 956 569 953 550 956 b 258 786 458 956 389 910 b 53 406 92 628 53 557 b 308 35 53 225 138 101 b 435 17 340 22 383 17 b 954 163 610 17 867 82 b 589 947 1175 369 949 858 z m 869 258 b 588 178 854 232 726 197 b 447 168 535 171 488 168 b 206 397 269 168 206 235 b 564 786 206 621 382 786 b 740 726 624 786 685 768 b 869 258 856 640 933 360 z m 703 1239 b 654 1296 703 1278 683 1296 b 521 1203 615 1296 563 1264 b 476 1075 486 1150 465 1093 b 496 1065 481 1068 488 1065 b 703 1239 556 1065 703 1181 z "},"Ô":{"ha":1110,"x_min":0,"x_max":0,"o":"m 589 949 b 533 956 569 953 551 956 b 258 786 458 956 389 910 b 53 406 92 628 53 557 b 308 35 53 225 138 103 b 435 17 340 22 383 17 b 954 164 610 17 865 82 b 589 949 1175 369 949 858 z m 869 258 b 444 168 839 207 528 168 b 206 397 269 168 206 236 b 564 786 206 621 382 786 b 740 726 624 786 685 768 b 869 258 856 642 933 360 z m 418 1089 b 519 1190 454 1153 486 1190 b 610 1106 547 1190 576 1164 b 686 1046 635 1063 663 1046 b 738 1078 707 1046 726 1058 b 507 1306 771 1132 597 1306 b 311 1108 474 1307 349 1186 b 358 1039 306 1082 326 1039 b 418 1089 375 1039 397 1053 z "},"Õ":{"ha":1110,"x_min":0,"x_max":0,"o":"m 589 947 b 533 954 569 951 551 954 b 258 785 458 954 389 908 b 53 406 92 628 53 556 b 308 35 53 224 138 101 b 436 17 340 22 385 17 b 954 163 611 17 867 82 b 589 947 1175 368 949 857 z m 869 257 b 588 178 854 232 726 196 b 444 167 533 171 485 167 b 206 396 269 167 206 235 b 564 785 206 619 382 785 b 740 725 624 785 685 767 b 869 257 856 640 933 358 z m 392 1131 b 476 1163 431 1151 456 1163 b 551 1118 501 1163 521 1149 b 660 1057 592 1076 626 1057 b 771 1138 697 1057 733 1083 b 774 1361 849 1247 849 1361 b 715 1286 740 1361 715 1328 b 649 1183 715 1219 689 1183 b 561 1226 624 1183 593 1197 b 429 1272 526 1257 478 1272 b 268 1185 358 1272 289 1240 b 296 1099 246 1129 257 1099 b 390 1131 318 1099 350 1110 z "},"Ö":{"ha":1111,"x_min":0,"x_max":0,"o":"m 590 947 b 535 954 571 951 553 954 b 260 785 460 954 390 908 b 54 406 93 626 54 556 b 310 33 54 224 139 101 b 436 15 342 21 385 15 b 956 163 611 15 867 81 b 590 947 1176 368 950 857 z m 871 257 b 589 178 856 232 728 196 b 446 167 535 171 486 167 b 207 396 271 167 207 235 b 565 785 207 619 383 785 b 742 725 625 785 686 767 b 871 257 857 640 935 358 z m 688 1238 b 626 1324 697 1288 671 1324 b 519 1168 532 1324 475 1240 b 582 1131 535 1142 558 1131 b 688 1238 626 1131 675 1171 z m 331 1188 b 242 1272 342 1244 313 1272 b 171 1101 140 1272 99 1174 b 225 1078 186 1085 206 1078 b 331 1188 271 1078 318 1121 z "},"×":{"ha":906,"x_min":0,"x_max":0,"o":"m 678 514 b 624 749 539 606 506 749 b 706 918 728 749 776 849 b 660 943 690 935 675 943 b 551 851 631 943 599 914 l 503 789 b 454 764 490 772 472 764 b 407 788 436 764 419 772 l 346 864 b 189 1003 286 940 215 1003 b 276 761 93 1003 146 856 l 318 731 b 343 571 368 694 381 622 l 250 443 b 92 154 163 322 92 193 b 135 82 92 104 108 82 b 321 290 182 82 263 163 b 492 489 381 422 438 489 b 601 392 531 489 567 456 b 740 292 636 328 694 292 b 804 361 776 292 804 314 b 678 514 804 399 747 468 z "},"Ø":{"ha":1110,"x_min":0,"x_max":0,"o":"m 824 818 b 857 868 838 842 850 860 b 858 1068 947 971 949 1068 b 719 892 843 1068 789 997 b 533 951 669 921 593 951 b 257 782 458 951 389 906 b 53 403 92 625 53 553 b 239 64 53 247 114 136 b 171 -96 204 -7 179 -62 b 225 -168 161 -135 182 -161 b 344 21 251 -168 294 -81 b 435 14 371 15 401 14 b 953 160 611 14 865 78 b 824 818 1121 315 1032 633 z m 303 189 b 206 393 233 222 206 286 b 564 782 206 617 383 782 b 642 771 590 782 615 778 b 303 189 531 594 399 369 z m 869 254 b 588 175 854 229 726 193 b 419 165 521 167 467 163 b 467 242 435 193 451 218 b 758 707 593 422 690 590 b 869 254 863 607 929 351 z "},"Ù":{"ha":840,"x_min":0,"x_max":0,"o":"m 764 869 b 690 919 763 896 726 919 b 608 801 650 919 607 890 b 413 190 611 451 542 190 b 304 243 381 190 344 207 b 243 472 240 301 222 369 b 188 651 264 581 250 626 b 115 665 163 661 136 665 b 72 654 96 665 81 663 b 214 142 18 600 108 275 b 406 15 279 57 340 15 b 635 154 474 15 546 61 b 764 869 760 285 782 606 z m 272 968 b 386 921 315 940 361 921 b 399 924 392 921 396 922 b 235 1150 447 951 303 1150 b 272 968 143 1150 165 1040 z "},"Ú":{"ha":840,"x_min":0,"x_max":0,"o":"m 764 869 b 690 919 763 896 726 919 b 608 801 650 919 607 890 b 413 190 611 451 542 190 b 304 243 381 190 344 207 b 243 472 240 301 222 369 b 188 651 264 581 250 626 b 115 665 163 661 136 665 b 72 654 96 665 81 663 b 214 142 18 600 108 275 b 406 15 279 57 340 15 b 635 154 474 15 546 61 b 764 869 760 285 782 606 z m 517 1064 b 468 1121 517 1103 496 1121 b 335 1028 429 1121 375 1089 b 289 900 299 975 279 917 b 310 890 293 893 300 890 b 517 1064 368 890 517 1006 z "},"Û":{"ha":847,"x_min":0,"x_max":0,"o":"m 771 869 b 697 919 769 896 733 919 b 615 801 657 919 614 890 b 419 190 618 451 549 190 b 311 243 388 190 351 207 b 250 472 247 301 229 369 b 194 651 271 581 257 626 b 122 665 169 661 143 665 b 79 654 103 665 88 663 b 221 142 25 600 115 275 b 413 15 286 57 347 15 b 642 154 481 15 553 61 b 771 869 767 285 789 606 z m 242 1014 b 343 1115 279 1078 310 1115 b 435 1031 371 1115 400 1089 b 511 971 460 988 488 971 b 563 1001 532 971 550 983 b 331 1231 596 1057 422 1231 b 136 1033 297 1231 174 1111 b 182 963 131 1006 151 963 b 242 1014 200 963 221 976 z "},"Ü":{"ha":847,"x_min":0,"x_max":0,"o":"m 771 869 b 697 919 769 896 733 919 b 615 801 657 919 614 890 b 419 190 618 451 549 190 b 311 243 388 190 351 207 b 250 472 247 301 229 369 b 194 651 271 581 257 626 b 122 665 169 661 143 665 b 79 654 103 665 88 663 b 221 142 25 600 115 275 b 413 15 286 57 347 15 b 642 154 481 15 553 61 b 771 869 767 285 789 606 z m 654 1146 b 594 1231 664 1196 639 1231 b 486 1075 499 1231 442 1147 b 549 1038 503 1050 525 1038 b 654 1146 594 1038 642 1079 z m 297 1094 b 208 1181 308 1153 279 1181 b 138 1010 107 1181 65 1081 b 192 986 154 993 172 986 b 297 1094 238 986 285 1029 z "},"Ý":{"ha":683,"x_min":0,"x_max":0,"o":"m 711 1072 b 667 1090 699 1085 683 1090 b 494 883 601 1090 517 997 b 394 701 469 761 439 701 b 267 803 361 701 319 736 b 108 931 200 886 143 931 b 68 861 83 931 68 908 b 226 664 68 821 140 732 b 351 383 364 558 381 518 b 243 167 332 297 283 200 b 171 36 203 133 171 75 b 217 -32 171 -8 186 -32 b 307 6 239 -32 268 -19 b 561 597 386 56 588 525 b 640 850 550 629 586 742 b 711 1072 693 957 726 1058 z m 468 1264 b 419 1322 468 1304 449 1322 b 286 1228 382 1322 328 1289 b 240 1100 251 1175 231 1118 b 261 1090 244 1093 251 1090 b 468 1264 319 1090 468 1207 z "},"Þ":{"ha":806,"x_min":0,"x_max":0,"o":"m 301 1050 b 251 1036 281 1042 264 1036 b 213 1119 222 1036 213 1061 b 129 1226 213 1185 181 1226 b 81 1061 64 1226 54 1193 b 146 526 99 969 128 729 b 251 157 168 250 196 157 b 306 361 307 157 321 207 b 476 618 286 560 292 568 b 774 807 581 646 714 731 l 790 826 b 767 1039 842 892 831 986 b 556 1111 707 1086 638 1111 b 301 1050 481 1111 396 1090 z m 542 776 b 335 719 458 739 388 719 b 244 758 292 719 261 732 b 485 956 194 838 300 925 b 594 967 531 963 567 967 b 671 910 651 967 671 950 b 542 776 671 869 613 808 z "},"ß":{"ha":1231,"x_min":0,"x_max":0,"o":"m 500 1251 b 100 951 283 1218 163 1129 b 196 64 71 869 139 235 b 275 0 207 29 243 0 b 293 344 317 0 322 96 b 549 1115 221 944 269 1115 b 624 1111 572 1115 597 1114 b 657 863 863 1090 875 990 b 475 708 557 803 475 733 b 568 664 475 678 518 664 b 704 714 622 664 683 681 b 865 763 725 747 794 763 b 1049 701 949 763 1035 742 b 833 332 1083 603 946 368 b 772 324 815 326 794 324 b 625 358 722 324 667 336 b 521 393 581 382 546 393 b 489 289 476 393 463 357 b 735 188 514 225 621 188 b 938 232 806 188 879 201 b 1181 726 1113 322 1249 599 b 1006 868 1153 778 1074 842 b 911 1040 904 907 886 940 b 639 1263 947 1181 840 1263 b 500 1251 597 1263 550 1258 z "},"à":{"ha":1038,"x_min":0,"x_max":0,"o":"m 596 572 b 543 567 578 568 560 567 b 453 597 501 567 464 578 b 314 647 432 631 375 647 b 136 585 243 647 167 625 b 124 239 26 444 24 339 b 240 164 175 188 203 164 b 547 367 322 164 519 294 b 638 442 567 417 600 442 b 772 343 681 442 731 408 b 931 242 813 279 882 242 b 988 294 964 242 988 258 b 596 572 988 401 710 597 z m 407 381 b 268 294 350 324 306 294 b 194 347 240 294 215 313 b 339 490 150 421 226 490 b 379 488 351 490 365 489 b 407 381 492 471 493 467 z m 243 824 b 357 775 286 794 332 775 b 369 778 363 775 367 776 b 206 1006 418 806 274 1006 b 243 824 114 1006 136 894 z "},"á":{"ha":1035,"x_min":0,"x_max":0,"o":"m 593 571 b 540 565 575 567 557 565 b 450 597 499 565 463 576 b 311 646 429 631 372 646 b 133 585 240 646 164 625 b 121 238 25 444 21 338 b 238 164 171 188 200 164 b 544 365 318 164 517 293 b 635 440 564 417 597 440 b 769 342 679 440 729 407 b 928 240 810 278 879 240 b 985 293 961 240 985 257 b 593 571 985 400 707 597 z m 406 381 b 267 294 347 322 303 294 b 193 346 238 294 214 311 b 336 489 147 421 224 489 b 378 486 350 489 364 488 b 406 381 489 471 490 465 z m 626 958 b 578 1015 626 997 607 1015 b 444 921 540 1015 486 982 b 400 794 410 868 389 811 b 419 785 404 788 411 785 b 626 958 479 785 626 900 z "},"â":{"ha":1036,"x_min":0,"x_max":0,"o":"m 594 572 b 540 565 576 568 558 565 b 451 597 499 565 463 578 b 313 647 431 631 374 647 b 135 585 242 647 165 625 b 122 239 25 444 22 339 b 239 164 174 188 201 164 b 546 367 321 164 518 294 b 636 442 565 417 599 442 b 771 343 679 442 729 408 b 929 242 811 279 881 242 b 986 294 963 242 986 258 b 594 572 986 401 708 597 z m 406 381 b 267 294 349 324 304 294 b 193 347 239 294 214 313 b 338 490 149 421 225 490 b 378 488 350 490 364 489 b 406 381 490 471 492 465 z m 325 781 b 419 875 360 840 389 875 b 503 797 446 875 472 851 b 574 740 526 757 551 740 b 621 771 593 740 611 753 b 407 982 651 821 490 982 b 226 799 376 982 261 872 b 269 733 221 772 239 733 b 325 781 285 733 306 746 z "},"ã":{"ha":1058,"x_min":0,"x_max":0,"o":"m 617 571 b 564 565 599 567 581 565 b 474 596 522 565 486 576 b 335 646 453 629 396 646 b 157 583 264 646 188 624 b 144 238 49 443 44 338 b 263 163 196 186 225 163 b 568 365 344 163 540 293 b 658 440 588 415 621 440 b 793 342 703 440 753 407 b 951 240 833 278 903 240 b 1008 293 985 240 1008 257 b 617 571 1008 400 731 597 z m 429 381 b 290 294 371 322 326 294 b 217 346 261 294 238 311 b 360 489 171 421 247 489 b 401 486 374 489 388 488 b 429 381 513 469 514 465 z m 264 769 b 342 797 300 788 322 797 b 407 758 363 797 381 785 b 503 704 443 722 474 704 b 603 778 536 704 568 728 b 604 975 669 874 674 975 b 553 910 576 975 553 944 b 494 818 553 850 531 818 b 417 857 472 818 446 831 b 301 897 386 885 343 897 b 154 818 238 897 174 868 b 179 742 135 768 146 742 b 264 769 200 742 228 751 z "},"ä":{"ha":1044,"x_min":0,"x_max":0,"o":"m 603 571 b 550 565 585 567 567 565 b 460 596 508 565 472 576 b 321 646 439 629 382 646 b 143 583 250 646 174 624 b 131 238 35 443 31 338 b 247 164 181 188 210 164 b 554 365 331 164 526 293 b 644 440 574 417 607 440 b 779 342 689 440 739 407 b 938 240 819 278 889 240 b 994 293 971 240 994 257 b 603 571 994 400 718 597 z m 415 381 b 276 294 357 322 313 294 b 203 346 247 294 224 311 b 346 489 157 421 233 489 b 388 486 360 489 374 488 b 415 381 499 469 500 465 z m 678 894 b 617 979 686 944 661 979 b 510 824 522 979 464 897 b 572 786 525 799 549 786 b 678 894 617 786 664 828 z m 321 843 b 231 929 332 901 303 929 b 161 758 129 929 89 831 b 215 735 176 742 196 735 b 321 843 261 735 308 778 z "},"å":{"ha":1042,"x_min":0,"x_max":0,"o":"m 600 571 b 549 565 583 567 565 565 b 457 597 506 565 469 578 b 318 647 436 631 379 647 b 140 585 247 647 171 625 b 128 239 31 444 28 339 b 244 164 178 188 207 164 b 551 367 326 164 524 294 b 642 442 571 417 604 442 b 776 343 685 442 735 408 b 935 242 817 279 886 242 b 992 294 968 242 992 258 b 600 571 992 401 714 597 z m 411 381 b 272 294 354 324 310 294 b 199 347 244 294 219 313 b 343 490 154 421 231 490 b 383 488 356 490 369 489 b 411 381 496 471 497 465 z m 265 689 b 361 678 296 676 339 672 b 471 922 435 694 536 804 b 313 1003 440 978 376 1003 b 169 947 256 1003 199 982 b 265 689 111 876 167 728 z m 264 842 b 342 899 276 879 313 899 b 388 857 365 899 386 886 b 318 797 389 832 358 806 b 296 794 310 796 303 794 b 264 842 265 794 254 811 z "},"æ":{"ha":1131,"x_min":0,"x_max":0,"o":"m 796 401 b 938 351 846 367 894 351 b 1013 683 1081 351 1156 525 b 814 772 958 743 890 772 b 508 592 704 772 554 697 b 453 621 482 596 461 606 b 314 669 432 654 375 669 b 135 608 243 669 167 649 b 122 261 26 468 22 361 b 240 188 174 211 203 188 b 533 367 319 188 490 303 b 596 283 550 339 571 311 b 864 164 665 210 785 164 b 944 217 911 164 944 181 b 849 267 944 244 901 267 b 653 451 747 267 604 403 b 671 457 657 456 663 457 b 796 401 699 457 747 436 z m 726 629 b 799 656 744 649 771 656 b 944 542 867 656 944 606 b 835 472 944 496 890 472 b 713 526 786 472 735 489 b 726 629 693 557 700 603 z m 407 404 b 268 318 349 346 304 318 b 194 369 239 318 215 335 b 338 513 149 444 225 513 b 379 510 351 513 365 511 b 407 404 492 494 493 489 z "},"ç":{"ha":796,"x_min":0,"x_max":0,"o":"m 465 60 b 735 200 600 50 735 106 b 669 282 735 246 703 282 b 624 253 653 282 636 274 b 497 194 600 214 551 194 b 311 285 432 194 358 224 b 351 694 181 449 197 615 b 436 715 382 711 410 715 b 529 708 471 715 501 707 b 603 786 578 710 613 742 b 500 872 592 843 557 872 b 256 781 442 872 360 842 b 71 547 101 690 71 651 b 288 118 71 392 165 203 b 372 78 313 100 342 88 b 310 -24 328 35 299 -6 b 403 -72 318 -36 360 -39 b 333 -135 428 -92 394 -119 b 343 -212 253 -156 268 -212 b 525 -119 417 -212 525 -174 b 478 -21 525 -92 510 -42 b 410 1 457 -6 435 4 b 465 60 422 17 442 38 z "},"è":{"ha":703,"x_min":0,"x_max":0,"o":"m 354 260 b 494 208 404 224 453 208 b 571 540 639 208 714 383 b 374 631 517 600 449 631 b 157 554 304 631 229 604 b 154 140 14 454 13 292 b 422 21 224 67 343 21 b 503 74 469 21 503 38 b 407 125 503 101 460 125 b 211 310 306 125 163 260 b 228 314 215 313 221 314 b 354 260 256 314 306 293 z m 285 488 b 356 514 303 506 328 514 b 503 399 424 514 503 464 b 392 329 503 353 449 329 b 271 383 343 329 293 346 b 285 488 251 414 257 461 z m 278 788 b 392 740 321 760 367 740 b 404 743 397 740 401 742 b 240 969 451 771 308 969 b 278 788 149 969 171 860 z "},"é":{"ha":701,"x_min":0,"x_max":0,"o":"m 353 258 b 493 208 403 224 451 208 b 569 540 638 208 713 382 b 371 629 515 600 447 629 b 156 554 303 629 228 604 b 153 140 13 454 11 292 b 421 21 222 67 342 21 b 501 74 468 21 501 38 b 406 124 501 101 458 124 b 210 308 304 124 161 260 b 228 314 214 313 219 314 b 353 258 256 314 304 293 z m 283 486 b 356 513 301 506 328 513 b 501 399 424 513 501 463 b 390 329 501 353 447 329 b 269 383 342 329 292 346 b 283 486 250 414 256 460 z m 547 899 b 499 956 547 938 526 956 b 365 863 460 956 406 924 b 319 735 329 810 310 751 b 340 725 324 728 331 725 b 547 899 399 725 547 840 z "},"ê":{"ha":721,"x_min":0,"x_max":0,"o":"m 371 258 b 511 207 421 222 469 207 b 588 540 656 207 731 383 b 389 629 533 600 465 629 b 174 554 321 629 246 604 b 171 139 31 453 29 290 b 439 21 240 65 360 21 b 519 72 486 21 519 36 b 424 124 519 100 476 124 b 228 308 322 124 179 258 b 246 314 232 313 238 314 b 371 258 274 314 322 293 z m 301 486 b 372 513 319 504 344 513 b 519 399 440 513 519 463 b 408 329 519 353 465 329 b 288 383 360 329 310 346 b 301 486 268 414 274 460 z m 296 778 b 356 832 322 814 338 832 b 438 775 374 832 396 813 b 522 724 476 740 503 724 b 557 749 536 724 547 732 b 340 963 590 800 426 961 b 140 760 278 965 140 826 b 186 704 140 722 160 704 b 296 778 217 704 260 729 z "},"ë":{"ha":747,"x_min":0,"x_max":0,"o":"m 396 260 b 536 208 446 224 494 208 b 613 540 681 208 756 383 b 415 631 558 600 490 631 b 199 554 346 631 271 604 b 196 140 56 454 54 292 b 464 21 265 67 385 21 b 544 74 511 21 544 38 b 449 125 544 101 501 125 b 253 310 347 125 204 260 b 269 314 257 313 263 314 b 396 260 297 314 347 293 z m 326 488 b 397 514 344 506 369 514 b 544 400 465 514 544 464 b 433 329 544 354 490 329 b 313 383 385 329 335 347 b 326 488 293 414 299 461 z m 643 871 b 582 957 653 921 626 957 b 475 801 488 957 431 874 b 538 764 490 775 514 764 b 643 871 582 764 631 804 z m 286 821 b 197 906 297 878 268 906 b 126 735 96 906 54 807 b 181 711 142 719 161 711 b 286 821 226 711 274 754 z "},"ì":{"ha":440,"x_min":0,"x_max":0,"o":"m 342 115 b 310 421 325 203 310 340 b 233 567 310 517 283 567 b 210 54 143 567 126 211 b 308 -44 246 -14 282 -44 b 342 115 344 -44 363 13 z m 269 708 b 106 936 317 738 174 936 b 142 754 14 936 36 826 b 269 708 194 719 253 699 z "},"í":{"ha":375,"x_min":0,"x_max":0,"o":"m 238 421 b 160 567 238 517 211 567 b 136 54 69 567 53 211 b 235 -44 172 -14 208 -44 b 268 115 271 -44 289 13 b 238 421 251 203 238 340 z m 161 842 b 117 715 126 789 106 732 b 136 706 121 708 128 706 b 343 879 196 706 343 821 b 294 936 343 918 324 936 b 161 842 257 936 203 903 z "},"î":{"ha":517,"x_min":0,"x_max":0,"o":"m 338 421 b 261 567 338 517 311 567 b 238 54 171 567 154 211 b 336 -44 274 -14 310 -44 b 369 115 372 -44 390 13 b 338 421 353 203 338 340 z m 261 925 b 65 728 228 925 104 806 b 113 657 60 700 82 657 b 172 708 131 657 151 671 b 274 810 208 772 240 810 b 365 725 301 810 331 783 b 442 665 390 682 418 665 b 493 696 463 665 481 678 b 261 925 526 751 353 925 z "},"ï":{"ha":614,"x_min":0,"x_max":0,"o":"m 401 421 b 325 567 401 517 375 567 b 301 54 235 567 218 211 b 400 -44 338 -14 374 -44 b 433 115 436 -44 454 13 b 401 421 417 203 401 340 z m 560 888 b 453 732 465 888 408 804 b 515 694 468 706 492 694 b 621 803 560 694 607 736 b 560 888 629 851 604 888 z m 174 838 b 104 665 72 838 32 738 b 157 643 119 650 139 643 b 264 751 203 643 251 685 b 174 838 275 810 246 838 z "},"ð":{"ha":885,"x_min":0,"x_max":0,"o":"m 668 551 b 636 761 657 629 646 699 b 817 824 776 764 819 781 b 611 900 811 914 738 900 b 475 1228 567 1133 528 1228 b 408 1189 456 1228 433 1214 b 439 949 376 1157 386 1074 b 457 906 446 933 451 919 b 281 839 314 910 281 893 b 506 760 281 779 325 763 b 379 615 532 647 493 617 b 69 432 211 615 146 576 b 79 233 26 351 29 303 b 225 167 113 189 160 167 b 481 233 290 167 375 189 b 525 244 497 240 511 244 b 619 138 564 244 590 211 b 718 6 646 65 692 6 b 772 185 804 6 836 108 b 668 551 739 225 692 390 z m 518 360 b 311 313 467 328 383 313 b 174 371 228 313 161 332 b 440 494 197 440 338 494 b 536 467 482 494 517 486 b 518 360 581 422 576 397 z "},"ñ":{"ha":979,"x_min":0,"x_max":0,"o":"m 272 794 b 369 829 317 818 344 829 b 454 779 397 829 419 814 b 574 711 499 735 538 711 b 699 803 617 711 656 742 b 701 1051 783 924 785 1051 b 636 968 665 1051 636 1014 b 561 853 636 893 606 853 b 464 901 533 853 500 869 b 318 951 426 936 372 951 b 135 854 238 951 158 917 b 167 758 111 792 124 758 b 272 794 192 758 228 769 z m 797 496 b 458 625 714 579 574 625 b 278 543 372 625 300 599 b 197 489 264 507 236 489 b 147 497 182 489 165 492 b 92 510 122 506 104 510 b 82 360 54 510 57 474 b 169 125 103 265 142 160 b 251 64 203 85 231 64 b 311 260 292 64 311 129 b 388 488 311 389 338 468 b 454 499 408 496 431 499 b 771 289 576 499 725 406 b 857 185 793 226 829 185 b 871 189 863 185 867 186 b 797 496 958 242 928 365 z "},"ò":{"ha":657,"x_min":0,"x_max":0,"o":"m 214 900 b 342 854 267 865 324 844 b 176 1082 389 883 244 1082 b 214 900 85 1082 107 971 z m 488 614 b 357 704 422 676 386 704 b 296 661 336 704 318 689 b 133 526 263 619 189 558 b 117 168 26 464 18 288 b 253 104 153 125 200 104 b 494 226 328 104 414 146 b 488 614 653 385 651 460 z m 406 315 b 279 256 367 276 319 256 b 183 308 240 256 204 274 b 403 507 147 367 299 504 b 406 315 483 508 485 394 z "},"ó":{"ha":656,"x_min":0,"x_max":0,"o":"m 517 976 b 468 1033 517 1015 497 1033 b 335 940 429 1033 376 1001 b 290 813 300 888 279 829 b 310 803 294 806 301 803 b 517 976 369 803 517 918 z m 486 614 b 356 704 421 676 385 704 b 294 661 335 704 317 689 b 132 526 261 619 188 558 b 115 168 25 464 17 288 b 251 104 151 125 199 104 b 493 226 326 104 413 146 b 486 614 651 385 650 460 z m 404 315 b 278 256 365 276 318 256 b 182 308 239 256 203 274 b 401 507 146 367 297 504 b 404 315 482 508 483 394 z "},"ô":{"ha":668,"x_min":0,"x_max":0,"o":"m 229 835 b 331 936 267 899 297 936 b 422 851 360 936 388 910 b 499 792 447 808 475 792 b 550 824 519 792 538 804 b 318 1053 583 878 410 1053 b 124 856 285 1053 161 933 b 171 785 117 828 139 785 b 229 835 188 785 208 799 z m 496 614 b 365 704 431 676 394 704 b 304 661 344 704 326 689 b 142 526 271 619 197 558 b 125 168 35 464 26 288 b 261 104 161 125 208 104 b 503 226 336 104 422 146 b 496 614 661 385 660 460 z m 414 315 b 288 256 375 276 328 256 b 192 308 249 256 213 274 b 411 507 156 367 307 504 b 414 315 492 508 493 394 z "},"õ":{"ha":704,"x_min":0,"x_max":0,"o":"m 613 990 b 558 918 583 990 565 958 b 506 863 553 883 535 863 b 410 913 481 863 447 878 b 286 956 378 942 332 956 b 128 871 217 956 149 925 b 156 789 107 818 119 789 b 246 819 178 789 208 800 b 328 851 283 840 308 851 b 400 807 351 851 371 836 b 507 749 439 768 474 749 b 621 829 547 749 583 776 b 613 990 694 933 685 990 z m 525 614 b 394 704 460 676 424 704 b 333 661 374 704 356 689 b 171 526 300 619 226 558 b 154 168 64 464 56 288 b 290 104 190 125 238 104 b 532 226 365 104 451 146 b 525 614 690 385 689 460 z m 443 315 b 317 256 404 276 357 256 b 221 308 278 256 242 274 b 440 507 185 367 336 504 b 443 315 521 508 522 394 z "},"ö":{"ha":672,"x_min":0,"x_max":0,"o":"m 588 1014 b 481 858 492 1014 435 932 b 542 821 496 833 519 821 b 647 929 586 821 635 863 b 588 1014 657 979 632 1014 z m 290 879 b 201 964 301 936 274 964 b 131 793 100 964 58 865 b 185 769 147 776 165 769 b 290 879 231 769 278 813 z m 497 614 b 367 704 432 676 396 704 b 306 661 346 704 328 689 b 143 526 272 619 199 558 b 126 168 36 464 28 288 b 263 104 163 125 210 104 b 504 226 338 104 424 146 b 497 614 663 385 661 460 z m 415 315 b 289 256 376 276 329 256 b 193 308 250 256 214 274 b 413 507 157 367 308 504 b 415 315 493 508 494 394 z "},"ø":{"ha":683,"x_min":0,"x_max":0,"o":"m 583 586 b 610 753 671 660 683 740 b 481 636 593 753 543 706 b 364 713 424 689 392 713 b 303 669 343 713 325 697 b 142 535 269 628 197 567 b 125 176 35 472 25 296 b 60 65 94 131 71 92 b 97 -1 47 33 61 10 b 106 -3 100 -3 103 -3 b 215 118 132 -3 158 36 b 263 113 231 114 246 113 b 501 235 338 113 422 154 b 557 560 638 369 656 444 b 583 586 567 571 576 581 z m 208 296 b 192 317 203 303 196 308 b 374 508 160 368 274 482 b 208 296 317 440 260 367 z m 413 324 b 324 269 385 296 354 278 b 471 461 382 349 431 413 b 413 324 476 422 457 367 z "},"ù":{"ha":936,"x_min":0,"x_max":0,"o":"m 850 367 b 828 622 839 486 829 600 b 749 660 826 643 792 660 b 672 536 701 660 672 613 b 325 215 672 407 454 215 b 289 221 313 215 300 217 b 265 436 203 253 190 361 b 240 586 300 469 292 519 b 165 656 206 633 183 656 b 114 608 149 656 135 639 b 163 150 31 483 54 260 b 304 56 225 88 260 56 b 518 157 351 56 408 89 b 682 225 593 201 649 225 b 713 207 699 225 708 219 b 800 150 724 176 763 150 b 850 367 849 150 863 211 z m 364 813 b 490 767 417 778 474 757 b 326 994 538 796 394 994 b 364 813 235 994 257 883 z "},"ú":{"ha":936,"x_min":0,"x_max":0,"o":"m 850 368 b 828 622 839 486 829 601 b 749 661 826 643 792 661 b 672 536 701 661 672 613 b 325 215 672 407 453 215 b 289 221 313 215 300 217 b 265 436 203 254 190 363 b 240 586 300 471 292 521 b 165 656 204 633 183 656 b 114 610 149 656 135 639 b 163 151 31 485 54 260 b 306 57 225 89 260 57 b 518 157 351 57 408 90 b 682 226 593 201 649 226 b 713 207 699 226 708 219 b 800 151 724 176 763 151 b 850 368 849 151 863 211 z m 638 913 b 589 969 638 951 618 969 b 456 875 551 969 497 936 b 411 749 421 822 400 765 b 431 739 415 742 422 739 b 638 913 490 739 638 854 z "},"û":{"ha":938,"x_min":0,"x_max":0,"o":"m 850 368 b 829 622 840 488 831 601 b 750 661 828 644 792 661 b 674 538 703 661 674 614 b 325 217 674 408 456 217 b 289 222 313 217 300 218 b 265 438 203 254 192 363 b 242 588 300 471 292 521 b 165 657 207 635 185 657 b 115 610 150 657 135 640 b 164 151 31 485 54 261 b 306 57 226 89 261 57 b 518 157 351 57 408 90 b 682 226 593 203 650 226 b 714 208 699 226 710 221 b 801 151 725 176 764 151 b 850 368 850 151 864 213 z m 350 761 b 451 863 386 825 418 863 b 543 776 479 863 508 836 b 619 718 568 733 594 718 b 669 749 640 718 658 731 b 439 978 704 804 529 978 b 243 781 406 978 282 858 b 290 710 238 753 258 710 b 350 761 307 710 329 724 z "},"ü":{"ha":939,"x_min":0,"x_max":0,"o":"m 853 367 b 831 622 842 486 832 601 b 751 660 829 643 794 660 b 675 536 704 660 675 613 b 328 215 675 407 457 215 b 292 221 315 215 303 217 b 268 436 206 254 193 363 b 243 586 303 471 294 521 b 168 656 207 633 186 656 b 117 610 151 656 138 639 b 165 150 33 485 57 260 b 307 57 228 88 263 57 b 521 157 353 57 411 90 b 685 226 596 201 651 226 b 715 207 701 226 711 219 b 803 150 726 176 765 150 b 853 367 851 150 865 211 z m 756 883 b 694 968 765 933 739 968 b 588 813 600 968 543 886 b 650 775 603 788 626 775 b 756 883 694 775 743 817 z m 399 833 b 310 918 410 890 381 918 b 239 747 207 918 167 819 b 293 724 254 731 274 724 b 399 833 339 724 386 767 z "},"ý":{"ha":701,"x_min":0,"x_max":0,"o":"m 482 786 b 433 843 482 825 463 843 b 300 749 396 843 342 810 b 256 621 265 696 244 639 b 275 611 260 614 267 611 b 482 786 333 611 482 728 z m 532 507 b 442 392 492 507 451 456 b 324 278 432 317 392 278 b 206 392 257 278 217 317 b 107 506 196 465 147 506 b 44 421 74 506 44 479 b 326 150 44 296 196 150 b 464 -92 439 150 507 32 b 319 -156 453 -128 388 -156 b 197 -232 244 -156 197 -186 b 317 -307 197 -281 247 -307 b 506 -256 372 -307 442 -290 b 604 151 589 -211 604 -147 b 532 507 604 425 588 507 z "},"þ":{"ha":950,"x_min":0,"x_max":0,"o":"m 407 438 b 443 429 417 432 429 429 b 889 722 544 429 756 564 b 953 990 1011 867 1018 893 b 619 1156 882 1097 756 1156 b 406 1106 549 1156 475 1140 b 235 1032 310 1058 260 1032 b 206 1150 203 1032 206 1068 b 140 1279 206 1231 175 1279 b 83 1236 122 1279 101 1265 b 182 17 58 1196 143 135 b 242 -17 189 -4 215 -17 b 290 1 260 -17 278 -11 b 278 436 318 28 303 99 l 251 800 b 353 960 246 871 288 935 l 381 971 b 624 1021 468 1004 551 1021 b 811 954 707 1021 775 999 b 733 749 856 900 838 854 b 478 583 658 674 543 600 b 407 438 353 551 324 490 z "},"ÿ":{"ha":733,"x_min":0,"x_max":0,"o":"m 599 864 b 490 708 503 864 446 781 b 553 671 507 682 529 671 b 658 779 599 671 646 713 b 599 864 668 828 643 864 z m 301 728 b 213 814 313 786 283 814 b 142 642 111 814 69 714 b 196 619 158 626 176 619 b 301 728 242 619 289 661 z m 550 507 b 461 393 510 507 471 456 b 343 278 450 317 410 278 b 225 393 276 278 236 317 b 125 506 214 465 165 506 b 63 422 92 506 63 479 b 344 150 63 297 215 150 b 483 -92 458 150 525 33 b 339 -156 472 -126 407 -156 b 215 -232 264 -156 215 -185 b 336 -307 215 -281 267 -307 b 525 -256 392 -307 461 -290 b 624 153 608 -211 624 -146 b 550 507 624 426 607 507 z "},"Ă":{"ha":1038,"x_min":0,"x_max":0,"o":"m 207 247 b 519 514 279 469 331 513 b 815 197 665 515 815 356 b 892 107 815 147 850 107 b 968 186 933 107 968 143 b 511 922 968 319 594 922 b 331 758 468 922 388 849 b 3 119 157 482 6 186 b 40 49 0 71 17 49 b 207 247 89 49 168 131 z m 599 681 b 514 617 611 643 575 617 b 407 697 451 617 407 650 b 481 760 407 740 440 760 b 599 681 526 760 582 732 z m 700 1200 b 649 1226 679 1219 663 1226 b 524 1110 599 1226 590 1118 b 356 1225 467 1103 410 1225 b 314 1197 342 1225 328 1217 b 524 1014 294 1169 431 1013 b 700 1200 629 1017 738 1167 z "},"ă":{"ha":1031,"x_min":0,"x_max":0,"o":"m 590 571 b 539 565 574 567 556 565 b 447 597 496 565 460 578 b 308 647 426 631 369 647 b 131 585 238 647 161 625 b 118 239 21 444 18 339 b 235 164 168 188 197 164 b 542 367 317 164 514 294 b 632 442 561 417 594 442 b 767 343 675 442 725 408 b 925 242 807 279 876 242 b 982 294 958 242 982 258 b 590 571 982 401 704 597 z m 401 381 b 263 294 344 324 300 294 b 189 347 235 294 210 313 b 333 490 144 421 221 490 b 374 488 346 490 360 489 b 401 381 486 471 488 465 z m 561 907 b 514 929 542 922 526 929 b 401 813 464 929 464 824 b 239 911 349 804 290 911 b 200 882 225 911 213 903 b 407 722 185 854 321 715 b 561 907 507 732 597 879 z "},"Đ":{"ha":1010,"x_min":0,"x_max":0,"o":"m 199 947 b 182 560 122 886 119 849 b 46 492 74 560 46 542 b 211 415 46 440 81 421 b 257 106 238 278 256 153 b 358 -32 257 40 285 -32 b 971 624 560 -32 971 393 b 397 1006 971 822 647 1006 b 199 947 321 1006 250 988 z m 660 321 b 450 140 558 204 493 140 b 350 413 399 140 375 225 b 582 476 531 414 585 429 b 332 554 576 576 485 549 b 428 854 299 851 301 854 b 689 794 500 854 617 826 b 660 321 865 714 856 543 z "},"đ":{"ha":878,"x_min":0,"x_max":0,"o":"m 772 185 b 668 553 739 225 692 390 b 625 828 653 658 638 749 b 875 890 818 832 879 847 b 597 968 868 978 767 968 b 475 1229 558 1153 522 1229 b 408 1190 456 1229 433 1215 b 429 972 378 1160 385 1083 b 124 906 178 981 124 967 b 486 826 124 843 192 828 b 379 617 544 658 514 617 b 69 433 211 615 146 576 b 79 235 26 351 29 303 b 226 167 113 189 160 167 b 481 233 292 167 375 189 b 525 244 497 240 511 244 b 619 138 564 244 590 213 b 718 6 646 65 692 6 b 772 185 804 6 836 110 z m 518 361 b 311 313 467 328 383 313 b 174 372 228 313 161 333 b 442 496 197 442 338 496 b 536 468 482 496 517 488 b 518 361 581 424 576 397 z "},"Ĩ":{"ha":1124,"x_min":0,"x_max":0,"o":"m 538 439 b 599 811 421 718 438 829 b 707 935 738 796 824 894 b 596 947 683 943 644 947 b 68 835 407 947 85 888 b 171 771 56 796 94 771 b 357 563 271 771 306 732 b 447 282 392 447 432 321 b 322 211 467 231 432 211 b 93 38 168 211 26 104 b 150 24 103 28 124 24 b 258 42 182 24 221 29 b 693 90 329 64 525 86 b 1024 185 1101 100 1096 99 b 786 261 989 228 882 261 b 538 439 635 261 601 286 z m 244 1103 b 331 1135 283 1124 308 1135 b 404 1090 354 1135 375 1121 b 513 1029 446 1049 481 1029 b 624 1110 551 1029 586 1056 b 626 1333 701 1219 701 1333 b 568 1258 593 1333 568 1300 b 501 1156 568 1192 542 1156 b 414 1199 476 1156 446 1169 b 282 1244 379 1229 331 1244 b 121 1157 211 1244 142 1213 b 149 1071 99 1101 110 1071 b 243 1103 171 1071 203 1082 z "},"ĩ":{"ha":481,"x_min":0,"x_max":0,"o":"m 60 1085 b 142 1114 97 1104 121 1114 b 213 1072 165 1114 183 1101 b 313 1019 249 1036 283 1019 b 415 1085 351 1019 386 1044 b 432 1240 490 1185 481 1225 b 413 1243 425 1243 418 1243 b 294 1136 353 1243 349 1136 b 222 1176 276 1136 254 1147 b 99 1219 190 1206 144 1219 b -57 1136 31 1219 -36 1189 b -31 1054 -76 1083 -67 1054 b 60 1085 -8 1054 22 1065 z m 383 115 b 351 422 365 204 351 342 b 275 568 351 518 325 568 b 251 56 183 568 167 213 b 350 -44 288 -12 324 -44 b 383 115 386 -44 404 13 z m 338 793 b 194 918 338 856 256 918 b 150 901 176 918 161 913 b 150 793 133 885 135 836 b 258 717 171 743 217 717 b 338 793 301 717 338 743 z "},"Ł":{"ha":1089,"x_min":0,"x_max":0,"o":"m 935 228 b 839 243 919 238 883 243 b 660 224 786 243 722 236 b 415 181 543 201 433 182 b 365 454 403 179 383 293 b 419 499 382 468 400 482 b 554 696 531 592 583 656 b 511 719 542 713 528 719 b 349 622 471 719 419 678 l 349 638 b 240 1096 321 983 294 1096 b 167 972 197 1096 167 1044 b 214 514 167 897 189 706 b 118 346 126 432 97 374 b 150 331 125 338 135 331 b 236 363 168 331 196 339 b 301 14 263 185 289 35 b 336 0 307 4 319 0 b 422 25 360 0 392 8 b 721 76 474 53 608 76 b 935 228 929 76 1046 158 z "},"ł":{"ha":611,"x_min":0,"x_max":0,"o":"m 539 669 b 338 575 515 676 433 636 b 290 813 317 661 300 746 b 181 1111 269 974 224 1094 b 111 1126 156 1121 129 1126 b 89 1121 100 1126 93 1125 b 213 486 69 1100 138 775 b 46 269 67 375 19 314 b 86 243 56 253 68 243 b 253 338 117 243 165 271 b 335 86 283 231 313 140 b 446 -72 381 -22 415 -72 b 475 -58 456 -72 465 -68 b 429 269 514 -19 501 74 b 376 432 411 315 393 372 b 539 669 585 596 618 649 z "},"Œ":{"ha":1361,"x_min":0,"x_max":0,"o":"m 1276 286 b 1211 314 1257 304 1236 314 b 1128 288 1188 314 1160 304 b 714 157 1000 218 797 157 b 681 165 697 157 686 160 b 650 340 664 182 650 261 b 706 467 650 435 657 467 b 778 454 722 467 747 461 b 850 442 808 446 832 442 b 906 504 890 442 906 461 b 776 586 906 557 861 586 b 619 776 651 586 551 708 b 868 822 638 794 749 814 b 1121 838 986 829 1100 836 b 1160 924 1143 839 1160 878 b 1068 990 1160 971 1140 990 b 499 851 961 990 581 933 b 250 789 426 857 342 836 b 299 114 -32 644 -4 267 b 607 49 386 69 506 49 b 700 -6 638 13 668 -6 b 743 4 714 -6 728 -3 b 1018 64 790 25 914 51 b 1276 286 1231 89 1361 201 z m 194 486 b 465 699 194 621 333 715 b 532 203 471 532 488 363 b 194 486 308 214 194 308 z "},"œ":{"ha":1138,"x_min":0,"x_max":0,"o":"m 785 178 b 925 128 835 143 883 128 b 1001 460 1068 128 1143 301 b 801 549 947 519 878 549 b 522 411 703 549 582 492 b 335 558 485 453 383 558 b 274 515 314 558 296 543 b 113 381 240 472 168 413 b 96 22 4 318 -4 142 b 232 -43 132 -21 179 -43 b 525 136 349 -43 453 51 b 585 60 542 111 561 85 b 851 -60 654 -14 772 -60 b 932 -7 899 -60 932 -43 b 836 43 932 21 889 43 b 642 228 735 43 592 179 b 660 233 646 232 651 233 b 785 178 688 233 736 213 z m 383 168 b 257 110 344 129 299 110 b 163 161 218 110 183 126 b 381 360 126 221 278 357 l 383 360 b 383 168 463 360 463 247 z m 714 406 b 786 432 732 425 758 432 b 932 318 854 432 932 382 b 822 249 932 272 878 249 b 700 303 774 249 722 265 b 714 406 682 333 688 379 z "},"Š":{"ha":613,"x_min":0,"x_max":0,"o":"m 472 843 b 438 846 460 846 449 846 b 265 390 240 846 106 524 b 329 218 310 354 338 276 b 210 122 319 147 294 122 b 149 125 192 122 172 124 b 17 -32 -8 138 -74 58 b 111 -62 38 -53 71 -62 b 493 192 260 -62 493 72 b 379 449 493 249 442 364 b 342 649 282 579 276 608 b 510 697 382 675 458 697 b 472 843 625 699 594 819 z m 386 975 b 581 1172 419 975 543 1094 b 535 1243 586 1199 565 1243 b 475 1192 517 1243 496 1229 b 374 1090 438 1128 407 1090 b 282 1175 344 1090 317 1117 b 206 1235 257 1218 229 1235 b 154 1203 185 1235 165 1222 b 386 975 121 1149 294 975 z "},"š":{"ha":657,"x_min":0,"x_max":0,"o":"m 429 264 b 296 493 276 390 249 438 b 450 564 328 532 397 564 b 544 640 501 564 544 599 b 454 714 544 690 508 714 b 250 638 397 714 324 688 b 265 258 97 531 104 344 b 304 113 418 176 425 113 b 215 121 281 113 250 115 b 119 129 179 126 147 129 b 72 8 -6 129 -40 75 b 281 -43 132 -26 207 -43 b 522 29 371 -43 460 -18 b 429 264 618 103 615 111 z m 350 769 b 546 967 383 769 507 889 b 499 1038 553 994 531 1038 b 439 988 481 1038 460 1024 b 338 886 403 924 371 886 b 246 971 310 886 281 913 b 169 1031 221 1014 193 1031 b 119 999 149 1031 131 1018 b 350 769 85 944 260 769 z "},"Ũ":{"ha":838,"x_min":0,"x_max":0,"o":"m 610 819 b 415 208 613 469 544 208 b 306 261 382 208 346 225 b 244 490 242 319 224 388 b 189 669 265 599 251 644 b 117 683 164 679 138 683 b 75 672 97 683 82 681 b 215 160 21 618 110 293 b 407 33 281 75 342 33 b 636 172 475 33 549 79 b 765 888 761 303 785 624 b 692 938 764 914 728 938 b 610 819 651 938 608 908 z m 385 1036 b 489 978 422 997 457 978 b 600 1057 528 978 563 1004 b 597 1293 675 1163 669 1293 b 542 1221 565 1293 542 1261 b 468 1108 542 1151 511 1108 b 393 1144 446 1108 421 1119 b 256 1190 360 1175 306 1190 b 113 1106 185 1190 118 1161 b 164 1011 107 1058 117 1011 b 231 1032 181 1011 203 1017 b 317 1079 271 1064 294 1079 b 385 1036 338 1079 357 1064 z "},"ũ":{"ha":925,"x_min":0,"x_max":0,"o":"m 844 368 b 822 622 833 486 824 601 b 743 661 821 643 786 661 b 667 536 696 661 667 613 b 319 215 667 407 447 215 b 283 221 307 215 294 217 b 260 436 197 254 185 363 b 235 586 294 471 286 521 b 160 656 199 633 178 656 b 108 610 143 656 129 639 b 157 151 25 485 49 260 b 300 57 219 89 254 57 b 513 157 346 57 403 90 b 676 226 588 201 643 226 b 707 207 693 226 703 219 b 794 151 718 176 757 151 b 844 368 843 151 857 211 z m 315 775 b 382 799 346 790 365 799 b 454 750 407 799 424 781 b 554 697 489 715 522 697 b 667 775 593 697 631 724 b 650 947 733 871 719 947 b 585 903 622 947 585 938 b 536 810 585 842 568 810 b 464 849 517 810 493 822 b 336 894 431 879 382 894 b 206 824 278 894 224 871 b 231 747 186 774 197 747 b 315 775 251 747 279 757 z "},"Ÿ":{"ha":683,"x_min":0,"x_max":0,"o":"m 711 1072 b 667 1090 699 1085 683 1090 b 494 883 601 1090 517 997 b 394 701 469 761 439 701 b 267 803 361 701 319 736 b 108 931 200 886 143 931 b 68 861 83 931 68 908 b 226 664 68 821 140 732 b 351 383 364 558 381 518 b 243 167 332 297 283 200 b 171 36 203 133 171 75 b 217 -32 171 -8 186 -32 b 307 6 239 -32 268 -19 b 561 597 386 56 588 525 b 640 850 550 629 586 742 b 711 1072 693 957 726 1058 z m 667 1281 b 607 1365 676 1329 651 1365 b 500 1210 511 1365 454 1282 b 563 1172 515 1183 539 1172 b 667 1281 607 1172 654 1214 z m 311 1229 b 221 1314 322 1286 293 1314 b 150 1143 119 1314 79 1215 b 204 1119 167 1128 185 1119 b 310 1229 250 1119 297 1163 z "},"Ž":{"ha":939,"x_min":0,"x_max":0,"o":"m 617 219 b 629 543 440 221 442 247 b 782 853 714 676 782 815 b 267 985 782 929 564 985 b 68 888 106 985 68 967 b 150 807 68 829 82 807 b 269 818 178 807 218 811 b 418 828 318 825 371 828 b 557 813 478 828 531 822 b 568 692 633 783 635 769 b 300 176 438 538 267 210 b 775 25 349 128 700 25 b 863 74 821 25 843 42 b 617 219 908 149 790 219 z m 453 1108 b 649 1306 486 1108 611 1228 b 601 1376 654 1333 633 1376 b 542 1325 585 1376 563 1363 b 440 1224 506 1261 474 1224 b 349 1310 413 1224 383 1250 b 272 1368 324 1353 297 1368 b 222 1338 251 1368 233 1356 b 453 1108 188 1282 363 1108 z "},"ž":{"ha":929,"x_min":0,"x_max":0,"o":"m 353 704 b 547 901 386 704 510 824 b 500 972 553 928 532 972 b 440 921 483 972 461 958 b 339 819 404 857 372 819 b 249 904 311 819 282 846 b 172 964 224 947 196 964 b 121 932 151 964 132 951 b 353 704 88 878 261 704 z m 681 143 b 622 136 660 139 640 136 b 586 311 515 136 492 217 b 431 585 665 390 594 517 b 265 619 374 608 317 619 b 53 501 164 619 82 578 b 93 440 36 458 43 440 b 222 456 121 440 163 446 b 324 465 260 463 293 465 b 414 304 475 465 532 390 b 469 53 293 215 310 140 b 696 -22 561 3 636 -22 b 832 42 753 -22 797 0 b 783 154 893 115 872 154 b 681 143 756 154 721 151 z "},"ƒ":{"ha":710,"x_min":0,"x_max":0,"o":"m 725 1214 b 436 908 525 1214 458 1144 b 296 731 422 760 400 732 b 150 663 229 731 163 700 b 215 607 138 625 157 607 b 274 611 231 607 250 608 b 343 617 301 614 325 617 b 413 356 418 617 418 574 b 289 10 406 113 372 10 b 190 42 263 10 229 21 b 88 69 154 61 119 69 b 38 -61 -4 69 -58 0 b 278 -110 79 -87 188 -110 b 574 335 474 -111 546 -3 b 649 603 585 463 618 583 b 625 703 686 626 679 658 b 653 1064 513 797 528 996 b 738 1093 688 1082 714 1093 b 828 1026 769 1093 794 1072 b 904 965 860 985 882 965 b 958 996 921 965 938 975 b 725 1214 1056 1090 924 1214 z "},"Ơ":{"ha":1110,"x_min":0,"x_max":0,"o":"m 533 954 b 258 785 458 954 389 908 b 53 406 92 628 53 556 b 308 35 53 225 138 101 b 436 17 340 22 385 17 b 954 163 611 17 867 82 b 899 774 1110 308 1064 575 b 886 1067 864 815 1038 897 b 844 1081 876 1076 857 1081 b 786 999 804 1081 761 1038 b 790 889 840 917 835 889 b 739 896 776 889 760 892 b 533 954 675 910 601 954 z m 869 258 b 588 178 854 232 726 196 b 447 168 535 171 488 168 b 206 396 269 168 206 235 b 564 785 206 619 382 785 b 740 725 624 785 685 767 b 869 258 856 640 933 360 z "},"ơ":{"ha":656,"x_min":0,"x_max":0,"o":"m 294 663 b 132 528 261 619 188 560 b 115 169 25 465 17 289 b 251 104 151 126 199 104 b 493 226 326 104 413 146 b 561 531 629 363 639 401 b 572 826 518 601 724 639 b 528 839 564 836 542 839 b 468 765 486 839 444 799 b 472 661 518 689 513 661 b 433 667 461 661 449 664 b 356 706 379 679 375 706 b 294 663 335 706 317 690 z m 404 315 b 276 257 364 276 318 257 b 182 308 238 257 203 274 b 401 507 146 368 297 506 b 404 315 482 510 483 396 z "},"Ư":{"ha":838,"x_min":0,"x_max":0,"o":"m 610 819 b 415 208 613 469 544 208 b 306 261 382 208 346 225 b 244 490 242 319 224 388 b 189 669 265 599 251 644 b 117 683 164 679 138 683 b 75 672 97 683 82 681 b 215 160 21 618 110 293 b 407 33 281 75 342 33 b 636 172 475 33 549 79 b 779 778 747 289 774 535 b 840 1106 781 835 1015 929 b 806 1119 831 1115 818 1119 b 744 1036 765 1119 719 1075 b 736 929 803 947 786 929 b 692 938 719 929 710 938 b 610 819 650 938 608 908 z "},"ư":{"ha":925,"x_min":0,"x_max":0,"o":"m 844 368 b 833 507 840 421 839 463 b 926 814 824 586 1106 563 b 893 826 921 822 908 826 b 804 747 842 826 761 785 b 804 651 882 682 850 653 b 743 661 786 651 768 661 b 667 536 696 661 667 613 b 319 215 667 407 447 215 b 283 221 307 215 294 217 b 260 436 197 254 185 363 b 235 586 294 471 286 521 b 160 656 199 633 178 656 b 108 610 143 656 129 639 b 157 151 25 485 49 260 b 300 57 219 89 254 57 b 513 157 346 57 403 90 b 676 226 588 201 643 226 b 707 207 693 226 703 219 b 794 151 718 176 757 151 b 844 368 843 151 857 211 z "},"̣":{"ha":463,"x_min":0,"x_max":0,"o":"m 299 -236 b 306 -117 331 -203 333 -158 b 235 -75 286 -89 263 -75 b 151 -110 210 -75 182 -86 b 135 -246 104 -146 117 -219 b 206 -290 156 -275 179 -290 b 299 -236 233 -290 265 -272 z "},"Ω":{"ha":1708,"x_min":0,"x_max":0,"o":"m 1371 343 b 1658 532 1610 382 1729 461 b 1594 550 1646 544 1624 550 b 1433 515 1553 550 1497 539 b 1242 469 1353 486 1290 469 b 1092 794 1125 469 1092 564 b 625 1232 1092 1135 988 1232 b 229 1100 442 1232 349 1201 b 72 876 142 1028 72 926 b 381 499 72 825 211 656 b 572 168 678 224 685 210 b 454 150 539 156 497 150 b 335 168 411 150 369 156 b 222 192 293 183 254 192 b 153 104 154 192 119 158 b 293 13 169 75 233 35 b 426 -11 335 -3 385 -11 b 479 -6 447 -11 465 -10 b 724 353 865 114 922 197 b 225 893 468 554 225 817 b 672 1069 225 1015 406 1086 l 913 1054 l 939 756 b 1242 331 967 446 1040 331 b 1371 343 1279 331 1322 335 z "},"α":{"ha":1167,"x_min":0,"x_max":0,"o":"m 90 725 b 183 449 108 625 150 501 b 318 358 221 389 264 358 b 575 506 386 358 469 407 b 772 658 665 590 754 658 b 892 506 790 658 844 589 b 1057 353 939 422 1014 353 b 979 586 1172 353 1156 406 b 903 826 838 732 831 754 b 939 1015 990 914 1010 1015 b 831 940 914 1015 865 982 b 761 890 803 907 785 890 b 661 940 738 890 708 907 b 394 1013 592 989 493 1013 b 160 960 311 1013 226 996 b 90 725 74 914 63 874 z m 419 863 b 543 629 682 863 726 779 b 340 514 449 553 385 514 b 251 621 296 514 269 550 b 419 863 193 836 211 863 z "},"π":{"ha":1246,"x_min":0,"x_max":0,"o":"m 1065 542 b 924 811 853 542 768 706 b 967 922 1035 885 1043 922 b 544 821 896 922 750 889 b 68 543 81 668 15 631 b 114 517 79 525 94 517 b 229 567 140 517 178 532 b 363 621 283 603 328 621 b 451 471 421 621 451 569 b 486 321 451 407 467 339 b 549 283 511 296 532 283 b 581 485 589 283 603 356 b 614 710 556 633 568 710 b 781 567 650 710 707 663 b 1065 389 881 433 954 389 b 1217 465 1165 389 1217 414 b 1065 542 1217 515 1165 542 z "},"ẞ":{"ha":1126,"x_min":0,"x_max":0,"o":"m 992 1076 b 561 1188 992 1182 969 1188 b 160 1086 325 1188 232 1190 b 204 219 31 901 139 219 b 308 415 271 219 344 357 b 272 746 296 435 281 583 l 267 869 b 432 1050 263 965 336 1046 l 549 1056 b 650 1058 586 1057 619 1058 b 839 1011 775 1058 839 1043 b 569 831 839 910 721 831 b 442 742 458 831 428 810 b 614 667 454 676 500 657 b 867 574 719 678 799 647 b 864 390 964 467 964 464 b 647 336 808 349 711 325 b 614 339 635 339 624 339 b 567 203 531 339 500 269 b 669 168 590 178 628 168 b 1054 403 803 168 996 272 b 967 656 1110 525 1101 549 b 906 871 825 768 822 779 b 992 1076 953 924 992 1015 z "},"Ạ":{"ha":1038,"x_min":0,"x_max":0,"o":"m 207 247 b 519 514 279 469 331 513 b 815 197 665 515 815 356 b 892 107 815 147 850 107 b 968 186 933 107 968 143 b 511 922 968 319 594 922 b 331 758 468 922 388 849 b 3 119 157 482 6 186 b 40 49 0 71 17 49 b 207 247 89 49 168 131 z m 599 681 b 514 617 611 643 575 617 b 407 697 451 617 407 650 b 481 760 407 740 440 760 b 599 681 526 760 582 732 z m 625 -92 b 632 28 657 -58 660 -14 b 561 69 613 56 589 69 b 478 35 536 69 508 58 b 461 -101 431 -1 443 -75 b 532 -146 482 -131 506 -146 b 625 -92 560 -146 592 -128 z "},"ạ":{"ha":1031,"x_min":0,"x_max":0,"o":"m 556 0 b 563 110 585 31 588 71 b 497 149 544 136 522 149 b 421 117 475 149 449 138 b 406 -8 378 83 389 15 b 471 -50 425 -36 447 -50 b 556 0 496 -50 525 -33 z m 590 571 b 539 565 574 567 556 565 b 447 597 496 565 460 578 b 308 647 426 631 369 647 b 131 585 238 647 161 625 b 118 239 21 444 18 339 b 235 164 168 188 197 164 b 542 367 317 164 514 294 b 632 442 561 417 594 442 b 767 343 675 442 725 408 b 925 242 807 279 876 242 b 982 294 958 242 982 258 b 590 571 982 401 704 597 z m 401 381 b 263 294 344 324 300 294 b 189 347 235 294 210 313 b 333 490 144 421 221 490 b 374 488 346 490 360 489 b 401 381 486 471 488 465 z "},"Ả":{"ha":1038,"x_min":0,"x_max":0,"o":"m 207 247 b 519 514 279 469 331 513 b 815 197 665 515 815 356 b 892 107 815 147 850 107 b 968 186 933 107 968 143 b 511 922 968 319 594 922 b 331 758 468 922 388 849 b 3 119 157 482 6 186 b 40 49 0 71 17 49 b 207 247 89 49 168 131 z m 368 1190 b 460 1226 403 1215 436 1226 b 472 1114 508 1226 526 1183 b 461 1039 442 1076 436 1054 b 485 1033 468 1035 476 1033 b 563 1278 561 1033 660 1200 b 454 1318 532 1303 494 1318 b 351 1282 421 1318 386 1308 b 368 1190 290 1233 353 1179 z m 599 681 b 514 617 611 643 575 617 b 407 697 451 617 407 650 b 481 760 407 740 440 760 b 599 681 526 760 582 732 z "},"ả":{"ha":1031,"x_min":0,"x_max":0,"o":"m 590 571 b 539 565 574 567 556 565 b 447 597 496 565 460 578 b 308 647 426 631 369 647 b 131 585 238 647 161 625 b 118 239 21 444 18 339 b 235 164 168 188 197 164 b 542 367 317 164 514 294 b 632 442 561 417 594 442 b 767 343 675 442 725 408 b 925 242 807 279 876 242 b 982 294 958 242 982 258 b 590 571 982 401 704 597 z m 263 883 b 351 918 296 907 328 918 b 363 814 396 918 413 878 b 351 743 332 778 326 757 b 374 738 358 739 365 738 b 447 965 446 738 539 892 b 344 1003 418 988 382 1003 b 247 969 313 1003 279 993 b 263 883 188 925 249 874 z m 401 381 b 263 294 344 324 300 294 b 189 347 235 294 210 313 b 333 490 144 421 221 490 b 374 488 346 490 360 489 b 401 381 486 471 488 465 z "},"Ấ":{"ha":1038,"x_min":0,"x_max":0,"o":"m 511 921 b 331 758 468 921 388 847 b 3 119 157 481 6 186 b 42 49 0 69 17 49 b 207 246 89 49 168 129 b 519 513 279 468 331 513 b 815 197 665 514 815 354 b 892 106 815 147 850 106 b 968 185 933 106 968 142 b 511 921 968 319 594 922 z m 514 615 b 407 696 451 615 407 649 b 481 760 407 739 442 760 b 599 679 528 760 582 732 b 514 615 611 642 576 615 z m 364 1074 b 465 1175 401 1138 432 1175 b 557 1090 494 1175 522 1149 b 633 1031 582 1047 610 1031 b 685 1063 654 1031 672 1043 b 453 1292 718 1117 544 1290 b 257 1093 419 1292 296 1171 b 304 1024 251 1067 274 1024 b 364 1074 322 1024 343 1038 z m 907 1469 b 879 1481 899 1476 889 1481 b 838 1451 861 1481 844 1469 b 743 1196 808 1374 749 1217 b 768 1169 739 1182 749 1169 b 893 1269 794 1169 839 1193 b 907 1469 968 1375 944 1438 z "},"ấ":{"ha":1036,"x_min":0,"x_max":0,"o":"m 594 572 b 540 565 576 568 558 565 b 451 597 499 565 463 578 b 313 647 431 631 374 647 b 135 585 242 647 165 625 b 122 239 25 444 22 339 b 239 164 174 188 201 164 b 546 367 321 164 518 294 b 636 442 565 417 599 442 b 771 343 679 442 729 408 b 929 242 811 279 881 242 b 986 294 963 242 986 258 b 594 572 986 401 708 597 z m 325 781 b 419 875 360 840 389 875 b 503 797 446 875 472 851 b 574 740 526 757 551 740 b 621 771 593 740 611 753 b 407 982 651 821 490 982 b 226 799 376 982 261 872 b 269 733 221 772 239 733 b 325 781 285 733 306 746 z m 406 381 b 267 294 349 324 304 294 b 193 347 239 294 214 313 b 338 490 149 421 225 490 b 378 488 350 490 364 489 b 406 381 490 471 492 465 z m 839 1101 b 793 1154 839 1136 821 1154 b 669 1067 758 1154 707 1124 b 628 949 636 1017 617 964 b 646 940 632 942 639 940 b 839 1101 703 940 839 1047 z "},"Ầ":{"ha":1038,"x_min":0,"x_max":0,"o":"m 511 921 b 331 758 468 921 388 847 b 3 119 157 481 6 186 b 42 49 0 69 17 49 b 207 246 89 49 168 129 b 519 513 279 468 331 513 b 815 197 665 514 815 354 b 892 106 815 147 850 106 b 968 185 933 106 968 142 b 511 921 968 319 594 922 z m 514 615 b 407 696 451 615 407 649 b 481 760 407 739 442 760 b 599 679 528 760 582 732 b 514 615 611 642 576 615 z m 364 1074 b 465 1175 401 1138 432 1175 b 557 1090 494 1175 522 1149 b 633 1031 582 1047 610 1031 b 685 1063 654 1031 672 1043 b 453 1292 718 1117 544 1290 b 257 1093 419 1292 296 1171 b 304 1024 251 1067 274 1024 b 364 1074 322 1024 343 1038 z m 765 1351 b 721 1493 758 1368 733 1443 b 689 1515 718 1501 707 1515 b 638 1485 676 1515 658 1508 b 629 1353 590 1433 600 1404 b 763 1189 692 1239 763 1189 b 779 1183 768 1186 774 1183 b 765 1351 803 1183 817 1224 z "},"ầ":{"ha":1036,"x_min":0,"x_max":0,"o":"m 594 572 b 540 565 576 568 558 565 b 451 597 499 565 463 578 b 313 647 431 631 374 647 b 135 585 242 647 165 625 b 122 239 25 444 22 339 b 239 164 174 188 201 164 b 546 367 321 164 518 294 b 636 442 565 417 599 442 b 771 343 679 442 729 408 b 929 242 811 279 881 242 b 986 294 963 242 986 258 b 594 572 986 401 708 597 z m 325 781 b 419 875 360 840 389 875 b 503 797 446 875 472 851 b 574 740 526 757 551 740 b 621 771 593 740 611 753 b 407 982 651 821 490 982 b 226 799 376 982 261 872 b 269 733 221 772 239 733 b 325 781 285 733 306 746 z m 406 381 b 267 294 349 324 304 294 b 193 347 239 294 214 313 b 338 490 149 421 225 490 b 378 488 350 490 364 489 b 406 381 490 471 492 465 z m 615 971 b 724 925 657 943 700 925 b 735 926 729 925 733 926 b 581 1143 782 953 644 1143 b 615 971 493 1143 514 1038 z "},"Ẩ":{"ha":1038,"x_min":0,"x_max":0,"o":"m 511 921 b 331 758 468 921 388 847 b 3 119 157 481 6 186 b 42 49 0 69 17 49 b 207 246 89 49 168 129 b 519 513 279 468 331 513 b 815 197 665 514 815 354 b 892 106 815 147 850 106 b 968 185 933 106 968 142 b 511 921 968 319 594 922 z m 364 1074 b 465 1175 401 1138 432 1175 b 557 1090 494 1175 522 1149 b 633 1031 582 1047 610 1031 b 685 1063 654 1031 672 1043 b 453 1292 718 1117 544 1290 b 257 1093 419 1292 296 1171 b 304 1024 251 1067 274 1024 b 364 1074 322 1024 343 1038 z m 639 1353 b 729 1389 674 1378 706 1389 b 740 1281 775 1389 792 1347 b 729 1207 710 1243 704 1222 b 751 1201 736 1203 744 1201 b 826 1438 825 1201 921 1363 b 722 1478 797 1463 761 1478 b 624 1442 690 1478 657 1467 b 639 1353 564 1396 625 1343 z m 514 615 b 407 696 451 615 407 649 b 481 760 407 739 442 760 b 599 679 528 760 582 732 b 514 615 611 642 576 615 z "},"ẩ":{"ha":1036,"x_min":0,"x_max":0,"o":"m 594 572 b 540 565 576 568 558 565 b 451 597 499 565 463 578 b 313 647 431 631 374 647 b 135 585 242 647 165 625 b 122 239 25 444 22 339 b 239 164 174 188 201 164 b 546 367 321 164 518 294 b 636 442 565 417 599 442 b 771 343 679 442 729 408 b 929 242 811 279 881 242 b 986 294 963 242 986 258 b 594 572 986 401 708 597 z m 325 781 b 419 875 360 840 389 875 b 503 797 446 875 472 851 b 574 740 526 757 551 740 b 621 771 593 740 611 753 b 407 982 651 821 490 982 b 226 799 376 982 261 872 b 269 733 221 772 239 733 b 325 781 285 733 306 746 z m 572 1053 b 658 1086 606 1076 635 1086 b 669 982 703 1086 719 1047 b 658 913 640 947 635 926 b 681 907 665 908 672 907 b 751 1133 750 907 842 1061 b 651 1171 724 1157 689 1171 b 557 1138 621 1171 589 1161 b 572 1053 500 1093 558 1042 z m 406 381 b 267 294 349 324 304 294 b 193 347 239 294 214 313 b 338 490 149 421 225 490 b 378 488 350 490 364 489 b 406 381 490 471 492 465 z "},"Ẫ":{"ha":1038,"x_min":0,"x_max":0,"o":"m 511 921 b 331 758 468 921 388 847 b 3 119 157 481 6 186 b 42 49 0 69 17 49 b 207 246 89 49 168 129 b 519 513 279 468 331 513 b 815 197 665 514 815 354 b 892 106 815 147 850 106 b 968 185 933 106 968 142 b 511 921 968 319 594 922 z m 514 615 b 407 696 451 615 407 649 b 481 760 407 739 442 760 b 599 679 528 760 582 732 b 514 615 611 642 576 615 z m 364 1074 b 465 1175 401 1138 432 1175 b 557 1090 494 1175 522 1149 b 633 1031 582 1047 610 1031 b 685 1063 654 1031 672 1043 b 453 1292 718 1117 544 1290 b 257 1093 419 1292 296 1171 b 304 1024 251 1067 274 1024 b 364 1074 322 1024 343 1038 z m 386 1392 b 460 1418 419 1410 440 1418 b 522 1381 481 1418 497 1407 b 619 1328 557 1346 589 1328 b 718 1394 653 1328 685 1350 b 718 1533 783 1479 782 1533 b 663 1488 690 1533 663 1521 b 618 1424 663 1444 644 1424 b 531 1468 594 1424 563 1439 b 418 1508 500 1496 458 1508 b 282 1435 358 1508 300 1482 b 303 1363 264 1388 272 1363 b 386 1392 322 1363 350 1372 z "},"ẫ":{"ha":1036,"x_min":0,"x_max":0,"o":"m 594 572 b 540 565 576 568 558 565 b 451 597 499 565 463 578 b 313 647 431 631 374 647 b 135 585 242 647 165 625 b 122 239 25 444 22 339 b 239 164 174 188 201 164 b 546 367 321 164 518 294 b 636 442 565 417 599 442 b 771 343 679 442 729 408 b 929 242 811 279 881 242 b 986 294 963 242 986 258 b 594 572 986 401 708 597 z m 406 381 b 267 294 349 324 304 294 b 193 347 239 294 214 313 b 338 490 149 421 225 490 b 378 488 350 490 364 489 b 406 381 490 471 492 465 z m 325 781 b 419 875 360 840 389 875 b 503 797 446 875 472 851 b 574 740 526 757 551 740 b 621 771 593 740 611 753 b 407 982 651 821 490 982 b 226 799 376 982 261 872 b 269 733 221 772 239 733 b 325 781 285 733 306 746 z m 349 1083 b 419 1108 381 1100 401 1108 b 481 1072 440 1108 456 1099 b 575 1021 513 1039 544 1021 b 686 1083 607 1021 653 1040 b 671 1221 749 1165 732 1221 b 617 1176 643 1221 617 1208 b 574 1114 617 1135 599 1114 b 489 1157 550 1114 519 1129 b 379 1196 460 1183 419 1196 b 256 1140 322 1196 281 1174 b 268 1056 226 1101 239 1056 b 349 1083 288 1056 314 1064 z "},"Ậ":{"ha":1038,"x_min":0,"x_max":0,"o":"m 207 247 b 519 514 279 469 331 513 b 815 197 665 515 815 356 b 892 107 815 147 850 107 b 968 186 933 107 968 143 b 511 922 968 319 594 922 b 331 758 468 922 388 849 b 3 119 157 482 6 186 b 40 49 0 71 17 49 b 207 247 89 49 168 131 z m 599 681 b 514 617 611 643 575 617 b 407 697 451 617 407 650 b 481 760 407 740 440 760 b 599 681 526 760 582 732 z m 625 -92 b 632 28 657 -58 660 -14 b 561 69 613 56 589 69 b 478 35 536 69 508 58 b 461 -101 431 -1 443 -75 b 532 -146 482 -131 506 -146 b 625 -92 560 -146 592 -128 z m 364 1074 b 465 1175 401 1138 432 1175 b 557 1090 494 1175 522 1149 b 633 1031 582 1047 610 1031 b 685 1063 654 1031 672 1043 b 453 1292 718 1117 544 1290 b 257 1093 419 1292 296 1171 b 304 1024 251 1067 274 1024 b 364 1074 322 1024 343 1038 z "},"ậ":{"ha":1031,"x_min":0,"x_max":0,"o":"m 563 -28 b 569 82 592 3 594 43 b 504 121 551 108 529 121 b 428 89 482 121 456 110 b 413 -36 385 56 396 -12 b 478 -78 432 -64 454 -78 b 563 -28 503 -78 532 -61 z m 590 571 b 539 565 574 567 556 565 b 447 597 496 565 460 578 b 308 647 426 631 369 647 b 131 585 238 647 161 625 b 118 239 21 444 18 339 b 235 164 168 188 197 164 b 542 367 317 164 514 294 b 632 442 561 417 594 442 b 767 343 675 442 725 408 b 925 242 807 279 876 242 b 982 294 958 242 982 258 b 590 571 982 401 704 597 z m 401 381 b 263 294 344 324 300 294 b 189 347 235 294 210 313 b 333 490 144 421 221 490 b 374 488 346 490 360 489 b 401 381 486 471 488 465 z m 325 781 b 419 875 360 840 389 875 b 503 797 446 875 472 851 b 574 740 526 757 551 740 b 621 771 593 740 611 753 b 407 982 651 821 490 982 b 226 799 376 982 261 872 b 269 733 221 772 239 733 b 325 781 285 733 306 746 z "},"Ắ":{"ha":1038,"x_min":0,"x_max":0,"o":"m 207 247 b 519 514 279 469 331 513 b 815 197 665 515 815 356 b 892 107 815 147 850 107 b 968 186 933 107 968 143 b 511 922 968 319 594 922 b 331 758 468 922 388 849 b 3 119 157 482 6 186 b 40 49 0 71 17 49 b 207 247 89 49 168 131 z m 599 681 b 514 617 611 643 575 617 b 407 697 451 617 407 650 b 481 760 407 740 440 760 b 599 681 526 760 582 732 z m 699 1447 b 651 1503 699 1485 679 1503 b 525 1413 615 1503 564 1471 b 482 1290 490 1363 471 1306 b 501 1281 486 1283 493 1281 b 699 1447 557 1281 699 1392 z m 700 1200 b 649 1226 679 1219 663 1226 b 524 1110 599 1226 590 1118 b 356 1225 467 1103 410 1225 b 314 1197 342 1225 328 1217 b 524 1014 294 1169 431 1013 b 700 1200 629 1017 738 1167 z "},"ắ":{"ha":1031,"x_min":0,"x_max":0,"o":"m 590 571 b 539 565 574 567 556 565 b 447 597 496 565 460 578 b 308 647 426 631 369 647 b 131 585 238 647 161 625 b 118 239 21 444 18 339 b 235 164 168 188 197 164 b 542 367 317 164 514 294 b 632 442 561 417 594 442 b 767 343 675 442 725 408 b 925 242 807 279 876 242 b 982 294 958 242 982 258 b 590 571 982 401 704 597 z m 567 1118 b 522 1171 567 1154 549 1171 b 397 1083 486 1171 436 1140 b 356 965 365 1033 346 981 b 375 957 360 960 365 957 b 567 1118 429 957 567 1063 z m 401 381 b 263 294 344 324 300 294 b 189 347 235 294 210 313 b 333 490 144 421 221 490 b 374 488 346 490 360 489 b 401 381 486 471 488 465 z m 561 907 b 514 929 542 922 526 929 b 401 813 464 929 464 824 b 239 911 349 804 290 911 b 200 882 225 911 213 903 b 407 722 185 854 321 715 b 561 907 507 732 597 879 z "},"Ằ":{"ha":1038,"x_min":0,"x_max":0,"o":"m 207 247 b 519 514 279 469 331 513 b 815 197 665 515 815 356 b 892 107 815 147 850 107 b 968 186 933 107 968 143 b 511 922 968 319 594 922 b 331 758 468 922 388 849 b 3 119 157 482 6 186 b 40 49 0 71 17 49 b 207 247 89 49 168 131 z m 599 681 b 514 617 611 643 575 617 b 407 697 451 617 407 650 b 481 760 407 740 440 760 b 599 681 526 760 582 732 z m 443 1306 b 544 1263 482 1279 522 1263 b 557 1265 550 1263 554 1264 b 410 1468 599 1290 471 1468 b 443 1306 328 1468 347 1369 z m 700 1200 b 649 1226 679 1219 663 1226 b 524 1110 599 1226 590 1118 b 356 1225 467 1103 410 1225 b 314 1197 342 1225 328 1217 b 524 1014 294 1169 431 1013 b 700 1200 629 1017 738 1167 z "},"ằ":{"ha":1031,"x_min":0,"x_max":0,"o":"m 590 571 b 539 565 574 567 556 565 b 447 597 496 565 460 578 b 308 647 426 631 369 647 b 131 585 238 647 161 625 b 118 239 21 444 18 339 b 235 164 168 188 197 164 b 542 367 317 164 514 294 b 632 442 561 417 594 442 b 767 343 675 442 725 408 b 925 242 807 279 876 242 b 982 294 958 242 982 258 b 590 571 982 401 704 597 z m 401 381 b 263 294 344 324 300 294 b 189 347 235 294 210 313 b 333 490 144 421 221 490 b 374 488 346 490 360 489 b 401 381 486 471 488 465 z m 285 1022 b 390 976 325 994 368 976 b 401 979 394 976 399 978 b 251 1189 446 1006 314 1189 b 285 1022 167 1189 188 1088 z m 561 907 b 514 929 542 922 526 929 b 401 813 464 929 464 824 b 239 911 349 804 290 911 b 200 882 225 911 213 903 b 407 722 185 854 321 715 b 561 907 507 732 597 879 z "},"Ẳ":{"ha":1038,"x_min":0,"x_max":0,"o":"m 207 247 b 519 514 279 469 331 513 b 815 197 665 515 815 356 b 892 107 815 147 850 107 b 968 186 933 107 968 143 b 511 922 968 319 594 922 b 331 758 468 922 388 849 b 3 119 157 482 6 186 b 40 49 0 71 17 49 b 207 247 89 49 168 131 z m 413 1390 b 492 1422 443 1413 471 1422 b 503 1325 533 1422 550 1385 b 493 1260 476 1292 471 1272 b 514 1254 500 1256 507 1254 b 581 1465 579 1254 665 1397 b 486 1501 556 1486 521 1501 b 399 1469 458 1501 428 1492 b 413 1390 346 1428 400 1381 z m 599 681 b 514 617 611 643 575 617 b 407 697 451 617 407 650 b 481 760 407 740 440 760 b 599 681 526 760 582 732 z m 700 1200 b 649 1226 679 1219 663 1226 b 524 1110 599 1226 590 1118 b 356 1225 467 1103 410 1225 b 314 1197 342 1225 328 1217 b 524 1014 294 1169 431 1013 b 700 1200 629 1017 738 1167 z "},"ẳ":{"ha":1031,"x_min":0,"x_max":0,"o":"m 590 571 b 539 565 574 567 556 565 b 447 597 496 565 460 578 b 308 647 426 631 369 647 b 131 585 238 647 161 625 b 118 239 21 444 18 339 b 235 164 168 188 197 164 b 542 367 317 164 514 294 b 632 442 561 417 594 442 b 767 343 675 442 725 408 b 925 242 807 279 876 242 b 982 294 958 242 982 258 b 590 571 982 401 704 597 z m 288 1086 b 369 1117 318 1107 347 1117 b 378 1026 410 1117 424 1082 b 369 967 351 996 346 978 b 407 963 376 964 400 963 b 456 1157 476 958 539 1094 b 363 1189 429 1176 397 1189 b 263 1157 333 1189 292 1178 b 288 1086 210 1119 275 1078 z m 401 381 b 263 294 344 324 300 294 b 189 347 235 294 210 313 b 333 490 144 421 221 490 b 374 488 346 490 360 489 b 401 381 486 471 488 465 z m 561 907 b 514 929 542 922 526 929 b 401 813 464 929 464 824 b 239 911 349 804 290 911 b 200 882 225 911 213 903 b 407 722 185 854 321 715 b 561 907 507 732 597 879 z "},"Ẵ":{"ha":1038,"x_min":0,"x_max":0,"o":"m 207 247 b 519 514 279 469 331 513 b 815 197 665 515 815 356 b 892 107 815 147 850 107 b 968 186 933 107 968 143 b 511 922 968 319 594 922 b 331 758 468 922 388 849 b 3 119 157 482 6 186 b 40 49 0 71 17 49 b 207 247 89 49 168 131 z m 599 681 b 514 617 611 643 575 617 b 407 697 451 617 407 650 b 481 760 407 740 440 760 b 599 681 526 760 582 732 z m 486 1346 b 549 1371 514 1363 533 1371 b 601 1336 565 1371 581 1360 b 682 1288 631 1304 657 1288 b 778 1343 711 1288 749 1303 b 767 1476 832 1421 819 1476 b 719 1435 742 1476 719 1464 b 682 1375 719 1394 704 1375 b 607 1417 661 1375 635 1389 b 511 1453 582 1442 546 1453 b 396 1385 461 1453 411 1429 b 415 1319 381 1342 389 1319 b 486 1346 432 1319 456 1328 z m 700 1200 b 649 1226 679 1219 663 1226 b 524 1110 599 1226 590 1118 b 356 1225 467 1103 410 1225 b 314 1197 342 1225 328 1217 b 524 1014 294 1169 431 1013 b 700 1200 629 1017 738 1167 z "},"ẵ":{"ha":1031,"x_min":0,"x_max":0,"o":"m 590 571 b 539 565 574 567 556 565 b 447 597 496 565 460 578 b 308 647 426 631 369 647 b 131 585 238 647 161 625 b 118 239 21 444 18 339 b 235 164 168 188 197 164 b 542 367 317 164 514 294 b 632 442 561 417 594 442 b 767 343 675 442 725 408 b 925 242 807 279 876 242 b 982 294 958 242 982 258 b 590 571 982 401 704 597 z m 401 381 b 263 294 344 324 300 294 b 189 347 235 294 210 313 b 333 490 144 421 221 490 b 374 488 346 490 360 489 b 401 381 486 471 488 465 z m 368 1035 b 431 1060 396 1051 415 1060 b 483 1025 447 1060 461 1049 b 564 976 511 993 539 976 b 669 1032 593 976 640 992 b 649 1165 724 1110 704 1153 b 601 1124 624 1171 601 1153 b 564 1064 601 1083 586 1064 b 489 1106 543 1064 517 1078 b 393 1142 464 1131 428 1142 b 286 1090 343 1142 301 1135 b 297 1008 271 1047 271 1008 b 368 1035 314 1008 338 1017 z m 561 907 b 514 929 542 922 526 929 b 401 813 464 929 464 824 b 239 911 349 804 290 911 b 200 882 225 911 213 903 b 407 722 185 854 321 715 b 561 907 507 732 597 879 z "},"Ặ":{"ha":1038,"x_min":0,"x_max":0,"o":"m 207 247 b 519 514 279 469 331 513 b 815 197 665 515 815 356 b 892 107 815 147 850 107 b 968 186 933 107 968 143 b 511 922 968 319 594 922 b 331 758 468 922 388 849 b 3 119 157 482 6 186 b 40 49 0 71 17 49 b 207 247 89 49 168 131 z m 599 681 b 514 617 611 643 575 617 b 407 697 451 617 407 650 b 481 760 407 740 440 760 b 599 681 526 760 582 732 z m 625 -92 b 632 28 657 -58 660 -14 b 561 69 613 56 589 69 b 478 35 536 69 508 58 b 461 -101 431 -1 443 -75 b 532 -146 482 -131 506 -146 b 625 -92 560 -146 592 -128 z m 700 1200 b 649 1226 679 1219 663 1226 b 524 1110 599 1226 590 1118 b 356 1225 467 1103 410 1225 b 314 1197 342 1225 328 1217 b 524 1014 294 1169 431 1013 b 700 1200 629 1017 738 1167 z "},"ặ":{"ha":1031,"x_min":0,"x_max":0,"o":"m 550 -37 b 557 72 579 -6 582 33 b 492 111 539 100 517 111 b 415 79 469 111 443 100 b 400 -46 372 46 383 -22 b 465 -87 419 -74 442 -87 b 550 -37 490 -87 519 -71 z m 590 571 b 539 565 574 567 556 565 b 447 597 496 565 460 578 b 308 647 426 631 369 647 b 131 585 238 647 161 625 b 118 239 21 444 18 339 b 235 164 168 188 197 164 b 542 367 317 164 514 294 b 632 442 561 417 594 442 b 767 343 675 442 725 408 b 925 242 807 279 876 242 b 982 294 958 242 982 258 b 590 571 982 401 704 597 z m 401 381 b 263 294 344 324 300 294 b 189 347 235 294 210 313 b 333 490 144 421 221 490 b 374 488 346 490 360 489 b 401 381 486 471 488 465 z m 561 907 b 514 929 542 922 526 929 b 401 813 464 929 464 824 b 239 911 349 804 290 911 b 200 882 225 911 213 903 b 407 722 185 854 321 715 b 561 907 507 732 597 879 z "},"Ẹ":{"ha":988,"x_min":0,"x_max":0,"o":"m 493 815 b 747 832 613 822 726 829 b 786 917 768 833 786 871 b 694 983 786 964 767 983 b 215 893 565 983 328 939 b 101 519 82 840 78 828 b 204 81 115 344 161 146 b 326 -12 246 17 285 -12 b 369 -3 340 -12 354 -10 b 643 57 415 18 539 46 b 901 279 856 83 986 194 b 838 307 883 299 863 307 b 753 281 813 307 785 299 b 339 150 626 213 422 150 b 306 158 322 150 311 153 b 276 333 289 175 276 254 b 329 460 276 428 283 460 b 403 447 347 460 371 456 b 476 436 433 440 457 436 b 531 497 517 436 531 454 b 401 579 531 551 486 579 b 246 769 278 579 178 701 b 493 815 263 788 375 808 z m 719 -208 b 726 -89 751 -175 756 -131 b 656 -47 708 -61 683 -47 b 572 -82 631 -47 603 -58 b 556 -218 525 -118 539 -193 b 626 -262 578 -249 600 -262 b 719 -208 654 -262 686 -244 z "},"ẹ":{"ha":696,"x_min":0,"x_max":0,"o":"m 350 260 b 490 208 400 224 449 208 b 567 540 635 208 710 383 b 368 629 513 600 444 629 b 153 554 300 629 225 604 b 150 140 10 454 8 292 b 418 21 219 67 339 21 b 499 74 465 21 499 38 b 403 124 499 101 456 124 b 207 308 301 124 158 260 b 225 314 211 313 217 314 b 350 260 253 314 301 293 z m 281 488 b 351 514 299 506 324 514 b 499 399 419 514 499 464 b 388 329 499 353 444 329 b 267 383 339 329 289 346 b 281 488 247 414 253 460 z m 319 -200 b 326 -81 351 -167 354 -121 b 256 -39 307 -51 283 -39 b 172 -74 231 -39 203 -50 b 156 -210 125 -110 136 -183 b 226 -254 175 -239 200 -254 b 319 -200 254 -254 286 -236 z "},"Ẻ":{"ha":988,"x_min":0,"x_max":0,"o":"m 493 815 b 747 832 613 822 726 829 b 786 917 768 833 786 871 b 694 983 786 964 767 983 b 215 893 565 983 328 939 b 101 519 82 840 78 828 b 204 81 115 344 161 146 b 326 -12 246 17 285 -12 b 369 -3 340 -12 354 -10 b 643 57 415 18 539 46 b 901 279 856 83 986 194 b 838 307 883 299 863 307 b 753 281 813 307 785 299 b 339 150 626 213 422 150 b 306 158 322 150 311 153 b 276 333 289 175 276 254 b 329 460 276 428 283 460 b 403 447 347 460 371 456 b 476 436 433 440 457 436 b 531 497 517 436 531 454 b 401 579 531 551 486 579 b 246 769 278 579 178 701 b 493 815 263 788 375 808 z m 321 1207 b 418 1247 358 1235 393 1247 b 424 1146 460 1247 474 1211 b 413 1072 392 1108 385 1082 b 436 1068 421 1069 429 1068 b 517 1318 532 1068 628 1231 b 421 1351 490 1339 457 1351 b 306 1310 383 1351 343 1339 b 321 1207 244 1263 307 1196 z "},"ẻ":{"ha":696,"x_min":0,"x_max":0,"o":"m 350 260 b 490 208 400 224 449 208 b 567 540 635 208 710 383 b 368 629 513 600 444 629 b 153 554 300 629 225 604 b 150 140 10 454 8 292 b 418 21 219 67 339 21 b 499 74 465 21 499 38 b 403 124 499 101 456 124 b 207 308 301 124 158 260 b 225 314 211 313 217 314 b 350 260 253 314 301 293 z m 281 488 b 351 514 299 506 324 514 b 499 399 419 514 499 464 b 388 329 499 353 444 329 b 267 383 339 329 289 346 b 281 488 247 414 253 460 z m 425 833 b 500 860 451 853 478 860 b 508 767 560 860 589 806 b 518 688 463 744 494 703 b 535 683 524 685 528 683 b 604 915 594 683 696 842 b 504 954 576 939 542 954 b 410 919 474 954 442 944 b 425 833 351 875 411 824 z "},"Ẽ":{"ha":988,"x_min":0,"x_max":0,"o":"m 493 815 b 747 832 613 822 726 829 b 786 917 768 833 786 871 b 694 983 786 964 767 983 b 215 893 565 983 328 939 b 101 519 82 840 78 828 b 204 81 115 344 161 146 b 326 -12 246 17 285 -12 b 369 -3 340 -12 354 -10 b 643 57 415 18 539 46 b 901 279 856 83 986 194 b 838 307 883 299 863 307 b 753 281 813 307 785 299 b 339 150 626 213 422 150 b 306 158 322 150 311 153 b 276 333 289 175 276 254 b 329 460 276 428 283 460 b 403 447 347 460 371 456 b 476 436 433 440 457 436 b 531 497 517 436 531 454 b 401 579 531 551 486 579 b 246 769 278 579 178 701 b 493 815 263 788 375 808 z m 382 1175 b 456 1131 406 1175 425 1161 b 564 1069 496 1089 532 1069 b 675 1150 603 1069 636 1096 b 678 1374 751 1260 753 1374 b 619 1299 644 1374 619 1340 b 553 1196 619 1232 593 1196 b 465 1239 528 1196 497 1210 b 333 1285 431 1269 382 1285 b 182 1217 263 1285 204 1272 b 204 1122 161 1161 175 1126 b 382 1175 311 1107 328 1175 z "},"ẽ":{"ha":696,"x_min":0,"x_max":0,"o":"m 350 260 b 490 208 400 224 449 208 b 567 540 635 208 710 383 b 368 629 513 600 444 629 b 153 554 300 629 225 604 b 150 140 10 454 8 292 b 418 21 219 67 339 21 b 499 74 465 21 499 38 b 403 124 499 101 456 124 b 207 308 301 124 158 260 b 225 314 211 313 217 314 b 350 260 253 314 301 293 z m 281 488 b 351 514 299 506 324 514 b 499 399 419 514 499 464 b 388 329 499 353 444 329 b 267 383 339 329 289 346 b 281 488 247 414 253 460 z m 244 801 b 313 815 275 811 296 815 b 383 764 342 815 357 800 b 490 681 419 711 453 681 b 578 728 517 681 544 696 b 611 894 661 811 679 882 b 549 842 585 899 560 874 b 501 790 538 806 521 790 b 411 860 475 790 444 817 b 288 915 381 899 335 915 b 146 868 236 915 183 896 b 181 792 93 828 118 792 b 244 801 200 792 221 794 z "},"Ế":{"ha":988,"x_min":0,"x_max":0,"o":"m 901 279 b 838 307 883 299 863 307 b 753 281 813 307 785 299 b 339 150 626 213 422 150 b 306 158 322 150 311 153 b 276 333 289 175 276 254 b 329 460 276 428 283 460 b 403 447 347 460 371 456 b 476 436 433 440 457 436 b 531 497 517 436 531 454 b 401 579 531 551 486 579 b 246 769 278 579 178 701 b 493 815 263 788 375 808 b 747 832 613 822 726 829 b 786 917 768 833 786 871 b 694 983 786 964 767 983 b 215 893 565 983 328 939 b 101 519 82 840 78 828 b 204 81 115 344 161 146 b 326 -12 246 17 285 -12 b 369 -3 340 -12 354 -10 b 643 57 415 18 539 46 b 901 281 856 83 986 194 z m 394 1144 b 457 1201 422 1182 438 1201 b 546 1142 478 1201 501 1182 b 635 1088 586 1106 614 1088 b 674 1114 650 1088 663 1097 b 442 1342 707 1168 533 1340 b 228 1126 375 1344 228 1196 b 276 1065 228 1086 249 1065 b 394 1144 311 1065 356 1093 z m 892 1560 b 861 1571 882 1567 871 1571 b 815 1542 842 1571 824 1560 b 710 1286 783 1464 717 1307 b 739 1260 706 1272 717 1260 b 876 1360 768 1260 817 1283 b 892 1560 960 1465 933 1528 z "},"ế":{"ha":721,"x_min":0,"x_max":0,"o":"m 371 258 b 511 207 421 222 469 207 b 588 540 656 207 731 383 b 389 629 533 600 465 629 b 174 554 321 629 246 604 b 171 139 31 453 29 290 b 439 21 240 65 360 21 b 519 72 486 21 519 36 b 424 124 519 100 476 124 b 228 308 322 124 179 258 b 246 314 232 313 238 314 b 371 258 274 314 322 293 z m 301 486 b 372 513 319 504 344 513 b 519 399 440 513 519 463 b 408 329 519 353 465 329 b 288 383 360 329 310 346 b 301 486 268 414 274 460 z m 293 774 b 353 828 319 810 335 828 b 435 771 371 828 393 808 b 519 719 474 736 500 719 b 554 744 533 719 544 728 b 338 958 588 796 424 957 b 138 756 275 961 138 822 b 183 700 138 718 157 700 b 293 774 214 700 257 725 z m 757 1110 b 710 1165 757 1147 738 1165 b 581 1074 672 1165 621 1132 b 536 950 546 1022 526 967 b 556 940 540 943 546 940 b 757 1110 613 940 757 1053 z "},"Ề":{"ha":988,"x_min":0,"x_max":0,"o":"m 901 279 b 838 307 883 299 863 307 b 753 281 813 307 785 299 b 339 150 626 213 422 150 b 306 158 322 150 311 153 b 276 333 289 175 276 254 b 329 460 276 428 283 460 b 403 447 347 460 371 456 b 476 436 433 440 457 436 b 531 497 517 436 531 454 b 401 579 531 551 486 579 b 246 769 278 579 178 701 b 493 815 263 788 375 808 b 747 832 613 822 726 829 b 786 917 768 833 786 871 b 694 983 786 964 767 983 b 215 893 565 983 328 939 b 101 519 82 840 78 828 b 204 81 115 344 161 146 b 326 -12 246 17 285 -12 b 369 -3 340 -12 354 -10 b 643 57 415 18 539 46 b 901 281 856 83 986 194 z m 394 1144 b 457 1201 422 1182 438 1201 b 546 1142 478 1201 501 1182 b 635 1088 586 1106 614 1088 b 674 1114 650 1088 663 1097 b 442 1342 707 1168 533 1340 b 228 1126 375 1344 228 1196 b 276 1065 228 1086 249 1065 b 394 1144 311 1065 356 1093 z m 747 1438 b 703 1579 740 1454 715 1529 b 671 1601 700 1588 689 1601 b 619 1571 658 1601 640 1594 b 611 1439 572 1519 582 1490 b 744 1275 674 1325 744 1275 b 761 1269 750 1272 756 1269 b 747 1438 785 1269 799 1310 z "},"ề":{"ha":721,"x_min":0,"x_max":0,"o":"m 371 258 b 511 207 421 222 469 207 b 588 540 656 207 731 383 b 389 629 533 600 465 629 b 174 554 321 629 246 604 b 171 139 31 453 29 290 b 439 21 240 65 360 21 b 519 72 486 21 519 36 b 424 124 519 100 476 124 b 228 308 322 124 179 258 b 246 314 232 313 238 314 b 371 258 274 314 322 293 z m 301 486 b 372 513 319 504 344 513 b 519 399 440 513 519 463 b 408 329 519 353 465 329 b 288 383 360 329 310 346 b 301 486 268 414 274 460 z m 293 771 b 353 825 319 807 335 825 b 435 768 371 825 393 806 b 519 717 474 733 500 717 b 554 742 533 717 544 725 b 338 956 588 793 424 954 b 138 753 275 958 138 819 b 183 697 138 715 157 697 b 293 771 214 697 257 722 z m 556 951 b 664 906 596 924 640 906 b 678 908 669 906 675 906 b 519 1126 722 935 585 1126 b 556 951 431 1126 451 1021 z "},"Ể":{"ha":988,"x_min":0,"x_max":0,"o":"m 901 279 b 838 307 883 299 863 307 b 753 281 813 307 785 299 b 339 150 626 213 422 150 b 306 158 322 150 311 153 b 276 333 289 175 276 254 b 329 460 276 428 283 460 b 403 447 347 460 371 456 b 476 436 433 440 457 436 b 531 497 517 436 531 454 b 401 579 531 551 486 579 b 246 769 278 579 178 701 b 493 815 263 788 375 808 b 747 832 613 822 726 829 b 786 917 768 833 786 871 b 694 983 786 964 767 983 b 215 893 565 983 328 939 b 101 519 82 840 78 828 b 204 81 115 344 161 146 b 326 -12 246 17 285 -12 b 369 -3 340 -12 354 -10 b 643 57 415 18 539 46 b 901 281 856 83 986 194 z m 394 1144 b 457 1201 422 1182 438 1201 b 546 1142 478 1201 501 1182 b 635 1088 586 1106 614 1088 b 674 1114 650 1088 663 1097 b 442 1342 707 1168 533 1340 b 228 1126 375 1344 228 1196 b 276 1065 228 1086 249 1065 b 394 1144 311 1065 356 1093 z m 631 1404 b 726 1443 668 1431 701 1443 b 732 1335 771 1443 785 1403 b 721 1258 700 1296 690 1264 b 826 1497 849 1236 924 1397 b 715 1549 794 1531 756 1549 b 607 1501 679 1549 642 1535 b 631 1404 550 1447 615 1393 z "},"ể":{"ha":721,"x_min":0,"x_max":0,"o":"m 371 258 b 511 207 421 222 469 207 b 588 540 656 207 731 383 b 389 629 533 600 465 629 b 174 554 321 629 246 604 b 171 139 31 453 29 290 b 439 21 240 65 360 21 b 519 72 486 21 519 36 b 424 124 519 100 476 124 b 228 308 322 124 179 258 b 246 314 232 313 238 314 b 371 258 274 314 322 293 z m 301 486 b 372 513 319 504 344 513 b 519 399 440 513 519 463 b 408 329 519 353 465 329 b 288 383 360 329 310 346 b 301 486 268 414 274 460 z m 293 768 b 353 822 319 804 335 822 b 435 765 371 822 393 803 b 519 714 474 731 500 714 b 554 739 533 714 544 722 b 338 953 588 790 424 951 b 138 750 275 956 138 817 b 183 694 138 713 157 694 b 293 768 214 694 257 719 z m 486 1040 b 574 1072 519 1063 550 1072 b 583 965 618 1072 633 1033 b 606 913 556 928 581 924 b 628 908 613 910 621 908 b 665 1138 699 908 750 1054 b 578 1171 642 1161 611 1171 b 457 1142 542 1171 500 1160 b 486 1040 413 1124 468 1028 z "},"Ễ":{"ha":988,"x_min":0,"x_max":0,"o":"m 901 279 b 838 307 883 299 863 307 b 753 281 813 307 785 299 b 339 150 626 213 422 150 b 306 158 322 150 311 153 b 276 333 289 175 276 254 b 329 460 276 428 283 460 b 403 447 347 460 371 456 b 476 436 433 440 457 436 b 531 497 517 436 531 454 b 401 579 531 551 486 579 b 246 769 278 579 178 701 b 493 815 263 788 375 808 b 747 832 613 822 726 829 b 786 917 768 833 786 871 b 694 983 786 964 767 983 b 215 893 565 983 328 939 b 101 519 82 840 78 828 b 204 81 115 344 161 146 b 326 -12 246 17 285 -12 b 369 -3 340 -12 354 -10 b 643 57 415 18 539 46 b 901 281 856 83 986 194 z m 394 1144 b 457 1201 422 1182 438 1201 b 546 1142 478 1201 501 1182 b 635 1088 586 1106 614 1088 b 674 1114 650 1088 663 1097 b 442 1342 707 1168 533 1340 b 228 1126 375 1344 228 1196 b 276 1065 228 1086 249 1065 b 394 1144 311 1065 356 1093 z m 364 1451 b 436 1478 396 1469 418 1478 b 500 1440 457 1478 474 1467 b 603 1388 535 1404 569 1388 b 708 1451 640 1388 675 1408 b 696 1593 775 1538 760 1593 b 640 1547 668 1593 640 1581 b 599 1488 640 1506 624 1488 b 508 1536 575 1488 542 1506 b 388 1575 479 1563 432 1575 b 256 1494 321 1575 256 1546 b 299 1431 256 1464 263 1431 b 364 1451 315 1431 336 1436 z "},"ễ":{"ha":721,"x_min":0,"x_max":0,"o":"m 371 258 b 511 207 421 222 469 207 b 588 540 656 207 731 383 b 389 629 533 600 465 629 b 174 554 321 629 246 604 b 171 139 31 453 29 290 b 439 21 240 65 360 21 b 519 72 486 21 519 36 b 424 124 519 100 476 124 b 228 308 322 124 179 258 b 246 314 232 313 238 314 b 371 258 274 314 322 293 z m 301 486 b 372 513 319 504 344 513 b 519 399 440 513 519 463 b 408 329 519 353 465 329 b 288 383 360 329 310 346 b 301 486 268 414 274 460 z m 293 775 b 353 829 319 811 335 829 b 435 772 371 829 393 810 b 519 721 474 738 500 721 b 554 746 533 721 544 729 b 338 960 588 797 424 958 b 138 757 275 963 138 824 b 183 701 138 719 157 701 b 293 775 214 701 257 726 z m 232 1069 b 303 1094 264 1086 285 1094 b 364 1058 324 1094 339 1083 b 458 1007 396 1024 428 1007 b 569 1058 490 1007 536 1015 b 554 1193 632 1140 615 1193 b 500 1154 526 1193 500 1186 b 457 1092 500 1113 482 1092 b 372 1143 433 1092 403 1115 b 263 1182 343 1169 303 1182 b 132 1111 206 1182 149 1157 b 151 1042 114 1065 122 1042 b 232 1069 171 1042 197 1050 z "},"Ệ":{"ha":988,"x_min":0,"x_max":0,"o":"m 493 815 b 747 832 613 822 726 829 b 786 917 768 833 786 871 b 694 983 786 964 767 983 b 215 893 565 983 328 939 b 101 519 82 840 78 828 b 204 81 115 344 161 146 b 326 -12 246 17 285 -12 b 369 -3 340 -12 354 -10 b 643 57 415 18 539 46 b 901 279 856 83 986 194 b 838 307 883 299 863 307 b 753 281 813 307 785 299 b 339 150 626 213 422 150 b 306 158 322 150 311 153 b 276 333 289 175 276 254 b 329 460 276 428 283 460 b 403 447 347 460 371 456 b 476 436 433 440 457 436 b 531 497 517 436 531 454 b 401 579 531 551 486 579 b 246 769 278 579 178 701 b 493 815 263 788 375 808 z m 731 -224 b 738 -104 763 -190 765 -144 b 667 -62 718 -75 694 -62 b 583 -97 642 -62 614 -74 b 567 -233 536 -133 547 -207 b 638 -278 586 -262 611 -278 b 731 -224 665 -278 697 -260 z m 394 1144 b 457 1201 422 1182 438 1201 b 546 1142 478 1201 501 1182 b 635 1088 586 1106 614 1088 b 674 1114 650 1088 663 1097 b 442 1342 707 1168 533 1340 b 228 1126 375 1344 228 1196 b 276 1065 228 1086 249 1065 b 394 1144 311 1065 356 1093 z "},"ệ":{"ha":696,"x_min":0,"x_max":0,"o":"m 350 260 b 490 208 400 224 449 208 b 567 540 635 208 710 383 b 368 629 513 600 444 629 b 153 554 300 629 225 604 b 150 140 10 454 8 292 b 418 21 219 67 339 21 b 499 74 465 21 499 38 b 403 124 499 101 456 124 b 207 308 301 124 158 260 b 225 314 211 313 217 314 b 350 260 253 314 301 293 z m 281 488 b 351 514 299 506 324 514 b 499 399 419 514 499 464 b 388 329 499 353 444 329 b 267 383 339 329 289 346 b 281 488 247 414 253 460 z m 304 -193 b 311 -74 335 -160 339 -115 b 240 -32 292 -46 268 -32 b 157 -67 215 -32 188 -43 b 140 -203 110 -103 121 -176 b 211 -247 160 -232 185 -247 b 304 -193 239 -247 269 -229 z m 293 767 b 353 821 319 803 335 821 b 435 764 371 821 393 801 b 519 713 474 729 500 713 b 554 738 533 713 544 721 b 338 951 588 789 424 950 b 138 749 275 954 138 815 b 183 693 138 711 157 693 b 293 767 214 693 257 718 z "},"Ỉ":{"ha":1124,"x_min":0,"x_max":0,"o":"m 538 439 b 599 811 421 718 438 829 b 707 935 738 796 824 894 b 596 947 683 943 644 947 b 68 835 407 947 85 888 b 171 771 56 796 94 771 b 357 563 271 771 306 732 b 447 282 392 447 432 321 b 322 211 467 231 432 211 b 93 38 168 211 26 104 b 150 24 103 28 124 24 b 258 42 182 24 221 29 b 693 90 329 64 525 86 b 1024 185 1101 100 1096 99 b 786 261 989 228 882 261 b 538 439 635 261 601 286 z m 278 1200 b 371 1238 314 1225 347 1238 b 383 1124 419 1238 438 1194 b 372 1047 351 1085 356 1074 b 407 1025 382 1032 393 1025 b 474 1289 474 1025 565 1215 b 371 1326 444 1313 410 1326 b 261 1293 338 1326 300 1315 b 278 1200 154 1231 263 1189 z "},"ỉ":{"ha":481,"x_min":0,"x_max":0,"o":"m 383 115 b 351 422 365 204 351 342 b 275 568 351 518 325 568 b 251 56 183 568 167 213 b 350 -44 288 -12 324 -44 b 383 115 386 -44 404 13 z m 132 926 b 225 964 168 953 201 964 b 231 853 271 964 285 922 b 238 788 200 813 208 797 b 313 1026 300 767 421 939 b 222 1063 285 1049 256 1063 b 115 1019 189 1063 154 1049 b 132 926 53 971 117 915 z "},"Ị":{"ha":1124,"x_min":0,"x_max":0,"o":"m 538 439 b 599 811 421 718 438 829 b 707 935 738 796 824 894 b 596 947 683 943 644 947 b 68 835 407 947 85 888 b 171 771 56 796 94 771 b 357 563 271 771 306 732 b 447 282 392 447 432 321 b 322 211 467 231 432 211 b 93 38 168 211 26 104 b 150 24 103 28 124 24 b 258 42 182 24 221 29 b 693 90 329 64 525 86 b 1024 185 1101 100 1096 99 b 786 261 989 228 882 261 b 538 439 635 261 601 286 z m 740 -175 b 747 -56 772 -140 775 -97 b 676 -14 728 -28 704 -14 b 593 -49 651 -14 624 -25 b 576 -185 546 -85 558 -158 b 647 -229 597 -214 621 -229 b 740 -175 675 -229 707 -210 z "},"ị":{"ha":481,"x_min":0,"x_max":0,"o":"m 383 115 b 351 422 365 204 351 342 b 275 568 351 518 325 568 b 251 56 183 568 167 213 b 350 -44 288 -12 324 -44 b 383 115 386 -44 404 13 z m 275 882 b 132 1007 275 944 193 1007 b 88 990 114 1007 99 1001 b 88 882 71 974 72 925 b 196 806 108 832 154 806 b 275 882 239 806 275 832 z m 390 -332 b 397 -221 419 -300 422 -260 b 331 -182 379 -194 357 -182 b 254 -214 308 -182 282 -192 b 238 -340 210 -247 221 -317 b 304 -382 257 -368 279 -382 b 390 -332 329 -382 360 -365 z "},"Ọ":{"ha":1110,"x_min":0,"x_max":0,"o":"m 589 947 b 533 954 569 951 551 954 b 258 785 458 954 389 908 b 53 406 92 628 53 556 b 308 35 53 225 138 101 b 436 17 340 22 385 17 b 954 163 611 17 867 82 b 589 947 1175 368 949 857 z m 869 258 b 588 178 854 232 726 196 b 447 168 535 171 488 168 b 206 396 269 168 206 235 b 564 785 206 619 382 785 b 740 725 624 785 685 767 b 869 258 856 640 933 360 z m 733 -229 b 740 -110 765 -196 768 -151 b 669 -68 721 -82 697 -68 b 586 -103 644 -68 617 -79 b 569 -239 539 -139 551 -214 b 640 -283 590 -269 614 -283 b 733 -229 668 -283 700 -265 z "},"ọ":{"ha":656,"x_min":0,"x_max":0,"o":"m 486 615 b 356 706 421 678 385 706 b 294 663 333 706 317 690 b 132 528 261 619 188 560 b 115 169 25 465 17 289 b 251 104 151 126 199 104 b 493 226 326 104 413 146 b 486 615 651 385 650 461 z m 521 -99 b 528 11 550 -68 553 -28 b 463 50 510 38 488 50 b 386 18 440 50 414 39 b 371 -107 343 -15 354 -83 b 436 -149 390 -135 413 -149 b 521 -99 461 -149 490 -132 z m 404 315 b 276 257 364 276 318 257 b 182 308 238 257 203 274 b 401 507 146 368 297 506 b 404 315 482 510 483 396 z "},"Ỏ":{"ha":1110,"x_min":0,"x_max":0,"o":"m 589 947 b 533 954 569 951 551 954 b 258 785 458 954 389 908 b 53 406 92 628 53 556 b 308 35 53 225 138 101 b 436 17 340 22 385 17 b 954 163 611 17 867 82 b 589 947 1175 368 949 857 z m 869 258 b 588 178 854 232 726 196 b 447 168 535 171 488 168 b 206 396 269 168 206 235 b 564 785 206 619 382 785 b 740 725 624 785 685 767 b 869 258 856 640 933 360 z m 407 1211 b 478 1225 438 1221 461 1225 b 513 1061 575 1225 442 1072 b 608 1289 610 1047 674 1200 b 496 1346 581 1326 542 1346 b 378 1300 458 1346 417 1332 b 407 1211 308 1243 386 1204 z "},"ỏ":{"ha":656,"x_min":0,"x_max":0,"o":"m 486 615 b 356 706 421 678 385 706 b 294 663 333 706 317 690 b 132 528 261 619 188 560 b 115 169 25 465 17 289 b 251 104 151 126 199 104 b 493 226 326 104 413 146 b 486 615 651 385 650 461 z m 232 929 b 317 964 264 953 294 964 b 328 860 361 964 378 924 b 318 789 299 824 294 803 b 339 783 325 785 332 783 b 411 1011 408 783 501 939 b 311 1049 383 1035 347 1049 b 217 1015 281 1049 247 1039 b 232 929 158 971 217 919 z m 404 315 b 276 257 364 276 318 257 b 182 308 238 257 203 274 b 401 507 146 368 297 506 b 404 315 482 510 483 396 z "},"Ố":{"ha":1110,"x_min":0,"x_max":0,"o":"m 589 949 b 533 956 569 953 551 956 b 258 786 458 956 389 910 b 53 406 92 628 53 557 b 308 35 53 225 138 103 b 435 17 340 22 383 17 b 954 164 610 17 865 82 b 589 949 1175 369 949 858 z m 869 258 b 444 168 839 207 528 168 b 206 397 269 168 206 236 b 564 786 206 621 382 786 b 740 726 624 786 685 768 b 869 258 856 642 933 360 z m 418 1089 b 519 1190 454 1153 486 1190 b 610 1106 547 1190 576 1164 b 686 1046 635 1063 663 1046 b 738 1078 707 1046 726 1058 b 507 1306 771 1132 597 1306 b 311 1108 474 1307 349 1186 b 358 1039 306 1082 326 1039 b 418 1089 375 1039 397 1053 z m 954 1461 b 926 1472 946 1468 936 1472 b 885 1443 908 1472 892 1461 b 790 1213 856 1365 796 1233 b 814 1189 788 1200 796 1189 b 936 1272 839 1189 883 1210 b 954 1461 1019 1371 992 1429 z "},"ố":{"ha":668,"x_min":0,"x_max":0,"o":"m 229 835 b 331 936 267 899 297 936 b 422 851 360 936 388 910 b 499 792 447 808 475 792 b 550 824 519 792 538 804 b 318 1053 583 878 410 1053 b 124 856 285 1053 161 933 b 171 785 117 828 139 785 b 229 835 188 785 208 799 z m 496 614 b 365 704 431 676 394 704 b 304 661 344 704 326 689 b 142 526 271 619 197 558 b 125 168 35 464 26 288 b 261 104 161 125 208 104 b 503 226 336 104 422 146 b 496 614 661 385 660 460 z m 414 315 b 288 256 375 276 328 256 b 192 308 249 256 213 274 b 411 507 156 367 307 504 b 414 315 492 508 493 394 z m 764 1189 b 719 1236 758 1221 742 1236 b 597 1122 664 1236 617 1165 b 575 992 572 1067 563 1006 b 596 986 581 986 586 985 b 764 1189 653 996 774 1132 z "},"Ồ":{"ha":1110,"x_min":0,"x_max":0,"o":"m 589 949 b 533 956 569 953 551 956 b 258 786 458 956 389 910 b 53 406 92 628 53 557 b 308 35 53 225 138 103 b 435 17 340 22 383 17 b 954 164 610 17 865 82 b 589 949 1175 369 949 858 z m 869 258 b 444 168 839 207 528 168 b 206 397 269 168 206 236 b 564 786 206 621 382 786 b 740 726 624 786 685 768 b 869 258 856 642 933 360 z m 418 1089 b 519 1190 454 1153 486 1190 b 610 1106 547 1190 576 1164 b 686 1046 635 1063 663 1046 b 738 1078 707 1046 726 1058 b 507 1306 771 1132 597 1306 b 311 1108 474 1307 349 1186 b 358 1039 306 1082 326 1039 b 418 1089 375 1039 397 1053 z m 843 1354 b 799 1496 836 1371 811 1446 b 767 1518 796 1504 785 1518 b 715 1488 754 1518 736 1511 b 707 1356 668 1436 678 1407 b 840 1192 769 1242 840 1192 b 857 1186 846 1189 851 1186 b 843 1354 881 1186 894 1226 z "},"ồ":{"ha":668,"x_min":0,"x_max":0,"o":"m 229 835 b 331 936 267 899 297 936 b 422 851 360 936 388 910 b 499 792 447 808 475 792 b 550 824 519 792 538 804 b 318 1053 583 878 410 1053 b 124 856 285 1053 161 933 b 171 785 117 828 139 785 b 229 835 188 785 208 799 z m 496 614 b 365 704 431 676 394 704 b 304 661 344 704 326 689 b 142 526 271 619 197 558 b 125 168 35 464 26 288 b 261 104 161 125 208 104 b 503 226 336 104 422 146 b 496 614 661 385 660 460 z m 414 315 b 288 256 375 276 328 256 b 192 308 249 256 213 274 b 411 507 156 367 307 504 b 414 315 492 508 493 394 z m 535 1056 b 643 1010 575 1028 619 1010 b 657 1013 649 1010 654 1010 b 499 1231 701 1039 564 1231 b 535 1056 410 1231 431 1125 z "},"Ổ":{"ha":1110,"x_min":0,"x_max":0,"o":"m 589 949 b 533 956 569 953 551 956 b 258 786 458 956 389 910 b 53 406 92 628 53 557 b 308 35 53 225 138 103 b 435 17 340 22 383 17 b 954 164 610 17 865 82 b 589 949 1175 369 949 858 z m 869 258 b 444 168 839 207 528 168 b 206 397 269 168 206 236 b 564 786 206 621 382 786 b 740 726 624 786 685 768 b 869 258 856 642 933 360 z m 418 1089 b 519 1190 454 1153 486 1190 b 610 1106 547 1190 576 1164 b 686 1046 635 1063 663 1046 b 738 1078 707 1046 726 1058 b 507 1306 771 1132 597 1306 b 311 1108 474 1307 349 1186 b 358 1039 306 1082 326 1039 b 418 1089 375 1039 397 1053 z m 686 1367 b 808 1407 736 1390 781 1407 b 792 1290 846 1407 851 1376 b 826 1215 760 1251 786 1215 b 882 1456 885 1215 990 1368 b 772 1497 851 1481 814 1497 b 669 1460 739 1497 704 1486 b 674 1364 614 1417 643 1364 b 686 1367 678 1364 682 1365 z "},"ổ":{"ha":668,"x_min":0,"x_max":0,"o":"m 229 835 b 331 936 267 899 297 936 b 422 851 360 936 388 910 b 499 792 447 808 475 792 b 550 824 519 792 538 804 b 318 1053 583 878 410 1053 b 124 856 285 1053 161 933 b 171 785 117 828 139 785 b 229 835 188 785 208 799 z m 496 614 b 365 704 431 676 394 704 b 304 661 344 704 326 689 b 142 526 271 619 197 558 b 125 168 35 464 26 288 b 261 104 161 125 208 104 b 503 226 336 104 422 146 b 496 614 661 385 660 460 z m 414 315 b 288 256 375 276 328 256 b 192 308 249 256 213 274 b 411 507 156 367 307 504 b 414 315 492 508 493 394 z m 488 1140 b 581 1178 524 1165 557 1178 b 593 1064 629 1178 647 1135 b 582 988 561 1025 556 1003 b 606 982 589 983 597 982 b 683 1229 682 982 781 1150 b 574 1271 653 1254 615 1271 b 471 1233 540 1271 506 1260 b 488 1140 408 1185 472 1129 z "},"Ỗ":{"ha":1110,"x_min":0,"x_max":0,"o":"m 589 949 b 533 956 569 953 551 956 b 258 786 458 956 389 910 b 53 406 92 628 53 557 b 308 35 53 225 138 103 b 435 17 340 22 383 17 b 954 164 610 17 865 82 b 589 949 1175 369 949 858 z m 869 258 b 444 168 839 207 528 168 b 206 397 269 168 206 236 b 564 786 206 621 382 786 b 740 726 624 786 685 768 b 869 258 856 642 933 360 z m 418 1089 b 519 1190 454 1153 486 1190 b 610 1106 547 1190 576 1164 b 686 1046 635 1063 663 1046 b 738 1078 707 1046 726 1058 b 507 1306 771 1132 597 1306 b 311 1108 474 1307 349 1186 b 358 1039 306 1082 326 1039 b 418 1089 375 1039 397 1053 z m 465 1407 b 532 1429 503 1421 518 1429 b 579 1396 544 1429 556 1421 b 676 1346 613 1361 644 1346 b 790 1399 713 1346 751 1360 b 758 1519 871 1482 804 1519 b 678 1443 682 1519 744 1443 b 588 1492 654 1443 621 1463 b 499 1525 561 1517 531 1525 b 350 1460 443 1525 374 1506 b 400 1393 343 1447 351 1393 b 465 1407 417 1393 439 1397 z "},"ỗ":{"ha":668,"x_min":0,"x_max":0,"o":"m 229 835 b 331 936 267 899 297 936 b 422 851 360 936 388 910 b 499 792 447 808 475 792 b 550 824 519 792 538 804 b 318 1053 583 878 410 1053 b 124 856 285 1053 161 933 b 171 785 117 828 139 785 b 229 835 188 785 208 799 z m 496 614 b 365 704 431 676 394 704 b 304 661 344 704 326 689 b 142 526 271 619 197 558 b 125 168 35 464 26 288 b 261 104 161 125 208 104 b 503 226 336 104 422 146 b 496 614 661 385 660 460 z m 414 315 b 288 256 375 276 328 256 b 192 308 249 256 213 274 b 411 507 156 367 307 504 b 414 315 492 508 493 394 z m 247 1144 b 321 1171 281 1163 301 1171 b 383 1133 342 1171 358 1160 b 493 1071 424 1093 458 1071 b 579 1253 586 1071 682 1265 b 513 1221 551 1250 513 1254 b 490 1165 513 1183 511 1165 b 392 1221 465 1165 429 1188 b 292 1253 367 1243 329 1253 b 144 1203 218 1253 144 1235 b 182 1118 144 1160 154 1118 b 247 1144 199 1118 214 1126 z "},"Ộ":{"ha":1110,"x_min":0,"x_max":0,"o":"m 589 947 b 533 954 569 951 551 954 b 258 785 458 954 389 908 b 53 406 92 628 53 556 b 308 35 53 225 138 101 b 436 17 340 22 385 17 b 954 163 611 17 867 82 b 589 947 1175 368 949 857 z m 869 258 b 588 178 854 232 726 196 b 447 168 535 171 488 168 b 206 396 269 168 206 235 b 564 785 206 619 382 785 b 740 725 624 785 685 767 b 869 258 856 640 933 360 z m 725 -235 b 732 -115 756 -201 760 -157 b 661 -74 713 -87 689 -74 b 578 -108 636 -74 608 -85 b 561 -244 531 -144 542 -218 b 632 -289 581 -274 606 -289 b 725 -235 660 -289 690 -271 z m 418 1089 b 519 1190 454 1153 486 1190 b 610 1106 547 1190 576 1164 b 686 1046 635 1063 663 1046 b 738 1078 707 1046 726 1058 b 507 1306 771 1132 597 1306 b 311 1108 474 1307 349 1186 b 358 1039 306 1082 326 1039 b 418 1089 375 1039 397 1053 z "},"ộ":{"ha":656,"x_min":0,"x_max":0,"o":"m 486 615 b 356 706 421 678 385 706 b 294 663 333 706 317 690 b 132 528 261 619 188 560 b 115 169 25 465 17 289 b 251 104 151 126 199 104 b 493 226 326 104 413 146 b 486 615 651 385 650 461 z m 229 835 b 331 936 267 899 297 936 b 422 851 360 936 388 910 b 499 792 447 808 475 792 b 550 824 519 792 538 804 b 318 1053 583 878 410 1053 b 124 856 285 1053 161 933 b 171 785 117 828 139 785 b 229 835 188 785 208 799 z m 507 -107 b 514 3 536 -75 539 -35 b 449 42 496 31 474 42 b 372 10 426 42 400 32 b 357 -115 329 -22 340 -92 b 422 -157 376 -143 399 -157 b 507 -107 447 -157 476 -139 z m 404 315 b 276 257 364 276 318 257 b 182 308 238 257 203 274 b 401 507 146 368 297 506 b 404 315 482 510 483 396 z "},"Ớ":{"ha":1110,"x_min":0,"x_max":0,"o":"m 703 1239 b 654 1296 703 1278 683 1296 b 521 1203 615 1296 563 1264 b 476 1075 486 1150 465 1093 b 496 1065 481 1068 488 1065 b 703 1239 556 1065 703 1181 z m 533 954 b 258 785 458 954 389 908 b 53 406 92 628 53 556 b 308 35 53 225 138 101 b 436 17 340 22 385 17 b 954 163 611 17 867 82 b 899 774 1110 308 1064 575 b 886 1067 864 815 1038 897 b 844 1081 876 1076 857 1081 b 786 999 804 1081 761 1038 b 790 889 840 917 835 889 b 739 896 776 889 760 892 b 533 954 675 910 601 954 z m 869 258 b 588 178 854 232 726 196 b 447 168 535 171 488 168 b 206 396 269 168 206 235 b 564 785 206 619 382 785 b 740 725 624 785 685 767 b 869 258 856 640 933 360 z "},"ớ":{"ha":656,"x_min":0,"x_max":0,"o":"m 517 976 b 468 1033 517 1015 497 1033 b 335 940 429 1033 376 1001 b 290 813 300 888 279 829 b 310 803 294 806 301 803 b 517 976 369 803 517 918 z m 294 663 b 132 528 261 619 188 560 b 115 169 25 465 17 289 b 251 104 151 126 199 104 b 493 226 326 104 413 146 b 561 531 629 363 639 401 b 572 826 518 601 724 639 b 528 839 564 836 542 839 b 468 765 486 839 444 799 b 472 661 518 689 513 661 b 433 667 461 661 449 664 b 356 706 379 679 375 706 b 294 663 335 706 317 690 z m 404 315 b 276 257 364 276 318 257 b 182 308 238 257 203 274 b 401 507 146 368 297 506 b 404 315 482 510 483 396 z "},"Ờ":{"ha":1110,"x_min":0,"x_max":0,"o":"m 414 1110 b 528 1063 457 1082 503 1063 b 542 1065 533 1063 539 1064 b 376 1292 589 1093 444 1292 b 414 1110 285 1292 307 1182 z m 533 954 b 258 785 458 954 389 908 b 53 406 92 628 53 556 b 308 35 53 225 138 101 b 436 17 340 22 385 17 b 954 163 611 17 867 82 b 899 774 1110 308 1064 575 b 886 1067 864 815 1038 897 b 844 1081 876 1076 857 1081 b 786 999 804 1081 761 1038 b 790 889 840 917 835 889 b 739 896 776 889 760 892 b 533 954 675 910 601 954 z m 869 258 b 588 178 854 232 726 196 b 447 168 535 171 488 168 b 206 396 269 168 206 235 b 564 785 206 619 382 785 b 740 725 624 785 685 767 b 869 258 856 640 933 360 z "},"ờ":{"ha":656,"x_min":0,"x_max":0,"o":"m 214 900 b 342 854 267 865 324 844 b 176 1082 389 883 244 1082 b 214 900 85 1082 107 971 z m 294 663 b 132 528 261 619 188 560 b 115 169 25 465 17 289 b 251 104 151 126 199 104 b 493 226 326 104 413 146 b 561 531 629 363 639 401 b 572 826 518 601 724 639 b 528 839 564 836 542 839 b 468 765 486 839 444 799 b 472 661 518 689 513 661 b 433 667 461 661 449 664 b 356 706 379 679 375 706 b 294 663 335 706 317 690 z m 404 315 b 276 257 364 276 318 257 b 182 308 238 257 203 274 b 401 507 146 368 297 506 b 404 315 482 510 483 396 z "},"Ở":{"ha":1110,"x_min":0,"x_max":0,"o":"m 357 1222 b 450 1260 393 1249 426 1260 b 463 1146 499 1260 517 1217 b 451 1069 431 1107 425 1085 b 475 1064 458 1065 467 1064 b 553 1311 551 1064 650 1232 b 443 1353 522 1336 485 1353 b 340 1315 410 1353 375 1343 b 357 1222 278 1268 342 1213 z m 533 954 b 258 785 458 954 389 908 b 53 406 92 628 53 556 b 308 35 53 225 138 101 b 436 17 340 22 385 17 b 954 163 611 17 867 82 b 899 774 1110 308 1064 575 b 886 1067 864 815 1038 897 b 844 1081 876 1076 857 1081 b 786 999 804 1081 761 1038 b 790 889 840 917 835 889 b 739 896 776 889 760 892 b 533 954 675 910 601 954 z m 869 258 b 588 178 854 232 726 196 b 447 168 535 171 488 168 b 206 396 269 168 206 235 b 564 785 206 619 382 785 b 740 725 624 785 685 767 b 869 258 856 640 933 360 z "},"ở":{"ha":656,"x_min":0,"x_max":0,"o":"m 140 908 b 225 943 172 932 203 943 b 236 839 269 943 286 903 b 226 768 207 803 201 779 b 253 763 235 764 244 763 b 319 990 338 763 419 908 b 219 1028 292 1013 256 1028 b 125 994 189 1028 156 1018 b 140 908 67 950 125 899 z m 294 663 b 132 528 261 619 188 560 b 115 169 25 465 17 289 b 251 104 151 126 199 104 b 493 226 326 104 413 146 b 561 531 629 363 639 401 b 572 826 518 601 724 639 b 528 839 564 836 542 839 b 468 765 486 839 444 799 b 472 661 518 689 513 661 b 433 667 461 661 449 664 b 356 706 379 679 375 706 b 294 663 335 706 317 690 z m 404 315 b 276 257 364 276 318 257 b 182 308 238 257 203 274 b 401 507 146 368 297 506 b 404 315 482 510 483 396 z "},"Ỡ":{"ha":1110,"x_min":0,"x_max":0,"o":"m 328 1131 b 413 1163 367 1151 392 1163 b 488 1118 438 1163 457 1149 b 596 1057 528 1076 563 1057 b 707 1138 633 1057 669 1083 b 710 1361 785 1247 785 1361 b 651 1286 676 1361 651 1328 b 585 1183 651 1219 625 1183 b 497 1226 560 1183 529 1197 b 365 1272 463 1257 414 1272 b 204 1185 294 1272 225 1240 b 232 1099 182 1129 193 1099 b 326 1131 254 1099 286 1110 z m 533 954 b 258 785 458 954 389 908 b 53 406 92 628 53 556 b 308 35 53 225 138 101 b 436 17 340 22 385 17 b 954 163 611 17 867 82 b 899 774 1110 308 1064 575 b 886 1067 864 815 1038 897 b 844 1081 876 1076 857 1081 b 786 999 804 1081 761 1038 b 790 889 840 917 835 889 b 739 896 776 889 760 892 b 533 954 675 910 601 954 z m 869 258 b 588 178 854 232 726 196 b 447 168 535 171 488 168 b 206 396 269 168 206 235 b 564 785 206 619 382 785 b 740 725 624 785 685 767 b 869 258 856 640 933 360 z "},"ỡ":{"ha":656,"x_min":0,"x_max":0,"o":"m 447 1067 b 410 1000 422 1064 417 1035 b 371 957 404 971 390 957 b 279 1003 350 957 319 974 b 193 1028 256 1019 224 1028 b 42 936 125 1028 56 992 b 68 868 31 892 42 868 b 147 904 88 868 113 881 b 221 940 181 928 201 940 b 282 910 239 940 256 931 b 383 867 317 882 351 867 b 489 944 425 867 461 892 b 447 1067 539 1040 511 1075 z m 294 663 b 132 528 261 619 188 560 b 115 169 25 465 17 289 b 251 104 151 126 199 104 b 493 226 326 104 413 146 b 561 531 629 363 639 401 b 572 826 518 601 724 639 b 528 839 564 836 542 839 b 468 765 486 839 444 799 b 472 661 518 689 513 661 b 433 667 461 661 449 664 b 356 706 379 679 375 706 b 294 663 335 706 317 690 z m 404 315 b 276 257 364 276 318 257 b 182 308 238 257 203 274 b 401 507 146 368 297 506 b 404 315 482 510 483 396 z "},"Ợ":{"ha":1110,"x_min":0,"x_max":0,"o":"m 763 -208 b 769 -89 794 -175 797 -131 b 699 -47 750 -61 726 -47 b 615 -82 674 -47 646 -58 b 599 -218 568 -118 581 -193 b 669 -262 619 -249 643 -262 b 763 -208 697 -262 729 -244 z m 533 954 b 258 785 458 954 389 908 b 53 406 92 628 53 556 b 308 35 53 225 138 101 b 436 17 340 22 385 17 b 954 163 611 17 867 82 b 899 774 1110 308 1064 575 b 886 1067 864 815 1038 897 b 844 1081 876 1076 857 1081 b 786 999 804 1081 761 1038 b 790 889 840 917 835 889 b 739 896 776 889 760 892 b 533 954 675 910 601 954 z m 869 258 b 588 178 854 232 726 196 b 447 168 535 171 488 168 b 206 396 269 168 206 235 b 564 785 206 619 382 785 b 740 725 624 785 685 767 b 869 258 856 640 933 360 z "},"ợ":{"ha":656,"x_min":0,"x_max":0,"o":"m 486 -89 b 493 17 514 -60 517 -21 b 431 53 476 42 454 53 b 356 22 408 53 383 43 b 342 -99 314 -10 325 -75 b 404 -137 360 -125 381 -137 b 486 -89 429 -137 457 -122 z m 294 663 b 132 528 261 619 188 560 b 115 169 25 465 17 289 b 251 104 151 126 199 104 b 493 226 326 104 413 146 b 561 531 629 363 639 401 b 572 826 518 601 724 639 b 528 839 564 836 542 839 b 468 765 486 839 444 799 b 472 661 518 689 513 661 b 433 667 461 661 449 664 b 356 706 379 679 375 706 b 294 663 335 706 317 690 z m 404 315 b 276 257 364 276 318 257 b 182 308 238 257 203 274 b 401 507 146 368 297 506 b 404 315 482 510 483 396 z "},"Ụ":{"ha":838,"x_min":0,"x_max":0,"o":"m 610 819 b 415 208 613 469 544 208 b 306 261 382 208 346 225 b 244 490 242 319 224 388 b 189 669 265 599 251 644 b 117 683 164 679 138 683 b 75 672 97 683 82 681 b 215 160 21 618 110 293 b 407 33 281 75 342 33 b 636 172 475 33 549 79 b 765 888 761 303 785 624 b 692 938 764 914 728 938 b 610 819 651 938 608 908 z m 676 -181 b 683 -61 708 -147 711 -101 b 613 -19 664 -32 640 -19 b 529 -54 588 -19 560 -31 b 513 -190 482 -90 494 -164 b 583 -235 533 -219 557 -235 b 676 -181 611 -235 643 -217 z "},"ụ":{"ha":925,"x_min":0,"x_max":0,"o":"m 844 368 b 822 622 833 486 824 601 b 743 661 821 643 786 661 b 667 536 696 661 667 613 b 319 215 667 407 447 215 b 283 221 307 215 294 217 b 260 436 197 254 185 363 b 235 586 294 471 286 521 b 160 656 199 633 178 656 b 108 610 143 656 129 639 b 157 151 25 485 49 260 b 300 57 219 89 254 57 b 513 157 346 57 403 90 b 676 226 588 201 643 226 b 707 207 693 226 703 219 b 794 151 718 176 757 151 b 844 368 843 151 857 211 z m 631 -142 b 638 -31 661 -111 664 -69 b 571 10 619 -4 597 10 b 493 -24 549 10 522 -1 b 478 -151 449 -57 461 -126 b 543 -193 497 -179 519 -193 b 631 -142 569 -193 599 -176 z "},"Ủ":{"ha":838,"x_min":0,"x_max":0,"o":"m 610 819 b 415 208 613 469 544 208 b 306 261 382 208 346 225 b 244 490 242 319 224 388 b 189 669 265 599 251 644 b 117 683 164 679 138 683 b 75 672 97 683 82 681 b 215 160 21 618 110 293 b 407 33 281 75 342 33 b 636 172 475 33 549 79 b 765 888 761 303 785 624 b 692 938 764 914 728 938 b 610 819 651 938 608 908 z m 264 1069 b 354 1106 299 1094 331 1106 b 367 994 401 1106 419 1063 b 356 921 336 957 331 936 b 378 915 363 917 371 915 b 454 1156 453 915 550 1079 b 347 1196 425 1181 388 1196 b 247 1160 315 1196 281 1185 b 264 1069 188 1113 249 1058 z "},"ủ":{"ha":925,"x_min":0,"x_max":0,"o":"m 844 368 b 822 622 833 486 824 601 b 743 661 821 643 786 661 b 667 536 696 661 667 613 b 319 215 667 407 447 215 b 283 221 307 215 294 217 b 260 436 197 254 185 363 b 235 586 294 471 286 521 b 160 656 199 633 178 656 b 108 610 143 656 129 639 b 157 151 25 485 49 260 b 300 57 219 89 254 57 b 513 157 346 57 403 90 b 676 226 588 201 643 226 b 707 207 693 226 703 219 b 794 151 718 176 757 151 b 844 368 843 151 857 211 z m 363 853 b 451 890 396 879 428 890 b 463 778 496 890 513 847 b 451 703 432 739 426 718 b 474 697 458 699 467 697 b 547 942 546 697 639 863 b 444 982 518 967 482 982 b 347 946 413 982 379 971 b 363 853 288 897 349 843 z "},"Ứ":{"ha":838,"x_min":0,"x_max":0,"o":"m 517 1064 b 468 1121 517 1103 496 1121 b 335 1028 429 1121 375 1089 b 289 900 299 975 279 917 b 310 890 293 893 300 890 b 517 1064 368 890 517 1006 z m 610 819 b 415 208 613 469 544 208 b 306 261 382 208 346 225 b 244 490 242 319 224 388 b 189 669 265 599 251 644 b 117 683 164 679 138 683 b 75 672 97 683 82 681 b 215 160 21 618 110 293 b 407 33 281 75 342 33 b 636 172 475 33 549 79 b 779 778 747 289 774 535 b 840 1106 781 835 1015 929 b 806 1119 831 1115 818 1119 b 744 1036 765 1119 719 1075 b 736 929 803 947 786 929 b 692 938 719 929 710 938 b 610 819 650 938 608 908 z "},"ứ":{"ha":925,"x_min":0,"x_max":0,"o":"m 638 913 b 589 969 638 951 618 969 b 456 875 551 969 497 936 b 411 749 421 822 400 765 b 431 739 415 742 422 739 b 638 913 490 739 638 854 z m 844 368 b 833 507 840 421 839 463 b 926 814 824 586 1106 563 b 893 826 921 822 908 826 b 804 747 842 826 761 785 b 804 651 882 682 850 653 b 743 661 786 651 768 661 b 667 536 696 661 667 613 b 319 215 667 407 447 215 b 283 221 307 215 294 217 b 260 436 197 254 185 363 b 235 586 294 471 286 521 b 160 656 199 633 178 656 b 108 610 143 656 129 639 b 157 151 25 485 49 260 b 300 57 219 89 254 57 b 513 157 346 57 403 90 b 676 226 588 201 643 226 b 707 207 693 226 703 219 b 794 151 718 176 757 151 b 844 368 843 151 857 211 z "},"Ừ":{"ha":838,"x_min":0,"x_max":0,"o":"m 272 968 b 386 921 315 940 361 921 b 399 924 392 921 396 922 b 235 1150 447 951 303 1150 b 272 968 143 1150 165 1040 z m 610 819 b 415 208 613 469 544 208 b 306 261 382 208 346 225 b 244 490 242 319 224 388 b 189 669 265 599 251 644 b 117 683 164 679 138 683 b 75 672 97 683 82 681 b 215 160 21 618 110 293 b 407 33 281 75 342 33 b 636 172 475 33 549 79 b 779 778 747 289 774 535 b 840 1106 781 835 1015 929 b 806 1119 831 1115 818 1119 b 744 1036 765 1119 719 1075 b 736 929 803 947 786 929 b 692 938 719 929 710 938 b 610 819 650 938 608 908 z "},"ừ":{"ha":925,"x_min":0,"x_max":0,"o":"m 364 813 b 490 767 417 778 474 757 b 326 994 538 796 394 994 b 364 813 235 994 257 883 z m 844 368 b 833 507 840 421 839 463 b 926 814 824 586 1106 563 b 893 826 921 822 908 826 b 804 747 842 826 761 785 b 804 651 882 682 850 653 b 743 661 786 651 768 661 b 667 536 696 661 667 613 b 319 215 667 407 447 215 b 283 221 307 215 294 217 b 260 436 197 254 185 363 b 235 586 294 471 286 521 b 160 656 199 633 178 656 b 108 610 143 656 129 639 b 157 151 25 485 49 260 b 300 57 219 89 254 57 b 513 157 346 57 403 90 b 676 226 588 201 643 226 b 707 207 693 226 703 219 b 794 151 718 176 757 151 b 844 368 843 151 857 211 z "},"Ử":{"ha":838,"x_min":0,"x_max":0,"o":"m 264 1069 b 354 1106 299 1094 331 1106 b 367 994 401 1106 419 1063 b 356 921 336 957 331 936 b 378 915 363 917 371 915 b 454 1156 453 915 550 1079 b 347 1196 425 1181 388 1196 b 247 1160 315 1196 281 1185 b 264 1069 188 1113 249 1058 z m 610 819 b 415 208 613 469 544 208 b 306 261 382 208 346 225 b 244 490 242 319 224 388 b 189 669 265 599 251 644 b 117 683 164 679 138 683 b 75 672 97 683 82 681 b 215 160 21 618 110 293 b 407 33 281 75 342 33 b 636 172 475 33 549 79 b 779 778 747 289 774 535 b 840 1106 781 835 1015 929 b 806 1119 831 1115 818 1119 b 744 1036 765 1119 719 1075 b 736 929 803 947 786 929 b 692 938 719 929 710 938 b 610 819 650 938 608 908 z "},"ử":{"ha":925,"x_min":0,"x_max":0,"o":"m 363 853 b 451 890 396 879 428 890 b 463 778 496 890 513 847 b 451 703 432 739 426 718 b 474 697 458 699 467 697 b 547 942 546 697 639 863 b 444 982 518 967 482 982 b 347 946 413 982 379 971 b 363 853 288 897 349 843 z m 844 368 b 833 507 840 421 839 463 b 926 814 824 586 1106 563 b 893 826 921 822 908 826 b 804 747 842 826 761 785 b 804 651 882 682 850 653 b 743 661 786 651 768 661 b 667 536 696 661 667 613 b 319 215 667 407 447 215 b 283 221 307 215 294 217 b 260 436 197 254 185 363 b 235 586 294 471 286 521 b 160 656 199 633 178 656 b 108 610 143 656 129 639 b 157 151 25 485 49 260 b 300 57 219 89 254 57 b 513 157 346 57 403 90 b 676 226 588 201 643 226 b 707 207 693 226 703 219 b 794 151 718 176 757 151 b 844 368 843 151 857 211 z "},"Ữ":{"ha":838,"x_min":0,"x_max":0,"o":"m 326 1028 b 431 969 364 989 399 969 b 558 1050 469 969 521 997 b 551 1260 633 1156 633 1260 b 483 1213 519 1260 483 1253 b 410 1100 483 1143 453 1100 b 335 1136 388 1100 363 1111 b 197 1182 301 1167 247 1182 b 54 1085 126 1182 38 1138 b 126 1019 69 1036 97 1019 b 258 1071 179 1019 242 1071 b 326 1028 279 1071 299 1056 z m 610 819 b 415 208 613 469 544 208 b 306 261 382 208 346 225 b 244 490 242 319 224 388 b 189 669 265 599 251 644 b 117 683 164 679 138 683 b 75 672 97 683 82 681 b 215 160 21 618 110 293 b 407 33 281 75 342 33 b 636 172 475 33 549 79 b 779 778 747 289 774 535 b 840 1106 781 835 1015 929 b 806 1119 831 1115 818 1119 b 744 1036 765 1119 719 1075 b 736 929 803 947 786 929 b 692 938 719 929 710 938 b 610 819 650 938 608 908 z "},"ữ":{"ha":925,"x_min":0,"x_max":0,"o":"m 315 775 b 382 799 346 790 365 799 b 454 750 407 799 424 781 b 554 697 489 715 522 697 b 667 775 593 697 631 724 b 650 947 733 871 719 947 b 585 903 622 947 585 938 b 536 810 585 842 568 810 b 464 849 517 810 493 822 b 336 894 431 879 382 894 b 206 824 278 894 224 871 b 231 747 186 774 197 747 b 315 775 251 747 279 757 z m 844 368 b 833 507 840 421 839 463 b 926 814 824 586 1106 563 b 893 826 921 822 908 826 b 804 747 842 826 761 785 b 804 651 882 682 850 653 b 743 661 786 651 768 661 b 667 536 696 661 667 613 b 319 215 667 407 447 215 b 283 221 307 215 294 217 b 260 436 197 254 185 363 b 235 586 294 471 286 521 b 160 656 199 633 178 656 b 108 610 143 656 129 639 b 157 151 25 485 49 260 b 300 57 219 89 254 57 b 513 157 346 57 403 90 b 676 226 588 201 643 226 b 707 207 693 226 703 219 b 794 151 718 176 757 151 b 844 368 843 151 857 211 z "},"Ự":{"ha":838,"x_min":0,"x_max":0,"o":"m 642 -196 b 649 -76 672 -162 676 -118 b 578 -35 629 -49 606 -35 b 494 -69 553 -35 525 -46 b 478 -206 447 -106 458 -179 b 549 -250 497 -235 522 -250 b 642 -196 576 -250 607 -232 z m 610 819 b 415 208 613 469 544 208 b 306 261 382 208 346 225 b 244 490 242 319 224 388 b 189 669 265 599 251 644 b 117 683 164 679 138 683 b 75 672 97 683 82 681 b 215 160 21 618 110 293 b 407 33 281 75 342 33 b 636 172 475 33 549 79 b 779 778 747 289 774 535 b 840 1106 781 835 1015 929 b 806 1119 831 1115 818 1119 b 744 1036 765 1119 719 1075 b 736 929 803 947 786 929 b 692 938 719 929 710 938 b 610 819 650 938 608 908 z "},"ự":{"ha":925,"x_min":0,"x_max":0,"o":"m 642 -132 b 649 -21 671 -100 675 -60 b 582 19 631 6 608 19 b 504 -14 560 19 533 8 b 489 -142 460 -47 472 -117 b 554 -183 508 -169 531 -183 b 642 -132 581 -183 610 -167 z m 844 368 b 833 507 840 421 839 463 b 926 814 824 586 1106 563 b 893 826 921 822 908 826 b 804 747 842 826 761 785 b 804 651 882 682 850 653 b 743 661 786 651 768 661 b 667 536 696 661 667 613 b 319 215 667 407 447 215 b 283 221 307 215 294 217 b 260 436 197 254 185 363 b 235 586 294 471 286 521 b 160 656 199 633 178 656 b 108 610 143 656 129 639 b 157 151 25 485 49 260 b 300 57 219 89 254 57 b 513 157 346 57 403 90 b 676 226 588 201 643 226 b 707 207 693 226 703 219 b 794 151 718 176 757 151 b 844 368 843 151 857 211 z "},"Ỳ":{"ha":694,"x_min":0,"x_max":0,"o":"m 240 122 b 167 -8 200 89 167 31 b 213 -75 167 -53 182 -75 b 304 -39 235 -75 265 -62 b 558 554 382 11 583 481 b 636 806 547 585 582 697 b 708 1028 690 914 722 1014 b 664 1046 696 1040 681 1046 b 490 839 599 1046 514 953 b 392 657 467 717 436 657 b 264 758 357 657 315 692 b 106 888 197 843 140 888 b 65 817 81 888 65 864 b 224 621 65 776 136 689 b 347 340 360 514 378 475 b 240 122 329 254 281 156 z m 264 1001 b 378 954 307 974 353 954 b 390 957 383 954 388 956 b 226 1183 439 985 294 1183 b 264 1001 135 1183 157 1074 z "},"ỳ":{"ha":686,"x_min":0,"x_max":0,"o":"m 521 507 b 432 393 481 507 442 456 b 314 278 421 317 381 278 b 196 393 247 278 207 317 b 96 506 185 465 136 506 b 33 422 63 506 33 479 b 315 150 33 297 186 150 b 454 -92 429 150 496 33 b 310 -156 443 -126 378 -156 b 186 -232 235 -156 186 -185 b 307 -307 186 -281 238 -307 b 496 -256 363 -307 432 -290 b 594 153 579 -211 594 -146 b 521 507 594 426 578 507 z m 268 668 b 394 622 321 633 378 613 b 231 850 442 651 299 850 b 268 668 139 850 161 739 z "},"Ỵ":{"ha":694,"x_min":0,"x_max":0,"o":"m 240 122 b 167 -8 200 89 167 31 b 213 -75 167 -53 182 -75 b 304 -39 235 -75 265 -62 b 558 554 382 11 583 481 b 636 806 547 585 582 697 b 708 1028 690 914 722 1014 b 664 1046 696 1040 681 1046 b 490 839 599 1046 514 953 b 392 657 467 717 436 657 b 264 758 357 657 315 692 b 106 888 197 843 140 888 b 65 817 81 888 65 864 b 224 621 65 776 136 689 b 347 340 360 514 378 475 b 240 122 329 254 281 156 z m 740 19 b 747 139 772 53 775 97 b 676 181 728 167 704 181 b 593 146 651 181 624 169 b 576 10 546 110 558 35 b 647 -35 597 -21 621 -35 b 740 19 675 -35 707 -17 z "},"ỵ":{"ha":686,"x_min":0,"x_max":0,"o":"m 521 507 b 432 393 481 507 442 456 b 314 278 421 317 381 278 b 196 393 247 278 207 317 b 96 506 185 465 136 506 b 33 422 63 506 33 479 b 315 150 33 297 186 150 b 454 -92 429 150 496 33 b 310 -156 443 -126 378 -156 b 186 -232 235 -156 186 -185 b 307 -307 186 -281 238 -307 b 496 -256 363 -307 432 -290 b 594 153 579 -211 594 -146 b 521 507 594 426 578 507 z m 842 -229 b 847 -124 869 -200 872 -161 b 786 -87 831 -99 810 -87 b 713 -118 764 -87 739 -97 b 699 -237 672 -150 682 -214 b 760 -276 717 -264 738 -276 b 842 -229 785 -276 813 -261 z "},"Ỷ":{"ha":694,"x_min":0,"x_max":0,"o":"m 240 122 b 167 -8 200 89 167 31 b 213 -75 167 -53 182 -75 b 304 -39 235 -75 265 -62 b 558 554 382 11 583 481 b 636 806 547 585 582 697 b 708 1028 690 914 722 1014 b 664 1046 696 1040 681 1046 b 490 839 599 1046 514 953 b 392 657 467 717 436 657 b 264 758 357 657 315 692 b 106 888 197 843 140 888 b 65 817 81 888 65 864 b 224 621 65 776 136 689 b 347 340 360 514 378 475 b 240 122 329 254 281 156 z m 243 1133 b 332 1168 276 1157 308 1168 b 342 1061 376 1168 393 1128 b 367 986 313 1025 339 992 b 375 985 369 986 372 985 b 428 1218 443 985 525 1138 b 325 1257 399 1242 364 1257 b 226 1221 293 1257 260 1246 b 243 1133 168 1175 228 1122 z "},"ỷ":{"ha":686,"x_min":0,"x_max":0,"o":"m 521 507 b 432 393 481 507 442 456 b 314 278 421 317 381 278 b 196 393 247 278 207 317 b 96 506 185 465 136 506 b 33 422 63 506 33 479 b 315 150 33 297 186 150 b 454 -92 429 150 496 33 b 310 -156 443 -126 378 -156 b 186 -232 235 -156 186 -185 b 307 -307 186 -281 238 -307 b 496 -256 363 -307 432 -290 b 594 153 579 -211 594 -146 b 521 507 594 426 578 507 z m 224 700 b 311 735 257 724 288 735 b 322 631 356 735 371 696 b 311 561 292 594 288 575 b 333 556 318 557 325 556 b 406 782 404 556 496 710 b 304 819 378 806 342 819 b 208 786 272 819 240 810 b 224 700 150 742 210 690 z "},"Ỹ":{"ha":694,"x_min":0,"x_max":0,"o":"m 240 122 b 167 -8 200 89 167 31 b 213 -75 167 -53 182 -75 b 304 -39 235 -75 265 -62 b 558 554 382 11 583 481 b 636 806 547 585 582 697 b 708 1028 690 914 722 1014 b 664 1046 696 1040 681 1046 b 490 839 599 1046 514 953 b 392 657 467 717 436 657 b 264 758 357 657 315 692 b 106 888 197 843 140 888 b 65 817 81 888 65 864 b 224 621 65 776 136 689 b 347 340 360 514 378 475 b 240 122 329 254 281 156 z m 179 1124 b 274 1149 226 1138 251 1149 b 339 1111 294 1149 311 1139 b 439 1054 378 1072 408 1054 b 558 1131 475 1054 511 1082 b 567 1325 644 1219 642 1325 b 503 1279 533 1325 503 1321 b 436 1176 503 1213 476 1176 b 349 1219 411 1176 381 1190 b 240 1261 317 1249 278 1261 b 92 1165 176 1261 114 1225 b 101 1103 74 1118 81 1103 b 179 1124 119 1103 147 1114 z "},"ỹ":{"ha":686,"x_min":0,"x_max":0,"o":"m 521 507 b 432 393 481 507 442 456 b 314 278 421 317 381 278 b 196 393 247 278 207 317 b 96 506 185 465 136 506 b 33 422 63 506 33 479 b 315 150 33 297 186 150 b 454 -92 429 150 496 33 b 310 -156 443 -126 378 -156 b 186 -232 235 -156 186 -185 b 307 -307 186 -281 238 -307 b 496 -256 363 -307 432 -290 b 594 153 579 -211 594 -146 b 521 507 594 426 578 507 z m 179 656 b 240 676 207 671 225 676 b 307 632 264 676 279 661 b 399 582 339 599 369 582 b 500 654 435 582 468 607 b 493 786 563 744 554 767 b 469 790 486 789 478 790 b 425 758 447 790 425 781 b 389 682 425 706 413 682 b 315 725 371 682 346 697 b 199 768 285 754 240 768 b 79 701 146 768 96 746 b 101 629 61 654 71 629 b 179 656 121 629 146 638 z "},"–":{"ha":794,"x_min":0,"x_max":0,"o":"m 703 508 b 472 539 685 526 589 539 b 368 536 439 539 404 539 b 69 446 156 525 72 500 b 192 385 68 401 93 385 b 361 393 233 385 289 388 b 703 508 689 418 763 442 z "},"—":{"ha":1025,"x_min":0,"x_max":0,"o":"m 76 482 b 140 403 63 428 78 403 b 307 431 178 403 232 413 b 425 440 338 438 379 440 b 707 407 514 440 621 429 b 882 376 788 386 844 376 b 939 414 924 376 942 389 b 392 571 931 510 635 571 b 76 482 231 571 93 544 z "},"‘":{"ha":418,"x_min":0,"x_max":0,"o":"m 264 833 b 167 971 218 931 186 983 b 303 615 67 904 224 589 b 264 833 360 633 361 629 z "},"’":{"ha":417,"x_min":0,"x_max":0,"o":"m 175 971 b 214 753 117 953 117 957 b 311 615 260 656 292 603 b 175 971 411 682 254 996 z "},"“":{"ha":557,"x_min":0,"x_max":0,"o":"m 158 971 b 294 615 58 904 215 590 b 256 833 351 633 353 629 b 158 971 210 931 178 983 z m 438 853 b 324 1024 386 911 336 988 b 269 1088 311 1065 290 1088 b 231 1061 256 1088 242 1079 b 260 933 222 1046 225 978 b 322 825 294 890 322 840 b 478 721 322 781 426 721 b 496 725 485 721 492 722 b 438 853 518 739 497 785 z "},"”":{"ha":551,"x_min":0,"x_max":0,"o":"m 332 1088 b 371 869 274 1068 274 1074 b 468 732 417 772 449 719 b 332 1088 568 797 411 1113 z m 303 878 b 149 981 303 921 201 981 b 129 976 142 981 135 979 b 188 850 107 963 128 918 b 301 678 239 792 290 714 b 357 614 315 636 336 614 b 394 642 369 614 383 622 b 367 768 404 657 400 725 b 303 878 332 813 303 861 z "},"„":{"ha":669,"x_min":0,"x_max":0,"o":"m 238 372 b 206 383 228 381 217 383 b 153 347 183 383 161 369 b 35 31 115 250 40 54 b 65 -6 29 13 40 -6 b 221 121 97 -6 151 25 b 238 372 314 251 286 332 z m 519 392 b 486 404 510 400 499 404 b 435 368 464 404 443 390 b 317 50 397 269 322 74 b 347 14 311 32 322 14 b 503 140 379 14 433 44 b 519 392 596 272 568 351 z "},"†":{"ha":1183,"x_min":0,"x_max":0,"o":"m 879 986 b 764 957 826 968 790 957 b 676 1058 721 957 703 986 b 578 1179 646 1139 607 1179 b 524 1056 546 1179 524 1138 b 319 928 524 942 503 928 b 117 846 167 928 117 908 b 208 783 117 804 144 783 b 472 832 265 783 351 800 b 561 646 536 849 556 722 b 599 93 579 351 596 103 b 617 88 600 90 607 88 b 669 99 629 88 649 92 b 710 447 714 114 726 214 b 704 649 697 626 706 536 b 790 842 703 808 703 842 b 885 836 815 842 846 839 b 1132 900 1003 826 1090 849 b 1053 1021 1194 974 1150 1021 b 879 986 1006 1021 946 1010 z "},"‡":{"ha":1160,"x_min":0,"x_max":0,"o":"m 644 856 b 818 894 690 876 758 892 b 1144 1025 1057 906 1144 940 b 1075 1082 1144 1063 1128 1082 b 754 1013 1018 1082 919 1060 b 696 1001 731 1006 711 1001 b 626 1100 653 1001 636 1031 b 565 1206 617 1171 592 1206 b 492 1068 535 1206 503 1157 b 381 939 481 982 444 939 b 125 807 232 939 125 883 b 190 739 125 761 150 739 b 365 813 233 739 294 764 b 408 839 382 824 396 832 b 428 843 415 842 421 843 b 468 810 447 843 465 831 b 476 750 471 790 474 771 b 465 564 479 724 490 575 b 461 561 464 563 463 563 b 242 465 417 539 318 496 b 101 358 164 435 101 388 b 172 308 101 324 131 308 b 361 388 228 308 304 336 b 467 442 401 424 436 442 b 560 236 525 442 560 371 b 593 35 560 143 575 53 b 678 -4 619 8 651 -4 b 740 90 726 -4 761 33 b 675 326 721 139 692 246 b 706 457 656 425 650 457 b 832 439 732 457 772 450 b 950 424 883 429 921 424 b 1018 476 1000 424 1018 440 b 699 585 1018 528 854 572 b 614 772 664 586 613 739 l 617 815 b 644 856 617 833 628 849 z "},"…":{"ha":1144,"x_min":0,"x_max":0,"o":"m 468 282 b 450 138 418 243 431 165 b 526 89 472 106 499 89 b 625 146 557 89 590 108 b 633 272 658 183 663 231 b 557 319 613 304 586 319 b 468 282 531 319 501 307 z m 83 272 b 65 128 33 233 46 156 b 142 79 88 96 114 79 b 240 136 172 79 206 99 b 249 263 274 174 278 221 b 172 310 228 293 201 310 b 83 272 146 310 115 297 z m 1018 283 b 942 329 997 314 972 329 b 853 292 915 329 886 317 b 835 147 803 254 815 175 b 911 99 857 115 883 99 b 1010 156 942 99 975 118 b 1018 283 1043 193 1047 240 z "},"‰":{"ha":1619,"x_min":0,"x_max":0,"o":"m 1553 844 b 1340 983 1515 940 1432 983 b 1008 676 1185 983 1008 860 b 1097 474 1008 586 1044 504 b 1201 425 1153 442 1175 425 b 1332 475 1228 425 1258 442 b 1553 844 1478 542 1594 736 z m 1385 685 b 1217 578 1351 631 1283 578 b 1206 790 1114 578 1101 686 b 1319 867 1257 842 1290 867 b 1376 835 1339 867 1357 856 b 1385 685 1422 789 1425 749 z m 217 924 b 350 853 281 878 313 853 b 572 979 394 853 446 892 b 682 1208 757 1107 763 1118 b 464 1303 635 1260 536 1303 b 103 1074 306 1303 103 1174 b 217 924 103 1035 154 967 z m 490 1181 b 510 1072 557 1154 561 1133 b 369 997 469 1024 415 997 b 285 1042 335 997 303 1013 b 449 1188 247 1101 358 1188 b 490 1181 464 1188 478 1185 z m 1215 1119 b 1307 1303 1382 1206 1431 1303 b 868 1079 1172 1303 868 1147 b 460 643 868 1042 683 846 b 115 117 64 286 -17 163 b 179 106 138 110 158 106 b 297 226 254 106 310 156 b 1215 1119 282 322 971 993 z m 828 472 b 757 482 801 479 778 482 b 565 378 692 482 639 451 b 496 142 458 271 447 233 b 650 39 533 72 586 39 b 888 153 718 39 799 76 b 828 472 1051 294 1028 422 z m 846 281 b 665 192 826 222 724 192 b 613 246 618 192 600 210 b 796 335 632 306 736 335 b 846 281 842 335 857 317 z "},"‹":{"ha":465,"x_min":0,"x_max":0,"o":"m 285 432 b 267 589 208 493 208 499 b 281 756 340 700 344 756 b 83 460 242 756 185 671 b 163 399 76 446 113 418 b 256 326 214 379 256 346 b 310 289 256 306 281 289 b 285 432 388 289 375 358 z "},"›":{"ha":456,"x_min":0,"x_max":0,"o":"m 356 610 l 278 683 b 153 764 218 739 181 764 b 122 750 140 764 131 758 b 183 629 94 721 110 689 l 260 568 b 264 525 272 557 275 539 l 210 456 b 138 324 169 404 138 346 b 164 282 138 296 147 282 b 310 431 197 282 257 339 l 367 531 b 356 610 382 557 376 589 z "},"№":{"ha":2168,"x_min":0,"x_max":0,"o":"m 1499 510 b 1604 456 1554 472 1575 456 b 1732 497 1629 456 1661 469 b 1974 854 1882 556 2010 744 b 1753 1006 1940 958 1851 1006 b 1421 717 1601 1006 1431 894 b 1499 510 1415 626 1447 543 z m 1624 821 b 1739 889 1676 868 1710 889 b 1797 856 1760 889 1778 878 b 1796 704 1840 806 1840 767 b 1631 607 1760 653 1696 607 b 1624 821 1521 607 1513 721 z m 1804 324 b 1463 154 1533 313 1411 251 b 1518 122 1475 132 1493 122 b 1593 143 1538 122 1563 129 b 1872 178 1647 168 1772 183 b 2058 250 2006 171 2054 190 b 1804 324 2063 319 2019 332 z m 1081 926 b 1051 933 1068 931 1058 933 b 1042 831 1024 933 1024 904 b 1038 379 1110 564 1108 374 b 456 735 908 388 572 594 b 257 879 378 831 304 879 b 215 776 219 879 201 846 b 128 321 228 717 188 513 b 43 -53 68 131 31 -37 b 85 -75 57 -68 71 -75 b 249 194 135 -75 190 17 b 307 533 292 331 318 483 b 339 617 293 589 306 617 b 547 483 379 617 454 572 b 1093 233 676 363 968 233 b 1135 242 1110 233 1125 236 b 1081 926 1279 321 1236 865 z "},"™":{"ha":2082,"x_min":0,"x_max":0,"o":"m 1696 1275 b 1500 1194 1638 1275 1549 1239 b 1410 1143 1463 1161 1439 1143 b 1258 1226 1376 1143 1335 1169 b 1072 1311 1182 1282 1122 1311 b 900 1160 1006 1311 954 1263 b 919 899 842 1050 844 1014 b 1061 760 982 804 1032 760 b 1047 993 1101 760 1104 843 b 1088 1165 1004 1106 1031 1165 b 1285 1028 1138 1165 1211 1121 b 1450 876 1365 926 1413 876 b 1549 999 1485 876 1511 918 b 1706 1117 1585 1078 1646 1117 b 1863 969 1774 1117 1839 1067 b 1982 842 1881 889 1935 842 b 2050 899 2011 842 2038 860 b 1696 1275 2081 990 1813 1275 z m 265 1261 b 29 1154 106 1239 29 1204 b 97 1096 29 1114 50 1096 b 160 1103 114 1096 135 1099 b 206 1107 175 1106 190 1107 b 436 911 325 1107 436 1018 b 526 753 436 874 476 803 b 604 690 568 711 590 690 b 632 753 619 690 625 711 b 568 964 642 800 613 896 b 615 1142 461 1126 465 1142 b 743 1218 694 1142 743 1169 b 592 1292 743 1268 704 1292 b 265 1261 518 1292 413 1282 z "},"∂":{"ha":1040,"x_min":0,"x_max":0,"o":"m 936 781 b 471 1133 894 1028 756 1133 b 96 1006 214 1133 96 1093 b 235 958 96 972 133 958 b 428 968 283 958 347 961 b 622 979 511 975 575 979 b 754 840 757 979 768 946 b 700 815 751 819 726 808 b 674 818 692 818 683 818 b 250 290 519 818 250 493 b 329 74 249 233 285 136 b 519 -42 385 -6 451 -42 b 936 782 751 -42 1006 367 z m 789 515 b 704 210 771 400 732 263 b 531 113 672 149 597 113 b 436 147 494 113 460 124 b 551 576 357 228 413 438 b 756 724 649 674 715 724 b 789 515 803 724 811 654 z "},"∑":{"ha":1150,"x_min":0,"x_max":0,"o":"m 96 1242 b 35 1249 72 1247 51 1249 b 107 1079 -74 1249 -47 1156 b 388 826 168 1049 294 935 l 557 631 l 276 369 b 232 -14 -26 88 -37 -10 b 675 -82 321 -15 521 -46 b 961 -128 801 -112 894 -128 b 1082 -56 1043 -128 1082 -103 b 574 92 1082 3 1046 14 l 193 154 l 392 326 b 656 497 500 421 619 497 b 550 840 804 497 768 613 b 318 1108 422 974 318 1094 b 624 1283 318 1124 456 1201 b 929 1500 792 1365 929 1464 b 888 1563 929 1540 918 1563 b 538 1389 836 1563 733 1508 b 160 1235 353 1278 251 1235 b 96 1242 139 1235 118 1238 z "},"∫":{"ha":539,"x_min":0,"x_max":0,"o":"m 394 1258 b 471 1401 435 1260 499 1349 b 407 1449 454 1435 432 1449 b 201 1296 351 1449 278 1381 b 182 818 99 1183 113 1100 b 272 392 226 639 267 447 b 196 215 286 254 251 225 b 61 47 85 196 57 115 b 132 -11 63 8 94 -11 b 183 0 149 -11 167 -8 b 354 793 454 122 478 388 b 292 1171 303 958 290 1144 b 394 1258 293 1222 338 1254 z "},"≠":{"ha":1046,"x_min":0,"x_max":0,"o":"m 810 764 b 992 815 910 764 992 788 b 833 867 992 843 921 867 b 713 956 703 867 682 882 b 739 1218 793 1154 803 1218 b 608 1044 632 1218 610 1139 b 468 844 607 926 575 882 b 436 714 304 786 286 714 b 401 571 568 714 539 592 b 75 432 147 533 75 501 b 161 357 75 385 117 357 b 253 407 196 357 232 374 b 347 461 276 444 314 461 b 411 378 393 461 431 429 b 408 250 394 333 393 275 b 517 204 425 225 474 204 b 567 315 574 204 588 236 b 718 535 532 451 592 535 b 793 526 742 535 767 532 b 876 515 828 519 856 515 b 940 583 925 515 940 536 b 857 657 940 635 918 657 b 806 653 842 657 825 656 b 649 700 729 644 660 665 b 810 764 633 744 686 764 z "},"≤":{"ha":715,"x_min":0,"x_max":0,"o":"m 597 401 b 476 457 578 432 524 457 b 315 506 429 458 357 479 b 354 674 251 546 258 571 b 390 915 485 814 500 915 b 314 871 349 915 314 896 b 186 639 314 847 257 743 b 254 354 40 424 57 356 b 467 306 329 353 425 332 b 532 285 489 292 511 285 b 597 401 593 285 636 339 z m 347 151 b 97 28 125 151 24 101 b 225 1 115 10 165 1 b 557 88 357 1 542 40 b 347 151 571 132 508 151 z "},"≥":{"ha":806,"x_min":0,"x_max":0,"o":"m 351 485 b 297 319 299 426 275 356 b 321 307 303 311 311 307 b 572 631 396 307 575 524 b 164 936 571 704 260 936 b 154 782 107 936 99 783 b 318 685 175 782 249 738 b 351 485 442 590 442 585 z m 526 201 b 182 39 231 142 182 119 b 233 -18 182 0 197 -18 b 297 -7 250 -18 271 -14 b 551 56 360 11 475 39 b 692 161 629 72 692 119 b 628 214 692 197 675 214 b 526 201 603 214 569 210 z "},"":{"ha":1085,"x_min":0,"x_max":0,"o":"m 365 1089 b 267 860 283 1089 267 1053 b 153 517 267 690 238 601 b 29 210 79 443 35 332 b 104 14 24 78 54 14 b 310 243 157 14 233 90 b 567 510 399 421 486 510 b 776 249 647 510 719 422 b 953 39 818 121 894 39 b 1007 72 974 39 993 49 b 925 281 1024 100 986 193 b 867 529 835 407 824 458 b 768 682 932 633 900 682 b 675 738 717 682 675 707 b 365 1089 675 847 463 1089 z m 215 224 b 165 300 188 224 165 257 b 215 376 165 342 188 376 b 267 300 244 376 267 342 b 215 224 267 257 244 224 z m 556 608 b 463 529 536 558 497 529 b 406 567 440 529 419 542 b 435 917 375 624 397 879 b 449 922 439 921 443 922 b 556 608 501 922 588 692 z "},"":{"ha":1333,"x_min":0,"x_max":0,"o":"m 288 990 b 101 613 136 843 101 772 b 72 340 101 504 89 382 b 228 136 38 249 140 136 b 285 156 249 136 268 142 b 311 329 368 226 376 329 b 279 322 303 329 292 326 b 246 315 267 318 256 315 b 203 350 221 315 203 328 b 254 407 203 381 226 407 b 304 619 282 407 304 501 b 563 1018 304 849 414 1018 b 543 572 744 1018 735 785 b 514 408 458 478 456 408 b 613 446 538 408 571 419 b 972 507 675 486 839 507 b 1171 463 1082 507 1171 493 b 660 100 1171 358 807 100 b 508 24 560 100 508 75 b 615 -61 508 -33 550 -61 b 1021 135 719 -61 883 11 b 1239 586 1301 388 1346 479 b 1056 654 1193 632 1138 654 b 958 646 1026 654 994 651 b 867 639 925 642 894 639 b 763 738 738 639 676 683 b 701 1092 856 794 818 1010 b 543 1163 636 1138 589 1163 b 288 990 476 1163 411 1110 z "},"":{"ha":1135,"x_min":0,"x_max":0,"o":"m 1047 185 b 985 222 1033 213 1010 222 b 913 201 961 222 936 214 b 846 193 900 196 876 193 b 463 253 750 193 585 218 b 403 690 128 349 115 449 b 632 850 510 781 593 850 b 653 782 653 850 661 829 b 674 635 638 685 649 635 b 792 815 701 635 744 693 b 706 1071 853 978 814 1071 b 522 1014 657 1071 594 1053 b 40 436 321 907 44 575 b 882 32 33 139 638 32 b 1047 185 1046 32 1101 83 z "},"":{"ha":1129,"x_min":0,"x_max":0,"o":"m 208 142 b 315 18 253 74 301 18 b 893 350 415 18 718 192 b 999 888 1129 564 1161 725 b 554 1085 868 1018 707 1085 b 217 953 431 1085 313 1042 b 100 542 82 828 74 797 b 208 142 115 390 164 210 z m 281 813 b 529 936 325 911 375 936 b 940 646 786 936 961 813 b 688 344 931 564 840 457 b 447 206 554 246 493 206 b 371 249 419 206 399 221 b 281 813 261 358 213 663 z "},"":{"ha":1063,"x_min":0,"x_max":0,"o":"m 553 913 b 607 907 571 908 589 907 b 804 1057 750 907 894 1003 b 672 1086 771 1078 725 1086 b 89 751 413 1086 -14 876 b 132 592 119 714 139 642 b 357 129 115 485 208 293 b 638 17 425 56 529 17 b 892 94 726 17 817 42 b 932 368 1021 186 1036 282 b 881 397 910 386 893 397 b 843 311 861 397 851 371 b 647 165 829 213 744 165 b 350 349 533 165 404 229 b 550 608 271 522 307 569 b 779 685 661 625 764 660 b 669 763 810 735 754 763 b 492 726 617 763 553 751 b 356 689 431 701 388 689 b 275 725 322 689 299 701 b 496 918 196 806 340 918 b 553 913 515 918 533 917 z "},"":{"ha":696,"x_min":0,"x_max":0,"o":"m 203 49 b 281 -14 214 14 249 -14 b 308 265 324 -14 331 67 b 358 556 285 460 301 556 b 465 489 385 556 421 533 b 561 456 488 467 524 456 b 613 464 579 456 597 458 b 421 643 733 511 640 597 b 250 828 274 672 250 699 b 547 994 250 976 256 979 b 821 1071 750 1006 836 1029 b 508 1118 810 1103 665 1118 b 111 1064 335 1118 147 1099 b 203 49 79 1032 151 228 z "},"":{"ha":1249,"x_min":0,"x_max":0,"o":"m 942 717 b 556 613 835 676 661 629 b 365 506 438 592 365 551 b 474 433 365 458 419 433 b 581 492 519 433 567 451 b 640 528 589 515 610 528 b 697 515 657 528 676 524 b 647 353 786 481 782 468 b 378 232 554 272 458 232 b 214 326 307 232 247 264 b 322 713 135 474 146 513 b 554 872 425 831 479 872 b 622 864 575 872 597 869 b 693 856 649 858 672 856 b 760 1028 811 856 851 935 b 669 1076 726 1060 703 1076 b 497 1017 632 1076 583 1057 b 161 176 100 828 -69 407 b 396 78 226 111 314 78 b 569 151 464 78 528 103 b 694 224 610 200 653 224 b 824 126 743 224 789 192 b 964 25 858 61 918 25 b 1028 94 1000 25 1028 47 b 949 231 1028 133 992 194 b 885 428 904 267 876 354 b 1065 575 897 535 931 563 b 1232 661 1165 585 1232 619 b 1135 764 1232 731 1201 764 b 942 717 1089 764 1025 749 z "},"":{"ha":1157,"x_min":0,"x_max":0,"o":"m 778 733 b 581 522 775 613 743 578 b 429 481 510 497 463 481 b 318 764 363 481 353 550 b 207 954 297 889 260 954 b 221 585 128 954 131 888 b 142 496 240 521 218 496 b 138 307 11 496 10 469 b 240 51 194 235 240 121 b 289 -54 240 -15 258 -54 b 368 153 356 -54 368 110 b 610 410 368 371 369 372 b 724 422 658 417 694 422 b 879 254 804 422 825 383 b 981 110 921 154 950 110 b 1015 129 992 110 1003 117 b 1006 317 1060 174 1057 219 b 1022 538 946 426 949 457 b 1000 988 1135 663 1129 779 b 851 1157 932 1099 885 1157 b 778 733 801 1157 785 1024 z m 996 735 b 932 649 1006 683 979 649 b 851 756 885 649 851 693 b 907 840 851 813 876 840 b 996 735 942 840 982 803 z "},"":{"ha":383,"x_min":0,"x_max":0,"o":"m 186 1006 b 118 585 121 1006 108 935 b 150 124 124 354 138 146 b 203 99 158 108 181 99 b 231 103 213 99 221 100 b 268 967 279 118 300 597 b 186 1006 267 988 229 1006 z "},"":{"ha":1078,"x_min":0,"x_max":0,"o":"m 1108 960 b 825 1088 1160 1044 1133 1056 b 569 1101 739 1097 651 1101 b 64 979 292 1101 64 1051 b 153 925 64 942 85 925 b 308 939 189 925 240 929 b 439 949 358 946 401 949 b 692 576 631 949 681 857 b 575 239 699 381 679 322 b 456 167 515 190 482 167 b 392 218 433 167 417 183 b 331 272 365 254 349 272 b 268 222 314 272 296 256 b 235 69 233 181 218 111 b 354 3 253 22 297 3 b 783 283 489 3 696 121 b 779 831 861 431 860 733 b 844 947 721 900 754 947 b 947 932 874 947 908 942 b 1011 924 969 926 992 924 b 1108 960 1057 924 1094 936 z "},"":{"ha":1267,"x_min":0,"x_max":0,"o":"m 117 981 b 107 800 82 981 82 933 b 156 501 128 692 150 557 b 229 182 161 444 194 301 b 343 -35 264 63 314 -35 b 388 250 432 -35 457 121 b 349 400 351 318 333 385 b 717 243 364 415 529 344 b 1119 92 903 142 1039 92 b 1206 167 1176 92 1206 117 b 1065 253 1206 196 1142 233 b 543 496 919 288 543 464 b 747 763 543 507 635 626 b 886 1138 954 1013 1001 1138 b 626 832 851 1138 735 1000 b 393 526 518 664 413 526 b 226 853 347 526 247 722 b 117 981 219 903 175 981 z "},"":{"ha":1056,"x_min":0,"x_max":0,"o":"m 497 342 b 369 297 443 313 401 297 b 263 640 293 297 274 392 b 156 1061 251 913 211 1061 b 110 1033 140 1061 126 1053 b 140 513 86 1006 100 772 b 251 42 181 254 231 42 b 353 117 274 42 318 75 b 715 250 388 157 550 218 b 1017 383 918 290 1017 333 b 942 439 1017 421 999 439 b 497 342 842 439 575 382 z "},"":{"ha":1343,"x_min":0,"x_max":0,"o":"m 1208 676 b 1253 875 1339 836 1344 856 b 1022 717 1213 883 1108 813 b 810 554 940 625 847 554 b 475 833 765 554 514 796 b 142 1114 326 979 176 1106 b 111 913 57 1132 38 1007 b 178 260 172 835 193 628 b 242 50 172 139 197 60 b 321 519 339 29 360 157 b 326 814 304 683 307 814 b 486 653 350 808 421 736 b 839 408 597 510 750 408 b 892 428 861 408 879 414 b 963 465 917 454 942 465 b 1010 361 1000 465 1024 426 b 1186 -12 982 232 1106 -12 b 1207 -7 1194 -12 1200 -11 b 1210 140 1251 22 1253 67 b 1208 676 1093 342 1093 536 z "},"":{"ha":1285,"x_min":0,"x_max":0,"o":"m 1028 1039 b 1013 757 935 1054 933 1010 b 968 260 1089 515 1068 276 b 415 724 861 240 593 465 b 174 971 301 889 222 971 b 114 804 135 971 115 915 b 110 431 113 704 111 536 b 200 61 110 382 118 61 b 244 81 213 61 228 68 b 263 397 294 115 299 196 b 250 692 236 546 231 678 b 465 468 269 706 367 606 b 963 126 629 243 817 126 b 1207 376 1085 126 1179 208 b 1028 1039 1236 551 1108 1025 z "},"":{"ha":1210,"x_min":0,"x_max":0,"o":"m 947 896 b 646 1010 838 971 740 1010 b 281 817 525 1010 411 946 b 133 218 22 558 -21 382 b 369 93 197 150 304 93 b 1078 454 544 93 910 279 b 947 896 1246 631 1224 708 z m 767 388 b 358 254 599 296 458 254 b 338 722 150 254 111 435 b 496 854 406 810 461 854 b 539 774 524 854 539 828 b 554 717 539 735 540 717 b 636 778 567 717 590 736 b 744 840 682 819 710 840 b 893 782 778 840 819 821 b 767 388 1113 669 1076 557 z "},"":{"ha":1031,"x_min":0,"x_max":0,"o":"m 369 -112 b 425 -150 388 -137 407 -150 b 469 -128 440 -150 456 -142 b 436 144 503 -94 492 -3 b 351 399 389 265 351 381 b 544 486 351 418 439 457 b 1049 969 775 547 1093 853 b 500 1253 999 1096 699 1253 b 85 915 301 1253 97 1088 b 369 -112 75 796 303 -22 z m 278 654 b 283 1025 214 864 215 957 b 538 1100 336 1076 433 1100 b 913 926 717 1100 913 1031 b 710 725 913 889 821 799 b 381 593 579 639 461 593 b 278 654 328 593 290 613 z "},"":{"ha":1601,"x_min":0,"x_max":0,"o":"m 1310 914 b 932 1025 1207 944 1038 994 b 782 1056 868 1044 824 1056 b 538 946 713 1056 654 1024 b 26 332 333 811 26 442 b 106 161 26 300 63 224 b 386 47 158 86 260 47 b 814 160 511 47 661 85 l 1044 271 l 1172 150 b 1307 63 1238 89 1275 63 b 1365 96 1328 63 1344 74 b 1371 183 1410 143 1411 168 b 1222 272 1340 194 1274 235 b 1278 418 1133 336 1138 346 b 1524 601 1361 461 1471 543 b 1310 914 1646 736 1578 833 z m 944 522 b 754 678 944 586 819 678 b 783 503 683 678 679 588 b 629 228 949 368 918 314 b 329 150 483 185 349 150 b 200 389 254 150 172 301 b 621 847 236 504 449 735 b 743 907 681 888 717 907 b 810 858 768 907 786 890 b 961 801 842 817 910 792 b 1049 810 988 807 1017 810 b 1400 694 1203 810 1403 751 b 1010 428 1397 621 1103 428 b 944 522 969 428 944 490 z "},"":{"ha":1383,"x_min":0,"x_max":0,"o":"m 257 415 b 236 613 313 415 304 506 b 267 860 181 703 207 860 b 289 853 274 860 281 858 b 349 365 358 810 408 403 b 422 68 314 344 342 238 b 619 -197 504 -101 582 -197 b 629 -56 646 -197 653 -153 b 567 364 560 228 539 364 b 769 261 582 364 674 318 b 1192 144 897 186 1071 144 b 1340 211 1279 144 1340 165 b 1118 296 1340 267 1278 290 b 868 488 847 307 738 392 b 958 656 918 524 958 599 b 638 965 958 769 847 876 b 415 1022 550 1003 479 1022 b 179 924 333 1022 263 990 b 133 619 49 822 49 821 b 257 415 181 507 236 417 z m 488 874 b 794 601 640 874 813 721 b 638 471 783 518 707 471 b 521 551 586 471 539 496 b 444 733 504 603 471 685 b 488 874 379 856 385 874 z "},"":{"ha":781,"x_min":0,"x_max":0,"o":"m 572 918 b 701 1079 725 946 788 1025 b 643 1093 685 1089 665 1093 b 292 825 528 1093 350 967 b 442 393 221 656 296 439 b 546 288 499 375 546 326 b 318 175 546 219 435 175 b 163 206 264 175 208 185 b 64 78 6 276 -72 178 b 243 10 115 40 196 10 b 700 214 400 10 650 122 b 560 458 739 289 713 335 b 421 756 386 597 374 624 b 572 918 449 836 517 908 z "},"":{"ha":992,"x_min":0,"x_max":0,"o":"m 1026 988 b 785 1068 1026 1044 964 1065 b -86 1194 526 1072 111 1132 b -161 1211 -119 1206 -144 1211 b -189 1139 -193 1211 -199 1189 b -6 1003 -178 1083 -103 1028 b 161 885 88 979 161 926 b 211 810 161 843 183 810 b 263 886 240 810 263 844 b 390 963 263 933 311 963 b 517 692 510 963 517 947 b 596 157 517 543 553 301 b 749 -108 644 -6 703 -108 b 749 172 840 -108 840 -83 b 672 644 708 285 674 497 l 671 911 l 849 911 b 1026 988 974 911 1026 935 z "},"":{"ha":1026,"x_min":0,"x_max":0,"o":"m 547 272 b 276 618 404 272 314 388 b 139 824 265 692 233 824 b 292 233 -1 824 86 465 b 538 118 363 154 449 118 b 963 547 728 118 924 286 b 840 985 994 761 932 985 b 803 678 817 985 800 847 b 547 272 807 351 758 274 z "},"":{"ha":918,"x_min":0,"x_max":0,"o":"m 906 1056 b 885 1060 899 1058 892 1060 b 717 803 839 1060 796 992 b 415 240 540 385 464 240 b 407 242 413 240 410 240 b 292 647 382 251 331 435 b 156 1063 253 861 192 1047 b 106 1074 138 1069 119 1074 b 82 1064 93 1074 85 1071 b 244 307 60 1011 160 547 b 379 32 296 165 356 42 b 396 29 385 29 390 29 b 803 629 485 29 643 261 b 906 1056 944 954 964 1031 z "},"":{"ha":1288,"x_min":0,"x_max":0,"o":"m 1225 1088 b 1197 1094 1215 1092 1206 1094 b 1129 971 1164 1094 1144 1058 b 828 149 1058 603 883 125 b 715 715 758 178 706 440 b 674 922 719 854 706 922 b 483 581 635 922 568 807 b 326 283 411 385 361 283 b 256 764 283 283 264 440 b 183 1169 249 999 219 1169 b 208 263 57 1151 71 688 b 353 88 246 144 300 88 b 517 338 418 88 482 174 b 589 467 535 425 564 467 b 643 314 617 467 640 415 b 885 -67 646 144 789 -81 b 1121 407 935 -60 1001 75 b 1225 1088 1307 925 1325 1044 z "},"":{"ha":1118,"x_min":0,"x_max":0,"o":"m 890 408 b 724 675 640 525 608 576 b 829 817 778 719 825 783 b 799 881 835 860 822 881 b 640 747 763 881 700 833 b 503 611 588 671 526 611 b 310 789 482 614 394 694 b 106 965 201 910 140 965 b 69 907 85 965 75 944 b 244 671 65 869 143 763 b 424 469 346 579 426 489 b 276 333 421 450 354 389 b 129 189 199 276 132 213 b 171 138 124 153 142 138 b 531 411 261 138 464 275 b 556 424 535 419 543 424 b 751 328 592 424 661 390 b 1013 189 889 233 968 189 b 1063 250 1043 189 1057 210 b 890 408 1068 290 990 361 z "}}}
